<mxfile host="app.diagrams.net" modified="2021-05-17T18:37:07.272Z" agent="5.0 (Macintosh; Intel Mac OS X 10_9_5) AppleWebKit/537.36 (KHTML, like Gecko) Chrome/67.0.3396.87 Safari/537.36" etag="EcXQQar2mz12kYuEjqPV" version="14.6.1" type="github">
  <diagram id="8I1JTsGvsf8hXT8Ia-GH" name="Page-1">
    <mxGraphModel dx="1968" dy="-639" grid="1" gridSize="10" guides="1" tooltips="1" connect="1" arrows="1" fold="1" page="1" pageScale="1" pageWidth="850" pageHeight="1100" math="0" shadow="0">
      <root>
        <mxCell id="0" />
        <mxCell id="1" parent="0" />
        <mxCell id="F0yUkIuMt_mIAwkm-PFu-2" style="edgeStyle=orthogonalEdgeStyle;rounded=0;orthogonalLoop=1;jettySize=auto;html=1;entryX=0;entryY=0.5;entryDx=0;entryDy=0;" edge="1" parent="1" source="F0yUkIuMt_mIAwkm-PFu-3" target="F0yUkIuMt_mIAwkm-PFu-4">
          <mxGeometry relative="1" as="geometry" />
        </mxCell>
        <mxCell id="F0yUkIuMt_mIAwkm-PFu-3" value="Crawling On Low Beam" style="whiteSpace=wrap;html=1;" vertex="1" parent="1">
          <mxGeometry x="800" y="1410" width="120" height="60" as="geometry" />
        </mxCell>
        <mxCell id="F0yUkIuMt_mIAwkm-PFu-4" value="Crawling On High Beam" style="whiteSpace=wrap;html=1;" vertex="1" parent="1">
          <mxGeometry x="1360" y="1410" width="120" height="60" as="geometry" />
        </mxCell>
        <mxCell id="F0yUkIuMt_mIAwkm-PFu-5" style="edgeStyle=orthogonalEdgeStyle;rounded=0;orthogonalLoop=1;jettySize=auto;html=1;entryX=0;entryY=0.5;entryDx=0;entryDy=0;" edge="1" parent="1" source="F0yUkIuMt_mIAwkm-PFu-12" target="F0yUkIuMt_mIAwkm-PFu-16">
          <mxGeometry relative="1" as="geometry">
            <Array as="points">
              <mxPoint x="190" y="1710" />
              <mxPoint x="190" y="1880" />
            </Array>
          </mxGeometry>
        </mxCell>
        <mxCell id="F0yUkIuMt_mIAwkm-PFu-6" style="edgeStyle=orthogonalEdgeStyle;rounded=0;orthogonalLoop=1;jettySize=auto;html=1;entryX=0;entryY=0.5;entryDx=0;entryDy=0;" edge="1" parent="1" source="F0yUkIuMt_mIAwkm-PFu-12" target="F0yUkIuMt_mIAwkm-PFu-25">
          <mxGeometry relative="1" as="geometry">
            <Array as="points">
              <mxPoint x="190" y="1710" />
              <mxPoint x="190" y="1800" />
            </Array>
          </mxGeometry>
        </mxCell>
        <mxCell id="F0yUkIuMt_mIAwkm-PFu-7" style="edgeStyle=orthogonalEdgeStyle;rounded=0;orthogonalLoop=1;jettySize=auto;html=1;entryX=0;entryY=0.5;entryDx=0;entryDy=0;" edge="1" parent="1" source="F0yUkIuMt_mIAwkm-PFu-12" target="F0yUkIuMt_mIAwkm-PFu-29">
          <mxGeometry relative="1" as="geometry">
            <Array as="points">
              <mxPoint x="190" y="1710" />
              <mxPoint x="190" y="1630" />
              <mxPoint x="1120" y="1630" />
            </Array>
          </mxGeometry>
        </mxCell>
        <mxCell id="F0yUkIuMt_mIAwkm-PFu-8" style="edgeStyle=orthogonalEdgeStyle;rounded=0;orthogonalLoop=1;jettySize=auto;html=1;entryX=0;entryY=0.5;entryDx=0;entryDy=0;" edge="1" parent="1" source="F0yUkIuMt_mIAwkm-PFu-12" target="F0yUkIuMt_mIAwkm-PFu-33">
          <mxGeometry relative="1" as="geometry">
            <Array as="points">
              <mxPoint x="190" y="1710" />
              <mxPoint x="190" y="1550" />
            </Array>
          </mxGeometry>
        </mxCell>
        <mxCell id="F0yUkIuMt_mIAwkm-PFu-9" style="edgeStyle=orthogonalEdgeStyle;rounded=0;orthogonalLoop=1;jettySize=auto;html=1;entryX=0;entryY=0.5;entryDx=0;entryDy=0;" edge="1" parent="1" source="F0yUkIuMt_mIAwkm-PFu-12" target="F0yUkIuMt_mIAwkm-PFu-3">
          <mxGeometry relative="1" as="geometry">
            <Array as="points">
              <mxPoint x="190" y="1710" />
              <mxPoint x="190" y="1440" />
            </Array>
          </mxGeometry>
        </mxCell>
        <mxCell id="F0yUkIuMt_mIAwkm-PFu-10" style="edgeStyle=orthogonalEdgeStyle;rounded=0;orthogonalLoop=1;jettySize=auto;html=1;entryX=0;entryY=0.5;entryDx=0;entryDy=0;" edge="1" parent="1" source="F0yUkIuMt_mIAwkm-PFu-12" target="F0yUkIuMt_mIAwkm-PFu-14">
          <mxGeometry relative="1" as="geometry" />
        </mxCell>
        <mxCell id="F0yUkIuMt_mIAwkm-PFu-11" style="edgeStyle=orthogonalEdgeStyle;rounded=0;orthogonalLoop=1;jettySize=auto;html=1;entryX=0;entryY=0.5;entryDx=0;entryDy=0;" edge="1" parent="1" source="F0yUkIuMt_mIAwkm-PFu-12" target="F0yUkIuMt_mIAwkm-PFu-21">
          <mxGeometry relative="1" as="geometry" />
        </mxCell>
        <mxCell id="F0yUkIuMt_mIAwkm-PFu-12" value="Vault" style="whiteSpace=wrap;html=1;" vertex="1" parent="1">
          <mxGeometry x="-50" y="1650" width="120" height="120" as="geometry" />
        </mxCell>
        <mxCell id="F0yUkIuMt_mIAwkm-PFu-13" style="edgeStyle=orthogonalEdgeStyle;rounded=0;orthogonalLoop=1;jettySize=auto;html=1;entryX=0;entryY=0.5;entryDx=0;entryDy=0;" edge="1" parent="1" source="F0yUkIuMt_mIAwkm-PFu-14" target="F0yUkIuMt_mIAwkm-PFu-31">
          <mxGeometry relative="1" as="geometry" />
        </mxCell>
        <mxCell id="F0yUkIuMt_mIAwkm-PFu-14" value="Running 12 m (40 ft)" style="whiteSpace=wrap;html=1;" vertex="1" parent="1">
          <mxGeometry x="520" y="1680" width="120" height="60" as="geometry" />
        </mxCell>
        <mxCell id="F0yUkIuMt_mIAwkm-PFu-15" value="" style="edgeStyle=orthogonalEdgeStyle;rounded=0;orthogonalLoop=1;jettySize=auto;html=1;" edge="1" parent="1" source="F0yUkIuMt_mIAwkm-PFu-16" target="F0yUkIuMt_mIAwkm-PFu-18">
          <mxGeometry relative="1" as="geometry" />
        </mxCell>
        <mxCell id="F0yUkIuMt_mIAwkm-PFu-16" value="Small Jump, Hands On Knee Height Box" style="whiteSpace=wrap;html=1;" vertex="1" parent="1">
          <mxGeometry x="520" y="1850" width="120" height="60" as="geometry" />
        </mxCell>
        <mxCell id="F0yUkIuMt_mIAwkm-PFu-17" value="" style="edgeStyle=orthogonalEdgeStyle;rounded=0;orthogonalLoop=1;jettySize=auto;html=1;" edge="1" parent="1" source="F0yUkIuMt_mIAwkm-PFu-18" target="F0yUkIuMt_mIAwkm-PFu-27">
          <mxGeometry relative="1" as="geometry" />
        </mxCell>
        <mxCell id="F0yUkIuMt_mIAwkm-PFu-18" value="Hands On Box, Jump To Knees On Box" style="whiteSpace=wrap;html=1;" vertex="1" parent="1">
          <mxGeometry x="800" y="1850" width="120" height="60" as="geometry" />
        </mxCell>
        <mxCell id="F0yUkIuMt_mIAwkm-PFu-19" value="" style="edgeStyle=orthogonalEdgeStyle;rounded=0;orthogonalLoop=1;jettySize=auto;html=1;" edge="1" parent="1" source="F0yUkIuMt_mIAwkm-PFu-21" target="F0yUkIuMt_mIAwkm-PFu-23">
          <mxGeometry relative="1" as="geometry" />
        </mxCell>
        <mxCell id="F0yUkIuMt_mIAwkm-PFu-20" style="edgeStyle=orthogonalEdgeStyle;rounded=0;orthogonalLoop=1;jettySize=auto;html=1;entryX=0.5;entryY=1;entryDx=0;entryDy=0;" edge="1" parent="1" source="F0yUkIuMt_mIAwkm-PFu-21" target="F0yUkIuMt_mIAwkm-PFu-27">
          <mxGeometry relative="1" as="geometry">
            <Array as="points">
              <mxPoint x="410" y="1970" />
              <mxPoint x="410" y="1930" />
              <mxPoint x="1180" y="1930" />
            </Array>
          </mxGeometry>
        </mxCell>
        <mxCell id="F0yUkIuMt_mIAwkm-PFu-21" value="Squat Position On Floor" style="whiteSpace=wrap;html=1;" vertex="1" parent="1">
          <mxGeometry x="240" y="1940" width="120" height="60" as="geometry" />
        </mxCell>
        <mxCell id="F0yUkIuMt_mIAwkm-PFu-22" style="edgeStyle=orthogonalEdgeStyle;rounded=0;orthogonalLoop=1;jettySize=auto;html=1;entryX=0.5;entryY=1;entryDx=0;entryDy=0;" edge="1" parent="1" source="F0yUkIuMt_mIAwkm-PFu-23" target="F0yUkIuMt_mIAwkm-PFu-30">
          <mxGeometry relative="1" as="geometry" />
        </mxCell>
        <mxCell id="F0yUkIuMt_mIAwkm-PFu-23" value="Straddle Position,&lt;br&gt;Hands On Floor" style="whiteSpace=wrap;html=1;" vertex="1" parent="1">
          <mxGeometry x="520" y="1940" width="120" height="60" as="geometry" />
        </mxCell>
        <mxCell id="F0yUkIuMt_mIAwkm-PFu-24" style="edgeStyle=orthogonalEdgeStyle;rounded=0;orthogonalLoop=1;jettySize=auto;html=1;entryX=0;entryY=0.5;entryDx=0;entryDy=0;" edge="1" parent="1" source="F0yUkIuMt_mIAwkm-PFu-25" target="F0yUkIuMt_mIAwkm-PFu-28">
          <mxGeometry relative="1" as="geometry" />
        </mxCell>
        <mxCell id="F0yUkIuMt_mIAwkm-PFu-25" value="Step Forward to 2 Foot Landing" style="whiteSpace=wrap;html=1;" vertex="1" parent="1">
          <mxGeometry x="800" y="1770" width="120" height="60" as="geometry" />
        </mxCell>
        <mxCell id="F0yUkIuMt_mIAwkm-PFu-26" value="" style="edgeStyle=orthogonalEdgeStyle;rounded=0;orthogonalLoop=1;jettySize=auto;html=1;" edge="1" parent="1" source="F0yUkIuMt_mIAwkm-PFu-27" target="F0yUkIuMt_mIAwkm-PFu-30">
          <mxGeometry relative="1" as="geometry" />
        </mxCell>
        <mxCell id="F0yUkIuMt_mIAwkm-PFu-27" value="Squat On Knee Height Box From Stand" style="whiteSpace=wrap;html=1;" vertex="1" parent="1">
          <mxGeometry x="1080" y="1850" width="120" height="60" as="geometry" />
        </mxCell>
        <mxCell id="F0yUkIuMt_mIAwkm-PFu-28" value="3-4 Steps to 2 Foot Landing" style="whiteSpace=wrap;html=1;" vertex="1" parent="1">
          <mxGeometry x="1080" y="1770" width="120" height="60" as="geometry" />
        </mxCell>
        <mxCell id="F0yUkIuMt_mIAwkm-PFu-29" value="Forward Stuck Landing From Knee Height Box" style="whiteSpace=wrap;html=1;" vertex="1" parent="1">
          <mxGeometry x="1080" y="1600" width="120" height="60" as="geometry" />
        </mxCell>
        <mxCell id="F0yUkIuMt_mIAwkm-PFu-30" value="Straddle On Knee Height Box From Stand" style="whiteSpace=wrap;html=1;" vertex="1" parent="1">
          <mxGeometry x="1360" y="1850" width="120" height="60" as="geometry" />
        </mxCell>
        <mxCell id="F0yUkIuMt_mIAwkm-PFu-31" value="Running 24m (80 ft)" style="whiteSpace=wrap;html=1;" vertex="1" parent="1">
          <mxGeometry x="1360" y="1680" width="120" height="60" as="geometry" />
        </mxCell>
        <mxCell id="F0yUkIuMt_mIAwkm-PFu-32" style="edgeStyle=orthogonalEdgeStyle;rounded=0;orthogonalLoop=1;jettySize=auto;html=1;entryX=0;entryY=0.5;entryDx=0;entryDy=0;" edge="1" parent="1" source="F0yUkIuMt_mIAwkm-PFu-33" target="F0yUkIuMt_mIAwkm-PFu-34">
          <mxGeometry relative="1" as="geometry" />
        </mxCell>
        <mxCell id="F0yUkIuMt_mIAwkm-PFu-33" value="Bouncing on Spring or Tramp Board" style="whiteSpace=wrap;html=1;" vertex="1" parent="1">
          <mxGeometry x="800" y="1520" width="120" height="60" as="geometry" />
        </mxCell>
        <mxCell id="F0yUkIuMt_mIAwkm-PFu-34" value="5 x Tuck and Straddle Bounces, Hands On Waist Height Block" style="whiteSpace=wrap;html=1;" vertex="1" parent="1">
          <mxGeometry x="1360" y="1520" width="120" height="60" as="geometry" />
        </mxCell>
        <mxCell id="F0yUkIuMt_mIAwkm-PFu-35" value="" style="edgeStyle=orthogonalEdgeStyle;rounded=0;orthogonalLoop=1;jettySize=auto;html=1;" edge="1" parent="1" source="F0yUkIuMt_mIAwkm-PFu-36" target="F0yUkIuMt_mIAwkm-PFu-42">
          <mxGeometry relative="1" as="geometry" />
        </mxCell>
        <mxCell id="F0yUkIuMt_mIAwkm-PFu-36" value="Uneven Bars" style="whiteSpace=wrap;html=1;" vertex="1" parent="1">
          <mxGeometry x="-40" y="2170" width="120" height="120" as="geometry" />
        </mxCell>
        <mxCell id="F0yUkIuMt_mIAwkm-PFu-37" value="" style="edgeStyle=orthogonalEdgeStyle;rounded=0;orthogonalLoop=1;jettySize=auto;html=1;" edge="1" parent="1" source="F0yUkIuMt_mIAwkm-PFu-42" target="F0yUkIuMt_mIAwkm-PFu-45">
          <mxGeometry relative="1" as="geometry" />
        </mxCell>
        <mxCell id="F0yUkIuMt_mIAwkm-PFu-38" style="edgeStyle=orthogonalEdgeStyle;rounded=0;orthogonalLoop=1;jettySize=auto;html=1;entryX=0;entryY=0.5;entryDx=0;entryDy=0;" edge="1" parent="1" source="F0yUkIuMt_mIAwkm-PFu-42" target="F0yUkIuMt_mIAwkm-PFu-50">
          <mxGeometry relative="1" as="geometry" />
        </mxCell>
        <mxCell id="F0yUkIuMt_mIAwkm-PFu-39" style="edgeStyle=orthogonalEdgeStyle;rounded=0;orthogonalLoop=1;jettySize=auto;html=1;entryX=0;entryY=0.5;entryDx=0;entryDy=0;" edge="1" parent="1" source="F0yUkIuMt_mIAwkm-PFu-42" target="F0yUkIuMt_mIAwkm-PFu-48">
          <mxGeometry relative="1" as="geometry" />
        </mxCell>
        <mxCell id="F0yUkIuMt_mIAwkm-PFu-40" style="edgeStyle=orthogonalEdgeStyle;rounded=0;orthogonalLoop=1;jettySize=auto;html=1;entryX=0;entryY=0.5;entryDx=0;entryDy=0;" edge="1" parent="1" source="F0yUkIuMt_mIAwkm-PFu-42" target="F0yUkIuMt_mIAwkm-PFu-60">
          <mxGeometry relative="1" as="geometry">
            <Array as="points">
              <mxPoint x="200" y="2230" />
              <mxPoint x="200" y="2060" />
            </Array>
          </mxGeometry>
        </mxCell>
        <mxCell id="F0yUkIuMt_mIAwkm-PFu-41" style="edgeStyle=orthogonalEdgeStyle;rounded=0;orthogonalLoop=1;jettySize=auto;html=1;entryX=0;entryY=0.5;entryDx=0;entryDy=0;" edge="1" parent="1" source="F0yUkIuMt_mIAwkm-PFu-42" target="F0yUkIuMt_mIAwkm-PFu-59">
          <mxGeometry relative="1" as="geometry">
            <Array as="points">
              <mxPoint x="200" y="2230" />
              <mxPoint x="200" y="2480" />
            </Array>
          </mxGeometry>
        </mxCell>
        <mxCell id="F0yUkIuMt_mIAwkm-PFu-42" value="Hanging On Low Rail" style="whiteSpace=wrap;html=1;" vertex="1" parent="1">
          <mxGeometry x="240" y="2200" width="120" height="60" as="geometry" />
        </mxCell>
        <mxCell id="F0yUkIuMt_mIAwkm-PFu-43" style="edgeStyle=orthogonalEdgeStyle;rounded=0;orthogonalLoop=1;jettySize=auto;html=1;entryX=0;entryY=0.5;entryDx=0;entryDy=0;" edge="1" parent="1" source="F0yUkIuMt_mIAwkm-PFu-45" target="F0yUkIuMt_mIAwkm-PFu-55">
          <mxGeometry relative="1" as="geometry" />
        </mxCell>
        <mxCell id="F0yUkIuMt_mIAwkm-PFu-44" value="" style="edgeStyle=orthogonalEdgeStyle;rounded=0;orthogonalLoop=1;jettySize=auto;html=1;" edge="1" parent="1" source="F0yUkIuMt_mIAwkm-PFu-45" target="F0yUkIuMt_mIAwkm-PFu-50">
          <mxGeometry relative="1" as="geometry" />
        </mxCell>
        <mxCell id="F0yUkIuMt_mIAwkm-PFu-45" value="Hanging In Tuck" style="whiteSpace=wrap;html=1;" vertex="1" parent="1">
          <mxGeometry x="520" y="2200" width="120" height="60" as="geometry" />
        </mxCell>
        <mxCell id="F0yUkIuMt_mIAwkm-PFu-46" style="edgeStyle=orthogonalEdgeStyle;rounded=0;orthogonalLoop=1;jettySize=auto;html=1;entryX=0;entryY=0.5;entryDx=0;entryDy=0;" edge="1" parent="1" source="F0yUkIuMt_mIAwkm-PFu-48" target="F0yUkIuMt_mIAwkm-PFu-53">
          <mxGeometry relative="1" as="geometry" />
        </mxCell>
        <mxCell id="F0yUkIuMt_mIAwkm-PFu-47" style="edgeStyle=orthogonalEdgeStyle;rounded=0;orthogonalLoop=1;jettySize=auto;html=1;entryX=0;entryY=0.5;entryDx=0;entryDy=0;" edge="1" parent="1" source="F0yUkIuMt_mIAwkm-PFu-48" target="F0yUkIuMt_mIAwkm-PFu-55">
          <mxGeometry relative="1" as="geometry" />
        </mxCell>
        <mxCell id="F0yUkIuMt_mIAwkm-PFu-48" value="Hanging With Legs Together" style="whiteSpace=wrap;html=1;" vertex="1" parent="1">
          <mxGeometry x="520" y="2290" width="120" height="60" as="geometry" />
        </mxCell>
        <mxCell id="F0yUkIuMt_mIAwkm-PFu-49" style="edgeStyle=orthogonalEdgeStyle;rounded=0;orthogonalLoop=1;jettySize=auto;html=1;entryX=0;entryY=0.5;entryDx=0;entryDy=0;" edge="1" parent="1" source="F0yUkIuMt_mIAwkm-PFu-50" target="F0yUkIuMt_mIAwkm-PFu-57">
          <mxGeometry relative="1" as="geometry" />
        </mxCell>
        <mxCell id="F0yUkIuMt_mIAwkm-PFu-50" value="Touch Toes To Bar With Assistance" style="whiteSpace=wrap;html=1;" vertex="1" parent="1">
          <mxGeometry x="520" y="2110" width="120" height="60" as="geometry" />
        </mxCell>
        <mxCell id="F0yUkIuMt_mIAwkm-PFu-51" style="edgeStyle=orthogonalEdgeStyle;rounded=0;orthogonalLoop=1;jettySize=auto;html=1;" edge="1" parent="1" source="F0yUkIuMt_mIAwkm-PFu-53" target="F0yUkIuMt_mIAwkm-PFu-63">
          <mxGeometry relative="1" as="geometry" />
        </mxCell>
        <mxCell id="F0yUkIuMt_mIAwkm-PFu-52" style="edgeStyle=orthogonalEdgeStyle;rounded=0;orthogonalLoop=1;jettySize=auto;html=1;entryX=0;entryY=0.5;entryDx=0;entryDy=0;" edge="1" parent="1" source="F0yUkIuMt_mIAwkm-PFu-53" target="F0yUkIuMt_mIAwkm-PFu-66">
          <mxGeometry relative="1" as="geometry">
            <Array as="points">
              <mxPoint x="860" y="2400" />
            </Array>
          </mxGeometry>
        </mxCell>
        <mxCell id="F0yUkIuMt_mIAwkm-PFu-53" value="Landing From Low Bar" style="whiteSpace=wrap;html=1;" vertex="1" parent="1">
          <mxGeometry x="800" y="2290" width="120" height="60" as="geometry" />
        </mxCell>
        <mxCell id="F0yUkIuMt_mIAwkm-PFu-54" value="" style="edgeStyle=orthogonalEdgeStyle;rounded=0;orthogonalLoop=1;jettySize=auto;html=1;" edge="1" parent="1" source="F0yUkIuMt_mIAwkm-PFu-55" target="F0yUkIuMt_mIAwkm-PFu-62">
          <mxGeometry relative="1" as="geometry" />
        </mxCell>
        <mxCell id="F0yUkIuMt_mIAwkm-PFu-55" value="Hanging In Straddle" style="whiteSpace=wrap;html=1;" vertex="1" parent="1">
          <mxGeometry x="800" y="2200" width="120" height="60" as="geometry" />
        </mxCell>
        <mxCell id="F0yUkIuMt_mIAwkm-PFu-56" value="" style="edgeStyle=orthogonalEdgeStyle;rounded=0;orthogonalLoop=1;jettySize=auto;html=1;" edge="1" parent="1" source="F0yUkIuMt_mIAwkm-PFu-57" target="F0yUkIuMt_mIAwkm-PFu-64">
          <mxGeometry relative="1" as="geometry" />
        </mxCell>
        <mxCell id="F0yUkIuMt_mIAwkm-PFu-57" value="Touch Toes To Bar" style="whiteSpace=wrap;html=1;" vertex="1" parent="1">
          <mxGeometry x="1080" y="2110" width="120" height="60" as="geometry" />
        </mxCell>
        <mxCell id="F0yUkIuMt_mIAwkm-PFu-58" style="edgeStyle=orthogonalEdgeStyle;rounded=0;orthogonalLoop=1;jettySize=auto;html=1;entryX=0;entryY=0.5;entryDx=0;entryDy=0;" edge="1" parent="1" source="F0yUkIuMt_mIAwkm-PFu-59" target="F0yUkIuMt_mIAwkm-PFu-329">
          <mxGeometry relative="1" as="geometry" />
        </mxCell>
        <mxCell id="F0yUkIuMt_mIAwkm-PFu-59" value="Modified Chin Up With Assistance" style="whiteSpace=wrap;html=1;" vertex="1" parent="1">
          <mxGeometry x="800" y="2450" width="120" height="60" as="geometry" />
        </mxCell>
        <mxCell id="F0yUkIuMt_mIAwkm-PFu-60" value="Hanging From High Rail" style="whiteSpace=wrap;html=1;" vertex="1" parent="1">
          <mxGeometry x="1080" y="2030" width="120" height="60" as="geometry" />
        </mxCell>
        <mxCell id="F0yUkIuMt_mIAwkm-PFu-61" value="" style="edgeStyle=orthogonalEdgeStyle;rounded=0;orthogonalLoop=1;jettySize=auto;html=1;" edge="1" parent="1" source="F0yUkIuMt_mIAwkm-PFu-62" target="F0yUkIuMt_mIAwkm-PFu-65">
          <mxGeometry relative="1" as="geometry" />
        </mxCell>
        <mxCell id="F0yUkIuMt_mIAwkm-PFu-62" value="Lift Toes To Horizontal Straddle" style="whiteSpace=wrap;html=1;" vertex="1" parent="1">
          <mxGeometry x="1080" y="2200" width="120" height="60" as="geometry" />
        </mxCell>
        <mxCell id="F0yUkIuMt_mIAwkm-PFu-63" value="Landing From High Bar With Assistance" style="whiteSpace=wrap;html=1;" vertex="1" parent="1">
          <mxGeometry x="1360" y="2290" width="120" height="60" as="geometry" />
        </mxCell>
        <mxCell id="F0yUkIuMt_mIAwkm-PFu-64" value="Tucked Inverted Hang With Assistance" style="whiteSpace=wrap;html=1;" vertex="1" parent="1">
          <mxGeometry x="1360" y="2110" width="120" height="60" as="geometry" />
        </mxCell>
        <mxCell id="F0yUkIuMt_mIAwkm-PFu-65" value="Lift Toes in Pike To 45 Degrees Below Horizontal" style="whiteSpace=wrap;html=1;" vertex="1" parent="1">
          <mxGeometry x="1360" y="2200" width="120" height="60" as="geometry" />
        </mxCell>
        <mxCell id="F0yUkIuMt_mIAwkm-PFu-66" value="Monkey Walk On Low Rail" style="whiteSpace=wrap;html=1;" vertex="1" parent="1">
          <mxGeometry x="1080" y="2370" width="120" height="60" as="geometry" />
        </mxCell>
        <mxCell id="F0yUkIuMt_mIAwkm-PFu-67" style="edgeStyle=orthogonalEdgeStyle;rounded=0;orthogonalLoop=1;jettySize=auto;html=1;entryX=0;entryY=0.5;entryDx=0;entryDy=0;" edge="1" parent="1" source="F0yUkIuMt_mIAwkm-PFu-73" target="F0yUkIuMt_mIAwkm-PFu-75">
          <mxGeometry relative="1" as="geometry" />
        </mxCell>
        <mxCell id="F0yUkIuMt_mIAwkm-PFu-68" style="edgeStyle=orthogonalEdgeStyle;rounded=0;orthogonalLoop=1;jettySize=auto;html=1;entryX=0;entryY=0.5;entryDx=0;entryDy=0;" edge="1" parent="1" source="F0yUkIuMt_mIAwkm-PFu-73" target="F0yUkIuMt_mIAwkm-PFu-77">
          <mxGeometry relative="1" as="geometry" />
        </mxCell>
        <mxCell id="F0yUkIuMt_mIAwkm-PFu-69" style="edgeStyle=orthogonalEdgeStyle;rounded=0;orthogonalLoop=1;jettySize=auto;html=1;entryX=0;entryY=0.5;entryDx=0;entryDy=0;" edge="1" parent="1" source="F0yUkIuMt_mIAwkm-PFu-73" target="F0yUkIuMt_mIAwkm-PFu-79">
          <mxGeometry relative="1" as="geometry" />
        </mxCell>
        <mxCell id="F0yUkIuMt_mIAwkm-PFu-70" style="edgeStyle=orthogonalEdgeStyle;rounded=0;orthogonalLoop=1;jettySize=auto;html=1;entryX=0;entryY=0.5;entryDx=0;entryDy=0;" edge="1" parent="1" source="F0yUkIuMt_mIAwkm-PFu-73" target="F0yUkIuMt_mIAwkm-PFu-85">
          <mxGeometry relative="1" as="geometry" />
        </mxCell>
        <mxCell id="F0yUkIuMt_mIAwkm-PFu-71" style="edgeStyle=orthogonalEdgeStyle;rounded=0;orthogonalLoop=1;jettySize=auto;html=1;entryX=0;entryY=0.5;entryDx=0;entryDy=0;" edge="1" parent="1" source="F0yUkIuMt_mIAwkm-PFu-73" target="F0yUkIuMt_mIAwkm-PFu-87">
          <mxGeometry relative="1" as="geometry">
            <Array as="points">
              <mxPoint x="160" y="2810" />
              <mxPoint x="160" y="2990" />
            </Array>
          </mxGeometry>
        </mxCell>
        <mxCell id="F0yUkIuMt_mIAwkm-PFu-72" style="edgeStyle=orthogonalEdgeStyle;rounded=0;orthogonalLoop=1;jettySize=auto;html=1;entryX=0;entryY=0.5;entryDx=0;entryDy=0;" edge="1" parent="1" source="F0yUkIuMt_mIAwkm-PFu-73" target="F0yUkIuMt_mIAwkm-PFu-89">
          <mxGeometry relative="1" as="geometry">
            <Array as="points">
              <mxPoint x="160" y="2810" />
              <mxPoint x="160" y="3060" />
            </Array>
          </mxGeometry>
        </mxCell>
        <mxCell id="F0yUkIuMt_mIAwkm-PFu-73" value="Balance Beam" style="whiteSpace=wrap;html=1;" vertex="1" parent="1">
          <mxGeometry x="-40" y="2750" width="120" height="120" as="geometry" />
        </mxCell>
        <mxCell id="F0yUkIuMt_mIAwkm-PFu-74" style="edgeStyle=orthogonalEdgeStyle;rounded=0;orthogonalLoop=1;jettySize=auto;html=1;entryX=0;entryY=0.5;entryDx=0;entryDy=0;" edge="1" parent="1" source="F0yUkIuMt_mIAwkm-PFu-75" target="F0yUkIuMt_mIAwkm-PFu-81">
          <mxGeometry relative="1" as="geometry" />
        </mxCell>
        <mxCell id="F0yUkIuMt_mIAwkm-PFu-75" value="Walking Forward On A Line" style="whiteSpace=wrap;html=1;" vertex="1" parent="1">
          <mxGeometry x="240" y="2710" width="120" height="60" as="geometry" />
        </mxCell>
        <mxCell id="F0yUkIuMt_mIAwkm-PFu-76" style="edgeStyle=orthogonalEdgeStyle;rounded=0;orthogonalLoop=1;jettySize=auto;html=1;" edge="1" parent="1" source="F0yUkIuMt_mIAwkm-PFu-77" target="F0yUkIuMt_mIAwkm-PFu-83">
          <mxGeometry relative="1" as="geometry" />
        </mxCell>
        <mxCell id="F0yUkIuMt_mIAwkm-PFu-77" value="Walking Sideways On A Line" style="whiteSpace=wrap;html=1;" vertex="1" parent="1">
          <mxGeometry x="240" y="2800" width="120" height="60" as="geometry" />
        </mxCell>
        <mxCell id="F0yUkIuMt_mIAwkm-PFu-78" style="edgeStyle=orthogonalEdgeStyle;rounded=0;orthogonalLoop=1;jettySize=auto;html=1;entryX=0;entryY=0.5;entryDx=0;entryDy=0;" edge="1" parent="1" source="F0yUkIuMt_mIAwkm-PFu-79" target="F0yUkIuMt_mIAwkm-PFu-97">
          <mxGeometry relative="1" as="geometry" />
        </mxCell>
        <mxCell id="F0yUkIuMt_mIAwkm-PFu-79" value="Stepping Over Objects On A Line" style="whiteSpace=wrap;html=1;" vertex="1" parent="1">
          <mxGeometry x="240" y="2890" width="120" height="60" as="geometry" />
        </mxCell>
        <mxCell id="F0yUkIuMt_mIAwkm-PFu-80" style="edgeStyle=orthogonalEdgeStyle;rounded=0;orthogonalLoop=1;jettySize=auto;html=1;entryX=0;entryY=0.5;entryDx=0;entryDy=0;" edge="1" parent="1" source="F0yUkIuMt_mIAwkm-PFu-81" target="F0yUkIuMt_mIAwkm-PFu-94">
          <mxGeometry relative="1" as="geometry" />
        </mxCell>
        <mxCell id="F0yUkIuMt_mIAwkm-PFu-81" value="Walking Forward On Low Beam With Assistance" style="whiteSpace=wrap;html=1;" vertex="1" parent="1">
          <mxGeometry x="520" y="2710" width="120" height="60" as="geometry" />
        </mxCell>
        <mxCell id="F0yUkIuMt_mIAwkm-PFu-82" value="" style="edgeStyle=orthogonalEdgeStyle;rounded=0;orthogonalLoop=1;jettySize=auto;html=1;" edge="1" parent="1" source="F0yUkIuMt_mIAwkm-PFu-83" target="F0yUkIuMt_mIAwkm-PFu-95">
          <mxGeometry relative="1" as="geometry" />
        </mxCell>
        <mxCell id="F0yUkIuMt_mIAwkm-PFu-83" value="Walking Sideways On Low Beam With Assistance" style="whiteSpace=wrap;html=1;" vertex="1" parent="1">
          <mxGeometry x="520" y="2800" width="120" height="60" as="geometry" />
        </mxCell>
        <mxCell id="F0yUkIuMt_mIAwkm-PFu-84" style="edgeStyle=orthogonalEdgeStyle;rounded=0;orthogonalLoop=1;jettySize=auto;html=1;" edge="1" parent="1" source="F0yUkIuMt_mIAwkm-PFu-85" target="F0yUkIuMt_mIAwkm-PFu-91">
          <mxGeometry relative="1" as="geometry" />
        </mxCell>
        <mxCell id="F0yUkIuMt_mIAwkm-PFu-85" value="Standing On Low Beam" style="whiteSpace=wrap;html=1;" vertex="1" parent="1">
          <mxGeometry x="240" y="2610" width="120" height="60" as="geometry" />
        </mxCell>
        <mxCell id="F0yUkIuMt_mIAwkm-PFu-86" style="edgeStyle=orthogonalEdgeStyle;rounded=0;orthogonalLoop=1;jettySize=auto;html=1;entryX=0;entryY=0.5;entryDx=0;entryDy=0;" edge="1" parent="1" source="F0yUkIuMt_mIAwkm-PFu-87" target="F0yUkIuMt_mIAwkm-PFu-100">
          <mxGeometry relative="1" as="geometry" />
        </mxCell>
        <mxCell id="F0yUkIuMt_mIAwkm-PFu-87" value="Hopping On A Line" style="whiteSpace=wrap;html=1;" vertex="1" parent="1">
          <mxGeometry x="520" y="2960" width="120" height="60" as="geometry" />
        </mxCell>
        <mxCell id="F0yUkIuMt_mIAwkm-PFu-88" value="" style="edgeStyle=orthogonalEdgeStyle;rounded=0;orthogonalLoop=1;jettySize=auto;html=1;" edge="1" parent="1" source="F0yUkIuMt_mIAwkm-PFu-89" target="F0yUkIuMt_mIAwkm-PFu-102">
          <mxGeometry relative="1" as="geometry" />
        </mxCell>
        <mxCell id="F0yUkIuMt_mIAwkm-PFu-89" value="Walking Backwards On A Line" style="whiteSpace=wrap;html=1;" vertex="1" parent="1">
          <mxGeometry x="520" y="3030" width="120" height="60" as="geometry" />
        </mxCell>
        <mxCell id="F0yUkIuMt_mIAwkm-PFu-90" style="edgeStyle=orthogonalEdgeStyle;rounded=0;orthogonalLoop=1;jettySize=auto;html=1;" edge="1" parent="1" source="F0yUkIuMt_mIAwkm-PFu-91" target="F0yUkIuMt_mIAwkm-PFu-107">
          <mxGeometry relative="1" as="geometry" />
        </mxCell>
        <mxCell id="F0yUkIuMt_mIAwkm-PFu-91" value="Standing On High Beam With Asistance" style="whiteSpace=wrap;html=1;" vertex="1" parent="1">
          <mxGeometry x="520" y="2610" width="120" height="60" as="geometry" />
        </mxCell>
        <mxCell id="F0yUkIuMt_mIAwkm-PFu-92" style="edgeStyle=orthogonalEdgeStyle;rounded=0;orthogonalLoop=1;jettySize=auto;html=1;entryX=0;entryY=0.5;entryDx=0;entryDy=0;" edge="1" parent="1" source="F0yUkIuMt_mIAwkm-PFu-94" target="F0yUkIuMt_mIAwkm-PFu-109">
          <mxGeometry relative="1" as="geometry" />
        </mxCell>
        <mxCell id="F0yUkIuMt_mIAwkm-PFu-93" style="edgeStyle=orthogonalEdgeStyle;rounded=0;orthogonalLoop=1;jettySize=auto;html=1;entryX=0;entryY=0.5;entryDx=0;entryDy=0;" edge="1" parent="1" source="F0yUkIuMt_mIAwkm-PFu-94" target="F0yUkIuMt_mIAwkm-PFu-110">
          <mxGeometry relative="1" as="geometry" />
        </mxCell>
        <mxCell id="F0yUkIuMt_mIAwkm-PFu-94" value="Walking Forward On Low Beam" style="whiteSpace=wrap;html=1;" vertex="1" parent="1">
          <mxGeometry x="800" y="2710" width="120" height="60" as="geometry" />
        </mxCell>
        <mxCell id="F0yUkIuMt_mIAwkm-PFu-95" value="Walking Sideways On Low Beam" style="whiteSpace=wrap;html=1;" vertex="1" parent="1">
          <mxGeometry x="800" y="2800" width="120" height="60" as="geometry" />
        </mxCell>
        <mxCell id="F0yUkIuMt_mIAwkm-PFu-96" value="" style="edgeStyle=orthogonalEdgeStyle;rounded=0;orthogonalLoop=1;jettySize=auto;html=1;" edge="1" parent="1" source="F0yUkIuMt_mIAwkm-PFu-97" target="F0yUkIuMt_mIAwkm-PFu-98">
          <mxGeometry relative="1" as="geometry" />
        </mxCell>
        <mxCell id="F0yUkIuMt_mIAwkm-PFu-97" value="Stepping Over Objects On Low Beam With Assistance" style="whiteSpace=wrap;html=1;" vertex="1" parent="1">
          <mxGeometry x="800" y="2890" width="120" height="60" as="geometry" />
        </mxCell>
        <mxCell id="F0yUkIuMt_mIAwkm-PFu-98" value="Stepping Over Objects On Low Beam" style="whiteSpace=wrap;html=1;" vertex="1" parent="1">
          <mxGeometry x="1080" y="2890" width="120" height="60" as="geometry" />
        </mxCell>
        <mxCell id="F0yUkIuMt_mIAwkm-PFu-99" style="edgeStyle=orthogonalEdgeStyle;rounded=0;orthogonalLoop=1;jettySize=auto;html=1;entryX=0;entryY=0.5;entryDx=0;entryDy=0;" edge="1" parent="1" source="F0yUkIuMt_mIAwkm-PFu-100" target="F0yUkIuMt_mIAwkm-PFu-113">
          <mxGeometry relative="1" as="geometry" />
        </mxCell>
        <mxCell id="F0yUkIuMt_mIAwkm-PFu-100" value="Hopping On Low Beam" style="whiteSpace=wrap;html=1;" vertex="1" parent="1">
          <mxGeometry x="1080" y="2960" width="120" height="60" as="geometry" />
        </mxCell>
        <mxCell id="F0yUkIuMt_mIAwkm-PFu-101" style="edgeStyle=orthogonalEdgeStyle;rounded=0;orthogonalLoop=1;jettySize=auto;html=1;entryX=0;entryY=0.5;entryDx=0;entryDy=0;" edge="1" parent="1" source="F0yUkIuMt_mIAwkm-PFu-102" target="F0yUkIuMt_mIAwkm-PFu-104">
          <mxGeometry relative="1" as="geometry" />
        </mxCell>
        <mxCell id="F0yUkIuMt_mIAwkm-PFu-102" value="Walking Backwards On Low Beam" style="whiteSpace=wrap;html=1;" vertex="1" parent="1">
          <mxGeometry x="800" y="3030" width="120" height="60" as="geometry" />
        </mxCell>
        <mxCell id="F0yUkIuMt_mIAwkm-PFu-103" style="edgeStyle=orthogonalEdgeStyle;rounded=0;orthogonalLoop=1;jettySize=auto;html=1;entryX=0;entryY=0.5;entryDx=0;entryDy=0;" edge="1" parent="1" source="F0yUkIuMt_mIAwkm-PFu-104" target="F0yUkIuMt_mIAwkm-PFu-112">
          <mxGeometry relative="1" as="geometry" />
        </mxCell>
        <mxCell id="F0yUkIuMt_mIAwkm-PFu-104" value="Walking Backwards on Low Beam With Assistance" style="whiteSpace=wrap;html=1;" vertex="1" parent="1">
          <mxGeometry x="1080" y="3030" width="120" height="60" as="geometry" />
        </mxCell>
        <mxCell id="F0yUkIuMt_mIAwkm-PFu-105" style="edgeStyle=orthogonalEdgeStyle;rounded=0;orthogonalLoop=1;jettySize=auto;html=1;entryX=0;entryY=0.5;entryDx=0;entryDy=0;" edge="1" parent="1" source="F0yUkIuMt_mIAwkm-PFu-107" target="F0yUkIuMt_mIAwkm-PFu-111">
          <mxGeometry relative="1" as="geometry" />
        </mxCell>
        <mxCell id="F0yUkIuMt_mIAwkm-PFu-106" style="edgeStyle=orthogonalEdgeStyle;rounded=0;orthogonalLoop=1;jettySize=auto;html=1;entryX=0;entryY=0.5;entryDx=0;entryDy=0;" edge="1" parent="1" source="F0yUkIuMt_mIAwkm-PFu-107" target="F0yUkIuMt_mIAwkm-PFu-115">
          <mxGeometry relative="1" as="geometry" />
        </mxCell>
        <mxCell id="F0yUkIuMt_mIAwkm-PFu-107" value="Standing On High Beam" style="whiteSpace=wrap;html=1;" vertex="1" parent="1">
          <mxGeometry x="800" y="2610" width="120" height="60" as="geometry" />
        </mxCell>
        <mxCell id="F0yUkIuMt_mIAwkm-PFu-108" style="edgeStyle=orthogonalEdgeStyle;rounded=0;orthogonalLoop=1;jettySize=auto;html=1;entryX=0;entryY=0.5;entryDx=0;entryDy=0;" edge="1" parent="1" source="F0yUkIuMt_mIAwkm-PFu-109" target="F0yUkIuMt_mIAwkm-PFu-114">
          <mxGeometry relative="1" as="geometry" />
        </mxCell>
        <mxCell id="F0yUkIuMt_mIAwkm-PFu-109" value="Walking Up On Toes On Low Beam" style="whiteSpace=wrap;html=1;" vertex="1" parent="1">
          <mxGeometry x="1080" y="2800" width="120" height="60" as="geometry" />
        </mxCell>
        <mxCell id="F0yUkIuMt_mIAwkm-PFu-110" value="Walking Forward&amp;nbsp;" style="whiteSpace=wrap;html=1;" vertex="1" parent="1">
          <mxGeometry x="1080" y="2710" width="120" height="60" as="geometry" />
        </mxCell>
        <mxCell id="F0yUkIuMt_mIAwkm-PFu-111" value="Stuck Forward Landing From Low Beam" style="whiteSpace=wrap;html=1;" vertex="1" parent="1">
          <mxGeometry x="1360" y="2610" width="120" height="60" as="geometry" />
        </mxCell>
        <mxCell id="F0yUkIuMt_mIAwkm-PFu-112" value="Walking Backward On Low Beam" style="whiteSpace=wrap;html=1;" vertex="1" parent="1">
          <mxGeometry x="1360" y="3030" width="120" height="60" as="geometry" />
        </mxCell>
        <mxCell id="F0yUkIuMt_mIAwkm-PFu-113" value="Hopping" style="whiteSpace=wrap;html=1;" vertex="1" parent="1">
          <mxGeometry x="1360" y="2960" width="120" height="60" as="geometry" />
        </mxCell>
        <mxCell id="F0yUkIuMt_mIAwkm-PFu-114" value="Walking On Toes" style="whiteSpace=wrap;html=1;" vertex="1" parent="1">
          <mxGeometry x="1360" y="2800" width="120" height="60" as="geometry" />
        </mxCell>
        <mxCell id="F0yUkIuMt_mIAwkm-PFu-115" value="Balancing On 1 Foot On Low Beam" style="whiteSpace=wrap;html=1;" vertex="1" parent="1">
          <mxGeometry x="1360" y="2530" width="120" height="60" as="geometry" />
        </mxCell>
        <mxCell id="F0yUkIuMt_mIAwkm-PFu-116" style="edgeStyle=orthogonalEdgeStyle;rounded=0;orthogonalLoop=1;jettySize=auto;html=1;entryX=0;entryY=0.5;entryDx=0;entryDy=0;" edge="1" parent="1" source="F0yUkIuMt_mIAwkm-PFu-117" target="F0yUkIuMt_mIAwkm-PFu-207">
          <mxGeometry relative="1" as="geometry" />
        </mxCell>
        <mxCell id="F0yUkIuMt_mIAwkm-PFu-117" value="Log Roll" style="whiteSpace=wrap;html=1;" vertex="1" parent="1">
          <mxGeometry x="800" y="3140" width="120" height="60" as="geometry" />
        </mxCell>
        <mxCell id="F0yUkIuMt_mIAwkm-PFu-118" style="edgeStyle=orthogonalEdgeStyle;rounded=0;orthogonalLoop=1;jettySize=auto;html=1;entryX=0;entryY=0.5;entryDx=0;entryDy=0;" edge="1" parent="1" source="F0yUkIuMt_mIAwkm-PFu-120" target="F0yUkIuMt_mIAwkm-PFu-196">
          <mxGeometry relative="1" as="geometry">
            <Array as="points">
              <mxPoint x="1030" y="3400" />
              <mxPoint x="1030" y="3330" />
            </Array>
          </mxGeometry>
        </mxCell>
        <mxCell id="F0yUkIuMt_mIAwkm-PFu-119" style="edgeStyle=orthogonalEdgeStyle;rounded=0;orthogonalLoop=1;jettySize=auto;html=1;entryX=0;entryY=0.5;entryDx=0;entryDy=0;" edge="1" parent="1" source="F0yUkIuMt_mIAwkm-PFu-120" target="F0yUkIuMt_mIAwkm-PFu-198">
          <mxGeometry relative="1" as="geometry">
            <Array as="points">
              <mxPoint x="1030" y="3400" />
              <mxPoint x="1030" y="3260" />
            </Array>
          </mxGeometry>
        </mxCell>
        <mxCell id="F0yUkIuMt_mIAwkm-PFu-120" value="Forward Roll Down Incline to Stand" style="whiteSpace=wrap;html=1;" vertex="1" parent="1">
          <mxGeometry x="800" y="3370" width="120" height="60" as="geometry" />
        </mxCell>
        <mxCell id="F0yUkIuMt_mIAwkm-PFu-121" value="" style="edgeStyle=orthogonalEdgeStyle;rounded=0;orthogonalLoop=1;jettySize=auto;html=1;" edge="1" parent="1" source="F0yUkIuMt_mIAwkm-PFu-122" target="F0yUkIuMt_mIAwkm-PFu-170">
          <mxGeometry relative="1" as="geometry" />
        </mxCell>
        <mxCell id="F0yUkIuMt_mIAwkm-PFu-122" value="Table Position" style="whiteSpace=wrap;html=1;" vertex="1" parent="1">
          <mxGeometry x="800" y="3690" width="120" height="60" as="geometry" />
        </mxCell>
        <mxCell id="F0yUkIuMt_mIAwkm-PFu-123" value="Stuck Landing Position" style="whiteSpace=wrap;html=1;" vertex="1" parent="1">
          <mxGeometry x="240" y="3860" width="120" height="60" as="geometry" />
        </mxCell>
        <mxCell id="F0yUkIuMt_mIAwkm-PFu-124" style="edgeStyle=orthogonalEdgeStyle;rounded=0;orthogonalLoop=1;jettySize=auto;html=1;entryX=0;entryY=0.5;entryDx=0;entryDy=0;" edge="1" parent="1" source="F0yUkIuMt_mIAwkm-PFu-126" target="F0yUkIuMt_mIAwkm-PFu-192">
          <mxGeometry relative="1" as="geometry" />
        </mxCell>
        <mxCell id="F0yUkIuMt_mIAwkm-PFu-125" style="edgeStyle=orthogonalEdgeStyle;rounded=0;orthogonalLoop=1;jettySize=auto;html=1;entryX=0;entryY=0.5;entryDx=0;entryDy=0;" edge="1" parent="1" source="F0yUkIuMt_mIAwkm-PFu-126" target="F0yUkIuMt_mIAwkm-PFu-209">
          <mxGeometry relative="1" as="geometry" />
        </mxCell>
        <mxCell id="F0yUkIuMt_mIAwkm-PFu-126" value="Hopping" style="whiteSpace=wrap;html=1;" vertex="1" parent="1">
          <mxGeometry x="800" y="4090" width="120" height="60" as="geometry" />
        </mxCell>
        <mxCell id="F0yUkIuMt_mIAwkm-PFu-127" value="" style="edgeStyle=orthogonalEdgeStyle;rounded=0;orthogonalLoop=1;jettySize=auto;html=1;" edge="1" parent="1" source="F0yUkIuMt_mIAwkm-PFu-128" target="F0yUkIuMt_mIAwkm-PFu-144">
          <mxGeometry relative="1" as="geometry" />
        </mxCell>
        <mxCell id="F0yUkIuMt_mIAwkm-PFu-128" value="Climbing Up An Incline" style="whiteSpace=wrap;html=1;" vertex="1" parent="1">
          <mxGeometry x="520" y="3930" width="120" height="60" as="geometry" />
        </mxCell>
        <mxCell id="F0yUkIuMt_mIAwkm-PFu-129" style="edgeStyle=orthogonalEdgeStyle;rounded=0;orthogonalLoop=1;jettySize=auto;html=1;entryX=0;entryY=0.5;entryDx=0;entryDy=0;" edge="1" parent="1" source="F0yUkIuMt_mIAwkm-PFu-137" target="F0yUkIuMt_mIAwkm-PFu-158">
          <mxGeometry relative="1" as="geometry" />
        </mxCell>
        <mxCell id="F0yUkIuMt_mIAwkm-PFu-130" style="edgeStyle=orthogonalEdgeStyle;rounded=0;orthogonalLoop=1;jettySize=auto;html=1;entryX=0;entryY=0.5;entryDx=0;entryDy=0;" edge="1" parent="1" source="F0yUkIuMt_mIAwkm-PFu-137" target="F0yUkIuMt_mIAwkm-PFu-152">
          <mxGeometry relative="1" as="geometry" />
        </mxCell>
        <mxCell id="F0yUkIuMt_mIAwkm-PFu-131" style="edgeStyle=orthogonalEdgeStyle;rounded=0;orthogonalLoop=1;jettySize=auto;html=1;entryX=0;entryY=0.5;entryDx=0;entryDy=0;" edge="1" parent="1" source="F0yUkIuMt_mIAwkm-PFu-137" target="F0yUkIuMt_mIAwkm-PFu-166">
          <mxGeometry relative="1" as="geometry" />
        </mxCell>
        <mxCell id="F0yUkIuMt_mIAwkm-PFu-132" style="edgeStyle=orthogonalEdgeStyle;rounded=0;orthogonalLoop=1;jettySize=auto;html=1;entryX=0;entryY=0.5;entryDx=0;entryDy=0;" edge="1" parent="1" source="F0yUkIuMt_mIAwkm-PFu-137" target="F0yUkIuMt_mIAwkm-PFu-123">
          <mxGeometry relative="1" as="geometry" />
        </mxCell>
        <mxCell id="F0yUkIuMt_mIAwkm-PFu-133" style="edgeStyle=orthogonalEdgeStyle;rounded=0;orthogonalLoop=1;jettySize=auto;html=1;entryX=0;entryY=0.5;entryDx=0;entryDy=0;" edge="1" parent="1" source="F0yUkIuMt_mIAwkm-PFu-137" target="F0yUkIuMt_mIAwkm-PFu-204">
          <mxGeometry relative="1" as="geometry" />
        </mxCell>
        <mxCell id="F0yUkIuMt_mIAwkm-PFu-134" style="edgeStyle=orthogonalEdgeStyle;rounded=0;orthogonalLoop=1;jettySize=auto;html=1;entryX=0;entryY=0.5;entryDx=0;entryDy=0;" edge="1" parent="1" source="F0yUkIuMt_mIAwkm-PFu-137" target="F0yUkIuMt_mIAwkm-PFu-148">
          <mxGeometry relative="1" as="geometry" />
        </mxCell>
        <mxCell id="F0yUkIuMt_mIAwkm-PFu-135" style="edgeStyle=orthogonalEdgeStyle;rounded=0;orthogonalLoop=1;jettySize=auto;html=1;entryX=0;entryY=0.5;entryDx=0;entryDy=0;" edge="1" parent="1" source="F0yUkIuMt_mIAwkm-PFu-137" target="F0yUkIuMt_mIAwkm-PFu-151">
          <mxGeometry relative="1" as="geometry" />
        </mxCell>
        <mxCell id="F0yUkIuMt_mIAwkm-PFu-136" style="edgeStyle=orthogonalEdgeStyle;rounded=0;orthogonalLoop=1;jettySize=auto;html=1;entryX=0;entryY=0.5;entryDx=0;entryDy=0;" edge="1" parent="1" source="F0yUkIuMt_mIAwkm-PFu-137" target="F0yUkIuMt_mIAwkm-PFu-177">
          <mxGeometry relative="1" as="geometry" />
        </mxCell>
        <mxCell id="F0yUkIuMt_mIAwkm-PFu-137" value="Floor Exercise" style="whiteSpace=wrap;html=1;" vertex="1" parent="1">
          <mxGeometry x="-40" y="3690" width="120" height="120" as="geometry" />
        </mxCell>
        <mxCell id="F0yUkIuMt_mIAwkm-PFu-138" style="edgeStyle=orthogonalEdgeStyle;rounded=0;orthogonalLoop=1;jettySize=auto;html=1;entryX=0;entryY=0.5;entryDx=0;entryDy=0;" edge="1" parent="1" source="F0yUkIuMt_mIAwkm-PFu-141" target="F0yUkIuMt_mIAwkm-PFu-146">
          <mxGeometry relative="1" as="geometry" />
        </mxCell>
        <mxCell id="F0yUkIuMt_mIAwkm-PFu-139" style="edgeStyle=orthogonalEdgeStyle;rounded=0;orthogonalLoop=1;jettySize=auto;html=1;entryX=0;entryY=0.5;entryDx=0;entryDy=0;" edge="1" parent="1" source="F0yUkIuMt_mIAwkm-PFu-141" target="F0yUkIuMt_mIAwkm-PFu-126">
          <mxGeometry relative="1" as="geometry" />
        </mxCell>
        <mxCell id="F0yUkIuMt_mIAwkm-PFu-140" style="edgeStyle=orthogonalEdgeStyle;rounded=0;orthogonalLoop=1;jettySize=auto;html=1;entryX=0;entryY=0.5;entryDx=0;entryDy=0;" edge="1" parent="1" source="F0yUkIuMt_mIAwkm-PFu-141" target="F0yUkIuMt_mIAwkm-PFu-221">
          <mxGeometry relative="1" as="geometry">
            <Array as="points">
              <mxPoint x="540" y="4000" />
            </Array>
          </mxGeometry>
        </mxCell>
        <mxCell id="F0yUkIuMt_mIAwkm-PFu-141" value="Running" style="whiteSpace=wrap;html=1;" vertex="1" parent="1">
          <mxGeometry x="520" y="4020" width="120" height="60" as="geometry" />
        </mxCell>
        <mxCell id="F0yUkIuMt_mIAwkm-PFu-142" style="edgeStyle=orthogonalEdgeStyle;rounded=0;orthogonalLoop=1;jettySize=auto;html=1;entryX=0;entryY=0.5;entryDx=0;entryDy=0;" edge="1" parent="1" source="F0yUkIuMt_mIAwkm-PFu-144" target="F0yUkIuMt_mIAwkm-PFu-190">
          <mxGeometry relative="1" as="geometry" />
        </mxCell>
        <mxCell id="F0yUkIuMt_mIAwkm-PFu-143" style="edgeStyle=orthogonalEdgeStyle;rounded=0;orthogonalLoop=1;jettySize=auto;html=1;entryX=0;entryY=0.5;entryDx=0;entryDy=0;" edge="1" parent="1" source="F0yUkIuMt_mIAwkm-PFu-144" target="F0yUkIuMt_mIAwkm-PFu-203">
          <mxGeometry relative="1" as="geometry" />
        </mxCell>
        <mxCell id="F0yUkIuMt_mIAwkm-PFu-144" value="Bear Walk" style="whiteSpace=wrap;html=1;" vertex="1" parent="1">
          <mxGeometry x="800" y="3930" width="120" height="60" as="geometry" />
        </mxCell>
        <mxCell id="F0yUkIuMt_mIAwkm-PFu-145" style="edgeStyle=orthogonalEdgeStyle;rounded=0;orthogonalLoop=1;jettySize=auto;html=1;entryX=0;entryY=0.5;entryDx=0;entryDy=0;" edge="1" parent="1" source="F0yUkIuMt_mIAwkm-PFu-146" target="F0yUkIuMt_mIAwkm-PFu-221">
          <mxGeometry relative="1" as="geometry">
            <Array as="points">
              <mxPoint x="1060" y="4050" />
              <mxPoint x="1060" y="4000" />
            </Array>
          </mxGeometry>
        </mxCell>
        <mxCell id="F0yUkIuMt_mIAwkm-PFu-146" value="Galloping" style="whiteSpace=wrap;html=1;" vertex="1" parent="1">
          <mxGeometry x="800" y="4020" width="120" height="60" as="geometry" />
        </mxCell>
        <mxCell id="F0yUkIuMt_mIAwkm-PFu-147" style="edgeStyle=orthogonalEdgeStyle;rounded=0;orthogonalLoop=1;jettySize=auto;html=1;entryX=0;entryY=0.5;entryDx=0;entryDy=0;" edge="1" parent="1" source="F0yUkIuMt_mIAwkm-PFu-148" target="F0yUkIuMt_mIAwkm-PFu-128">
          <mxGeometry relative="1" as="geometry" />
        </mxCell>
        <mxCell id="F0yUkIuMt_mIAwkm-PFu-148" value="Crawling" style="whiteSpace=wrap;html=1;" vertex="1" parent="1">
          <mxGeometry x="240" y="3930" width="120" height="60" as="geometry" />
        </mxCell>
        <mxCell id="F0yUkIuMt_mIAwkm-PFu-149" style="edgeStyle=orthogonalEdgeStyle;rounded=0;orthogonalLoop=1;jettySize=auto;html=1;entryX=0;entryY=0.5;entryDx=0;entryDy=0;" edge="1" parent="1" source="F0yUkIuMt_mIAwkm-PFu-151" target="F0yUkIuMt_mIAwkm-PFu-141">
          <mxGeometry relative="1" as="geometry" />
        </mxCell>
        <mxCell id="F0yUkIuMt_mIAwkm-PFu-150" style="edgeStyle=orthogonalEdgeStyle;rounded=0;orthogonalLoop=1;jettySize=auto;html=1;entryX=0;entryY=0.5;entryDx=0;entryDy=0;" edge="1" parent="1" source="F0yUkIuMt_mIAwkm-PFu-151" target="F0yUkIuMt_mIAwkm-PFu-189">
          <mxGeometry relative="1" as="geometry" />
        </mxCell>
        <mxCell id="F0yUkIuMt_mIAwkm-PFu-151" value="Walking" style="whiteSpace=wrap;html=1;" vertex="1" parent="1">
          <mxGeometry x="240" y="4020" width="120" height="60" as="geometry" />
        </mxCell>
        <mxCell id="F0yUkIuMt_mIAwkm-PFu-152" value="Star" style="whiteSpace=wrap;html=1;" vertex="1" parent="1">
          <mxGeometry x="240" y="3650" width="120" height="60" as="geometry" />
        </mxCell>
        <mxCell id="F0yUkIuMt_mIAwkm-PFu-153" style="edgeStyle=orthogonalEdgeStyle;rounded=0;orthogonalLoop=1;jettySize=auto;html=1;entryX=0;entryY=0.5;entryDx=0;entryDy=0;" edge="1" parent="1" source="F0yUkIuMt_mIAwkm-PFu-154" target="F0yUkIuMt_mIAwkm-PFu-217">
          <mxGeometry relative="1" as="geometry">
            <Array as="points">
              <mxPoint x="1260" y="3800" />
              <mxPoint x="1260" y="3920" />
            </Array>
          </mxGeometry>
        </mxCell>
        <mxCell id="F0yUkIuMt_mIAwkm-PFu-154" value="Standing On 1 Foot (Both Sides)" style="whiteSpace=wrap;html=1;" vertex="1" parent="1">
          <mxGeometry x="1080" y="3770" width="120" height="60" as="geometry" />
        </mxCell>
        <mxCell id="F0yUkIuMt_mIAwkm-PFu-155" style="edgeStyle=orthogonalEdgeStyle;rounded=0;orthogonalLoop=1;jettySize=auto;html=1;" edge="1" parent="1" source="F0yUkIuMt_mIAwkm-PFu-158" target="F0yUkIuMt_mIAwkm-PFu-172">
          <mxGeometry relative="1" as="geometry" />
        </mxCell>
        <mxCell id="F0yUkIuMt_mIAwkm-PFu-156" style="edgeStyle=orthogonalEdgeStyle;rounded=0;orthogonalLoop=1;jettySize=auto;html=1;entryX=0;entryY=0.5;entryDx=0;entryDy=0;" edge="1" parent="1" source="F0yUkIuMt_mIAwkm-PFu-158" target="F0yUkIuMt_mIAwkm-PFu-183">
          <mxGeometry relative="1" as="geometry" />
        </mxCell>
        <mxCell id="F0yUkIuMt_mIAwkm-PFu-157" style="edgeStyle=orthogonalEdgeStyle;rounded=0;orthogonalLoop=1;jettySize=auto;html=1;entryX=0;entryY=0.5;entryDx=0;entryDy=0;" edge="1" parent="1" source="F0yUkIuMt_mIAwkm-PFu-158" target="F0yUkIuMt_mIAwkm-PFu-177">
          <mxGeometry relative="1" as="geometry">
            <Array as="points">
              <mxPoint x="300" y="3250" />
            </Array>
          </mxGeometry>
        </mxCell>
        <mxCell id="F0yUkIuMt_mIAwkm-PFu-158" value="Straight" style="whiteSpace=wrap;html=1;" vertex="1" parent="1">
          <mxGeometry x="240" y="3580" width="120" height="60" as="geometry" />
        </mxCell>
        <mxCell id="F0yUkIuMt_mIAwkm-PFu-159" style="edgeStyle=orthogonalEdgeStyle;rounded=0;orthogonalLoop=1;jettySize=auto;html=1;entryX=0;entryY=0.5;entryDx=0;entryDy=0;" edge="1" parent="1" source="F0yUkIuMt_mIAwkm-PFu-160" target="F0yUkIuMt_mIAwkm-PFu-202">
          <mxGeometry relative="1" as="geometry" />
        </mxCell>
        <mxCell id="F0yUkIuMt_mIAwkm-PFu-160" value="Straddle Sit" style="whiteSpace=wrap;html=1;" vertex="1" parent="1">
          <mxGeometry x="520" y="3510" width="120" height="60" as="geometry" />
        </mxCell>
        <mxCell id="F0yUkIuMt_mIAwkm-PFu-161" value="" style="edgeStyle=orthogonalEdgeStyle;rounded=0;orthogonalLoop=1;jettySize=auto;html=1;" edge="1" parent="1" source="F0yUkIuMt_mIAwkm-PFu-164" target="F0yUkIuMt_mIAwkm-PFu-160">
          <mxGeometry relative="1" as="geometry" />
        </mxCell>
        <mxCell id="F0yUkIuMt_mIAwkm-PFu-162" style="edgeStyle=orthogonalEdgeStyle;rounded=0;orthogonalLoop=1;jettySize=auto;html=1;" edge="1" parent="1" source="F0yUkIuMt_mIAwkm-PFu-164" target="F0yUkIuMt_mIAwkm-PFu-200">
          <mxGeometry relative="1" as="geometry">
            <Array as="points">
              <mxPoint x="450" y="3540" />
              <mxPoint x="450" y="3590" />
              <mxPoint x="990" y="3590" />
              <mxPoint x="990" y="3480" />
            </Array>
          </mxGeometry>
        </mxCell>
        <mxCell id="F0yUkIuMt_mIAwkm-PFu-163" style="edgeStyle=orthogonalEdgeStyle;rounded=0;orthogonalLoop=1;jettySize=auto;html=1;entryX=0;entryY=0.5;entryDx=0;entryDy=0;" edge="1" parent="1" source="F0yUkIuMt_mIAwkm-PFu-164" target="F0yUkIuMt_mIAwkm-PFu-174">
          <mxGeometry relative="1" as="geometry">
            <Array as="points">
              <mxPoint x="450" y="3540" />
              <mxPoint x="450" y="3390" />
            </Array>
          </mxGeometry>
        </mxCell>
        <mxCell id="F0yUkIuMt_mIAwkm-PFu-164" value="Tuck Sit" style="whiteSpace=wrap;html=1;" vertex="1" parent="1">
          <mxGeometry x="240" y="3510" width="120" height="60" as="geometry" />
        </mxCell>
        <mxCell id="F0yUkIuMt_mIAwkm-PFu-165" style="edgeStyle=orthogonalEdgeStyle;rounded=0;orthogonalLoop=1;jettySize=auto;html=1;entryX=0;entryY=0.5;entryDx=0;entryDy=0;" edge="1" parent="1" source="F0yUkIuMt_mIAwkm-PFu-166" target="F0yUkIuMt_mIAwkm-PFu-122">
          <mxGeometry relative="1" as="geometry" />
        </mxCell>
        <mxCell id="F0yUkIuMt_mIAwkm-PFu-166" value="Pike Sit" style="whiteSpace=wrap;html=1;" vertex="1" parent="1">
          <mxGeometry x="240" y="3790" width="120" height="60" as="geometry" />
        </mxCell>
        <mxCell id="F0yUkIuMt_mIAwkm-PFu-167" style="edgeStyle=orthogonalEdgeStyle;rounded=0;orthogonalLoop=1;jettySize=auto;html=1;entryX=0;entryY=0.5;entryDx=0;entryDy=0;" edge="1" parent="1" source="F0yUkIuMt_mIAwkm-PFu-169" target="F0yUkIuMt_mIAwkm-PFu-215">
          <mxGeometry relative="1" as="geometry" />
        </mxCell>
        <mxCell id="F0yUkIuMt_mIAwkm-PFu-168" style="edgeStyle=orthogonalEdgeStyle;rounded=0;orthogonalLoop=1;jettySize=auto;html=1;entryX=0;entryY=0.5;entryDx=0;entryDy=0;" edge="1" parent="1" source="F0yUkIuMt_mIAwkm-PFu-169" target="F0yUkIuMt_mIAwkm-PFu-414">
          <mxGeometry relative="1" as="geometry">
            <Array as="points">
              <mxPoint x="1320" y="3640" />
              <mxPoint x="1320" y="3840" />
              <mxPoint x="1590" y="3840" />
              <mxPoint x="1590" y="3880" />
            </Array>
          </mxGeometry>
        </mxCell>
        <mxCell id="F0yUkIuMt_mIAwkm-PFu-169" value="Front Support" style="whiteSpace=wrap;html=1;" vertex="1" parent="1">
          <mxGeometry x="1080" y="3610" width="120" height="60" as="geometry" />
        </mxCell>
        <mxCell id="F0yUkIuMt_mIAwkm-PFu-170" value="Rear Support" style="whiteSpace=wrap;html=1;" vertex="1" parent="1">
          <mxGeometry x="1080" y="3690" width="120" height="60" as="geometry" />
        </mxCell>
        <mxCell id="F0yUkIuMt_mIAwkm-PFu-171" value="" style="edgeStyle=orthogonalEdgeStyle;rounded=0;orthogonalLoop=1;jettySize=auto;html=1;" edge="1" parent="1" source="F0yUkIuMt_mIAwkm-PFu-172" target="F0yUkIuMt_mIAwkm-PFu-117">
          <mxGeometry relative="1" as="geometry" />
        </mxCell>
        <mxCell id="F0yUkIuMt_mIAwkm-PFu-172" value="Log Roll Down Incline" style="whiteSpace=wrap;html=1;" vertex="1" parent="1">
          <mxGeometry x="240" y="3140" width="120" height="60" as="geometry" />
        </mxCell>
        <mxCell id="F0yUkIuMt_mIAwkm-PFu-173" value="" style="edgeStyle=orthogonalEdgeStyle;rounded=0;orthogonalLoop=1;jettySize=auto;html=1;" edge="1" parent="1" source="F0yUkIuMt_mIAwkm-PFu-174" target="F0yUkIuMt_mIAwkm-PFu-194">
          <mxGeometry relative="1" as="geometry" />
        </mxCell>
        <mxCell id="F0yUkIuMt_mIAwkm-PFu-174" value="Rock in Tuck Position On Floor" style="whiteSpace=wrap;html=1;" vertex="1" parent="1">
          <mxGeometry x="520" y="3360" width="120" height="60" as="geometry" />
        </mxCell>
        <mxCell id="F0yUkIuMt_mIAwkm-PFu-175" value="" style="edgeStyle=orthogonalEdgeStyle;rounded=0;orthogonalLoop=1;jettySize=auto;html=1;" edge="1" parent="1" source="F0yUkIuMt_mIAwkm-PFu-177" target="F0yUkIuMt_mIAwkm-PFu-179">
          <mxGeometry relative="1" as="geometry" />
        </mxCell>
        <mxCell id="F0yUkIuMt_mIAwkm-PFu-176" value="" style="edgeStyle=orthogonalEdgeStyle;rounded=0;orthogonalLoop=1;jettySize=auto;html=1;" edge="1" parent="1" source="F0yUkIuMt_mIAwkm-PFu-177" target="F0yUkIuMt_mIAwkm-PFu-185">
          <mxGeometry relative="1" as="geometry" />
        </mxCell>
        <mxCell id="F0yUkIuMt_mIAwkm-PFu-177" value="Straight Jump" style="whiteSpace=wrap;html=1;" vertex="1" parent="1">
          <mxGeometry x="240" y="3220" width="120" height="60" as="geometry" />
        </mxCell>
        <mxCell id="F0yUkIuMt_mIAwkm-PFu-178" value="" style="edgeStyle=orthogonalEdgeStyle;rounded=0;orthogonalLoop=1;jettySize=auto;html=1;" edge="1" parent="1" source="F0yUkIuMt_mIAwkm-PFu-179" target="F0yUkIuMt_mIAwkm-PFu-180">
          <mxGeometry relative="1" as="geometry" />
        </mxCell>
        <mxCell id="F0yUkIuMt_mIAwkm-PFu-179" value="Tuck Jump" style="whiteSpace=wrap;html=1;" vertex="1" parent="1">
          <mxGeometry x="520" y="3290" width="120" height="60" as="geometry" />
        </mxCell>
        <mxCell id="F0yUkIuMt_mIAwkm-PFu-180" value="Star Jump" style="whiteSpace=wrap;html=1;" vertex="1" parent="1">
          <mxGeometry x="800" y="3290" width="120" height="60" as="geometry" />
        </mxCell>
        <mxCell id="F0yUkIuMt_mIAwkm-PFu-181" value="" style="edgeStyle=orthogonalEdgeStyle;rounded=0;orthogonalLoop=1;jettySize=auto;html=1;" edge="1" parent="1" source="F0yUkIuMt_mIAwkm-PFu-183" target="F0yUkIuMt_mIAwkm-PFu-169">
          <mxGeometry relative="1" as="geometry" />
        </mxCell>
        <mxCell id="F0yUkIuMt_mIAwkm-PFu-182" style="edgeStyle=orthogonalEdgeStyle;rounded=0;orthogonalLoop=1;jettySize=auto;html=1;" edge="1" parent="1" source="F0yUkIuMt_mIAwkm-PFu-183" target="F0yUkIuMt_mIAwkm-PFu-205">
          <mxGeometry relative="1" as="geometry">
            <Array as="points">
              <mxPoint x="1040" y="3640" />
              <mxPoint x="1040" y="3560" />
            </Array>
          </mxGeometry>
        </mxCell>
        <mxCell id="F0yUkIuMt_mIAwkm-PFu-183" value="Front Support Using Knees" style="whiteSpace=wrap;html=1;" vertex="1" parent="1">
          <mxGeometry x="800" y="3610" width="120" height="60" as="geometry" />
        </mxCell>
        <mxCell id="F0yUkIuMt_mIAwkm-PFu-184" style="edgeStyle=orthogonalEdgeStyle;rounded=0;orthogonalLoop=1;jettySize=auto;html=1;entryX=0;entryY=0.5;entryDx=0;entryDy=0;" edge="1" parent="1" source="F0yUkIuMt_mIAwkm-PFu-185" target="F0yUkIuMt_mIAwkm-PFu-207">
          <mxGeometry relative="1" as="geometry" />
        </mxCell>
        <mxCell id="F0yUkIuMt_mIAwkm-PFu-185" value="Jump to Stuck Landing Position" style="whiteSpace=wrap;html=1;" vertex="1" parent="1">
          <mxGeometry x="800" y="3220" width="120" height="60" as="geometry" />
        </mxCell>
        <mxCell id="F0yUkIuMt_mIAwkm-PFu-186" style="edgeStyle=orthogonalEdgeStyle;rounded=0;orthogonalLoop=1;jettySize=auto;html=1;entryX=0;entryY=0.5;entryDx=0;entryDy=0;" edge="1" parent="1" source="F0yUkIuMt_mIAwkm-PFu-187" target="F0yUkIuMt_mIAwkm-PFu-192">
          <mxGeometry relative="1" as="geometry" />
        </mxCell>
        <mxCell id="F0yUkIuMt_mIAwkm-PFu-187" value="Walking Backwards" style="whiteSpace=wrap;html=1;" vertex="1" parent="1">
          <mxGeometry x="800" y="4160" width="120" height="60" as="geometry" />
        </mxCell>
        <mxCell id="F0yUkIuMt_mIAwkm-PFu-188" style="edgeStyle=orthogonalEdgeStyle;rounded=0;orthogonalLoop=1;jettySize=auto;html=1;entryX=0;entryY=0.5;entryDx=0;entryDy=0;" edge="1" parent="1" source="F0yUkIuMt_mIAwkm-PFu-189" target="F0yUkIuMt_mIAwkm-PFu-187">
          <mxGeometry relative="1" as="geometry" />
        </mxCell>
        <mxCell id="F0yUkIuMt_mIAwkm-PFu-189" value="Walking Sideways" style="whiteSpace=wrap;html=1;" vertex="1" parent="1">
          <mxGeometry x="520" y="4160" width="120" height="60" as="geometry" />
        </mxCell>
        <mxCell id="F0yUkIuMt_mIAwkm-PFu-190" value="Crab Walk" style="whiteSpace=wrap;html=1;" vertex="1" parent="1">
          <mxGeometry x="1080" y="3930" width="120" height="60" as="geometry" />
        </mxCell>
        <mxCell id="F0yUkIuMt_mIAwkm-PFu-191" style="edgeStyle=orthogonalEdgeStyle;rounded=0;orthogonalLoop=1;jettySize=auto;html=1;entryX=0;entryY=0.5;entryDx=0;entryDy=0;" edge="1" parent="1" source="F0yUkIuMt_mIAwkm-PFu-192" target="F0yUkIuMt_mIAwkm-PFu-222">
          <mxGeometry relative="1" as="geometry" />
        </mxCell>
        <mxCell id="F0yUkIuMt_mIAwkm-PFu-192" value="Hopping Backwards" style="whiteSpace=wrap;html=1;" vertex="1" parent="1">
          <mxGeometry x="1080" y="4120" width="120" height="60" as="geometry" />
        </mxCell>
        <mxCell id="F0yUkIuMt_mIAwkm-PFu-193" style="edgeStyle=orthogonalEdgeStyle;rounded=0;orthogonalLoop=1;jettySize=auto;html=1;entryX=0;entryY=0.5;entryDx=0;entryDy=0;" edge="1" parent="1" source="F0yUkIuMt_mIAwkm-PFu-194" target="F0yUkIuMt_mIAwkm-PFu-120">
          <mxGeometry relative="1" as="geometry" />
        </mxCell>
        <mxCell id="F0yUkIuMt_mIAwkm-PFu-194" value="Forward Roll Down Incline to Sit" style="whiteSpace=wrap;html=1;" vertex="1" parent="1">
          <mxGeometry x="520" y="3430" width="120" height="60" as="geometry" />
        </mxCell>
        <mxCell id="F0yUkIuMt_mIAwkm-PFu-195" style="edgeStyle=orthogonalEdgeStyle;rounded=0;orthogonalLoop=1;jettySize=auto;html=1;entryX=0;entryY=0.5;entryDx=0;entryDy=0;" edge="1" parent="1" source="F0yUkIuMt_mIAwkm-PFu-196" target="F0yUkIuMt_mIAwkm-PFu-225">
          <mxGeometry relative="1" as="geometry" />
        </mxCell>
        <mxCell id="F0yUkIuMt_mIAwkm-PFu-196" value="Tucked Forward Roll On Floor To Sit" style="whiteSpace=wrap;html=1;" vertex="1" parent="1">
          <mxGeometry x="1080" y="3300" width="120" height="60" as="geometry" />
        </mxCell>
        <mxCell id="F0yUkIuMt_mIAwkm-PFu-197" style="edgeStyle=orthogonalEdgeStyle;rounded=0;orthogonalLoop=1;jettySize=auto;html=1;entryX=0;entryY=0.5;entryDx=0;entryDy=0;" edge="1" parent="1" source="F0yUkIuMt_mIAwkm-PFu-198" target="F0yUkIuMt_mIAwkm-PFu-225">
          <mxGeometry relative="1" as="geometry" />
        </mxCell>
        <mxCell id="F0yUkIuMt_mIAwkm-PFu-198" value="Tucked Rock On Floor To Stand" style="whiteSpace=wrap;html=1;" vertex="1" parent="1">
          <mxGeometry x="1080" y="3230" width="120" height="60" as="geometry" />
        </mxCell>
        <mxCell id="F0yUkIuMt_mIAwkm-PFu-199" style="edgeStyle=orthogonalEdgeStyle;rounded=0;orthogonalLoop=1;jettySize=auto;html=1;entryX=0;entryY=0.5;entryDx=0;entryDy=0;" edge="1" parent="1" source="F0yUkIuMt_mIAwkm-PFu-200" target="F0yUkIuMt_mIAwkm-PFu-219">
          <mxGeometry relative="1" as="geometry">
            <Array as="points">
              <mxPoint x="1340" y="3480" />
              <mxPoint x="1340" y="3410" />
            </Array>
          </mxGeometry>
        </mxCell>
        <mxCell id="F0yUkIuMt_mIAwkm-PFu-200" value="Tucked Shoulder Stand" style="whiteSpace=wrap;html=1;" vertex="1" parent="1">
          <mxGeometry x="1080" y="3450" width="120" height="60" as="geometry" />
        </mxCell>
        <mxCell id="F0yUkIuMt_mIAwkm-PFu-201" style="edgeStyle=orthogonalEdgeStyle;rounded=0;orthogonalLoop=1;jettySize=auto;html=1;entryX=0;entryY=0.5;entryDx=0;entryDy=0;" edge="1" parent="1" source="F0yUkIuMt_mIAwkm-PFu-202" target="F0yUkIuMt_mIAwkm-PFu-212">
          <mxGeometry relative="1" as="geometry">
            <mxPoint x="1310" y="3420" as="targetPoint" />
            <Array as="points">
              <mxPoint x="850" y="3440" />
              <mxPoint x="1310" y="3440" />
              <mxPoint x="1310" y="3330" />
            </Array>
          </mxGeometry>
        </mxCell>
        <mxCell id="F0yUkIuMt_mIAwkm-PFu-202" value="Forward Straddle Roll Down Incline to Sit" style="whiteSpace=wrap;html=1;" vertex="1" parent="1">
          <mxGeometry x="800" y="3510" width="120" height="60" as="geometry" />
        </mxCell>
        <mxCell id="F0yUkIuMt_mIAwkm-PFu-203" value="Bear Walk With Straight Knees" style="whiteSpace=wrap;html=1;" vertex="1" parent="1">
          <mxGeometry x="1080" y="3850" width="120" height="60" as="geometry" />
        </mxCell>
        <mxCell id="F0yUkIuMt_mIAwkm-PFu-204" value="Pointed and Flexed Feet" style="whiteSpace=wrap;html=1;" vertex="1" parent="1">
          <mxGeometry x="240" y="3720" width="120" height="60" as="geometry" />
        </mxCell>
        <mxCell id="F0yUkIuMt_mIAwkm-PFu-205" value="Knee Scale" style="whiteSpace=wrap;html=1;" vertex="1" parent="1">
          <mxGeometry x="1080" y="3530" width="120" height="60" as="geometry" />
        </mxCell>
        <mxCell id="F0yUkIuMt_mIAwkm-PFu-206" style="edgeStyle=orthogonalEdgeStyle;rounded=0;orthogonalLoop=1;jettySize=auto;html=1;entryX=0;entryY=0.5;entryDx=0;entryDy=0;" edge="1" parent="1" source="F0yUkIuMt_mIAwkm-PFu-207" target="F0yUkIuMt_mIAwkm-PFu-210">
          <mxGeometry relative="1" as="geometry" />
        </mxCell>
        <mxCell id="F0yUkIuMt_mIAwkm-PFu-207" value="Jump 1/2 Turn" style="whiteSpace=wrap;html=1;" vertex="1" parent="1">
          <mxGeometry x="1080" y="3140" width="120" height="60" as="geometry" />
        </mxCell>
        <mxCell id="F0yUkIuMt_mIAwkm-PFu-208" style="edgeStyle=orthogonalEdgeStyle;rounded=0;orthogonalLoop=1;jettySize=auto;html=1;entryX=0;entryY=0.5;entryDx=0;entryDy=0;" edge="1" parent="1" source="F0yUkIuMt_mIAwkm-PFu-209" target="F0yUkIuMt_mIAwkm-PFu-223">
          <mxGeometry relative="1" as="geometry" />
        </mxCell>
        <mxCell id="F0yUkIuMt_mIAwkm-PFu-209" value="Hopping On 1 Foot" style="whiteSpace=wrap;html=1;" vertex="1" parent="1">
          <mxGeometry x="1080" y="4050" width="120" height="60" as="geometry" />
        </mxCell>
        <mxCell id="F0yUkIuMt_mIAwkm-PFu-210" value="Jump 1/1 Turn" style="whiteSpace=wrap;html=1;" vertex="1" parent="1">
          <mxGeometry x="1360" y="3140" width="120" height="60" as="geometry" />
        </mxCell>
        <mxCell id="F0yUkIuMt_mIAwkm-PFu-211" style="edgeStyle=orthogonalEdgeStyle;rounded=0;orthogonalLoop=1;jettySize=auto;html=1;" edge="1" parent="1" source="F0yUkIuMt_mIAwkm-PFu-212" target="F0yUkIuMt_mIAwkm-PFu-379">
          <mxGeometry relative="1" as="geometry" />
        </mxCell>
        <mxCell id="F0yUkIuMt_mIAwkm-PFu-212" value="Straddle Roll Down Incline to Stand" style="whiteSpace=wrap;html=1;" vertex="1" parent="1">
          <mxGeometry x="1360" y="3300" width="120" height="60" as="geometry" />
        </mxCell>
        <mxCell id="F0yUkIuMt_mIAwkm-PFu-213" style="edgeStyle=orthogonalEdgeStyle;rounded=0;orthogonalLoop=1;jettySize=auto;html=1;entryX=0;entryY=0.5;entryDx=0;entryDy=0;" edge="1" parent="1" source="F0yUkIuMt_mIAwkm-PFu-215" target="F0yUkIuMt_mIAwkm-PFu-373">
          <mxGeometry relative="1" as="geometry" />
        </mxCell>
        <mxCell id="F0yUkIuMt_mIAwkm-PFu-214" style="edgeStyle=orthogonalEdgeStyle;rounded=0;orthogonalLoop=1;jettySize=auto;html=1;entryX=0;entryY=0.5;entryDx=0;entryDy=0;" edge="1" parent="1" source="F0yUkIuMt_mIAwkm-PFu-215" target="F0yUkIuMt_mIAwkm-PFu-377">
          <mxGeometry relative="1" as="geometry" />
        </mxCell>
        <mxCell id="F0yUkIuMt_mIAwkm-PFu-215" value="Mini Donkey Kick" style="whiteSpace=wrap;html=1;" vertex="1" parent="1">
          <mxGeometry x="1360" y="3610" width="120" height="60" as="geometry" />
        </mxCell>
        <mxCell id="F0yUkIuMt_mIAwkm-PFu-216" style="edgeStyle=orthogonalEdgeStyle;rounded=0;orthogonalLoop=1;jettySize=auto;html=1;entryX=0;entryY=0.5;entryDx=0;entryDy=0;" edge="1" parent="1" source="F0yUkIuMt_mIAwkm-PFu-217" target="F0yUkIuMt_mIAwkm-PFu-428">
          <mxGeometry relative="1" as="geometry" />
        </mxCell>
        <mxCell id="F0yUkIuMt_mIAwkm-PFu-217" value="Stork Stand" style="whiteSpace=wrap;html=1;" vertex="1" parent="1">
          <mxGeometry x="1360" y="3890" width="120" height="60" as="geometry" />
        </mxCell>
        <mxCell id="F0yUkIuMt_mIAwkm-PFu-218" style="edgeStyle=orthogonalEdgeStyle;rounded=0;orthogonalLoop=1;jettySize=auto;html=1;" edge="1" parent="1" source="F0yUkIuMt_mIAwkm-PFu-219" target="F0yUkIuMt_mIAwkm-PFu-410">
          <mxGeometry relative="1" as="geometry" />
        </mxCell>
        <mxCell id="F0yUkIuMt_mIAwkm-PFu-219" value="Piked Shoulder Stand" style="whiteSpace=wrap;html=1;" vertex="1" parent="1">
          <mxGeometry x="1360" y="3380" width="120" height="60" as="geometry" />
        </mxCell>
        <mxCell id="F0yUkIuMt_mIAwkm-PFu-220" style="edgeStyle=orthogonalEdgeStyle;rounded=0;orthogonalLoop=1;jettySize=auto;html=1;entryX=0;entryY=0.5;entryDx=0;entryDy=0;" edge="1" parent="1" source="F0yUkIuMt_mIAwkm-PFu-221" target="F0yUkIuMt_mIAwkm-PFu-381">
          <mxGeometry relative="1" as="geometry" />
        </mxCell>
        <mxCell id="F0yUkIuMt_mIAwkm-PFu-221" value="Dynamic Run" style="whiteSpace=wrap;html=1;" vertex="1" parent="1">
          <mxGeometry x="1360" y="3970" width="120" height="60" as="geometry" />
        </mxCell>
        <mxCell id="F0yUkIuMt_mIAwkm-PFu-222" value="Springing From Toes" style="whiteSpace=wrap;html=1;" vertex="1" parent="1">
          <mxGeometry x="1360" y="4120" width="120" height="60" as="geometry" />
        </mxCell>
        <mxCell id="F0yUkIuMt_mIAwkm-PFu-223" value="Hopping Backwards On One Foot" style="whiteSpace=wrap;html=1;" vertex="1" parent="1">
          <mxGeometry x="1360" y="4050" width="120" height="60" as="geometry" />
        </mxCell>
        <mxCell id="F0yUkIuMt_mIAwkm-PFu-224" style="edgeStyle=orthogonalEdgeStyle;rounded=0;orthogonalLoop=1;jettySize=auto;html=1;entryX=0;entryY=0.5;entryDx=0;entryDy=0;" edge="1" parent="1" source="F0yUkIuMt_mIAwkm-PFu-225" target="F0yUkIuMt_mIAwkm-PFu-419">
          <mxGeometry relative="1" as="geometry" />
        </mxCell>
        <mxCell id="F0yUkIuMt_mIAwkm-PFu-225" value="Tucked Forward Roll to Stand" style="whiteSpace=wrap;html=1;" vertex="1" parent="1">
          <mxGeometry x="1360" y="3230" width="120" height="60" as="geometry" />
        </mxCell>
        <mxCell id="F0yUkIuMt_mIAwkm-PFu-226" style="edgeStyle=orthogonalEdgeStyle;rounded=0;orthogonalLoop=1;jettySize=auto;html=1;entryX=0;entryY=0.5;entryDx=0;entryDy=0;" edge="1" parent="1" source="F0yUkIuMt_mIAwkm-PFu-227" target="F0yUkIuMt_mIAwkm-PFu-229">
          <mxGeometry relative="1" as="geometry" />
        </mxCell>
        <mxCell id="F0yUkIuMt_mIAwkm-PFu-227" value="Pommel Horse" style="whiteSpace=wrap;html=1;" vertex="1" parent="1">
          <mxGeometry x="-40" y="4310" width="120" height="120" as="geometry" />
        </mxCell>
        <mxCell id="F0yUkIuMt_mIAwkm-PFu-228" value="" style="edgeStyle=orthogonalEdgeStyle;rounded=0;orthogonalLoop=1;jettySize=auto;html=1;" edge="1" parent="1" source="F0yUkIuMt_mIAwkm-PFu-229" target="F0yUkIuMt_mIAwkm-PFu-232">
          <mxGeometry relative="1" as="geometry" />
        </mxCell>
        <mxCell id="F0yUkIuMt_mIAwkm-PFu-229" value="Front Support, Hands On Trainer" style="whiteSpace=wrap;html=1;" vertex="1" parent="1">
          <mxGeometry x="240" y="4340" width="120" height="60" as="geometry" />
        </mxCell>
        <mxCell id="F0yUkIuMt_mIAwkm-PFu-230" value="" style="edgeStyle=orthogonalEdgeStyle;rounded=0;orthogonalLoop=1;jettySize=auto;html=1;" edge="1" parent="1" source="F0yUkIuMt_mIAwkm-PFu-232" target="F0yUkIuMt_mIAwkm-PFu-236">
          <mxGeometry relative="1" as="geometry" />
        </mxCell>
        <mxCell id="F0yUkIuMt_mIAwkm-PFu-231" style="edgeStyle=orthogonalEdgeStyle;rounded=0;orthogonalLoop=1;jettySize=auto;html=1;entryX=0;entryY=0.5;entryDx=0;entryDy=0;" edge="1" parent="1" source="F0yUkIuMt_mIAwkm-PFu-232" target="F0yUkIuMt_mIAwkm-PFu-244">
          <mxGeometry relative="1" as="geometry">
            <Array as="points">
              <mxPoint x="580" y="4550" />
            </Array>
          </mxGeometry>
        </mxCell>
        <mxCell id="F0yUkIuMt_mIAwkm-PFu-232" value="Rear Support, Hands On Trainer" style="whiteSpace=wrap;html=1;" vertex="1" parent="1">
          <mxGeometry x="520" y="4340" width="120" height="60" as="geometry" />
        </mxCell>
        <mxCell id="F0yUkIuMt_mIAwkm-PFu-233" style="edgeStyle=orthogonalEdgeStyle;rounded=0;orthogonalLoop=1;jettySize=auto;html=1;entryX=0;entryY=0.5;entryDx=0;entryDy=0;" edge="1" parent="1" source="F0yUkIuMt_mIAwkm-PFu-236" target="F0yUkIuMt_mIAwkm-PFu-238">
          <mxGeometry relative="1" as="geometry" />
        </mxCell>
        <mxCell id="F0yUkIuMt_mIAwkm-PFu-234" style="edgeStyle=orthogonalEdgeStyle;rounded=0;orthogonalLoop=1;jettySize=auto;html=1;entryX=0;entryY=0.5;entryDx=0;entryDy=0;" edge="1" parent="1" source="F0yUkIuMt_mIAwkm-PFu-236" target="F0yUkIuMt_mIAwkm-PFu-240">
          <mxGeometry relative="1" as="geometry" />
        </mxCell>
        <mxCell id="F0yUkIuMt_mIAwkm-PFu-235" style="edgeStyle=orthogonalEdgeStyle;rounded=0;orthogonalLoop=1;jettySize=auto;html=1;" edge="1" parent="1" source="F0yUkIuMt_mIAwkm-PFu-236" target="F0yUkIuMt_mIAwkm-PFu-246">
          <mxGeometry relative="1" as="geometry" />
        </mxCell>
        <mxCell id="F0yUkIuMt_mIAwkm-PFu-236" value="Side Support, Hands On Trainer (Both Sides)" style="whiteSpace=wrap;html=1;" vertex="1" parent="1">
          <mxGeometry x="800" y="4340" width="120" height="60" as="geometry" />
        </mxCell>
        <mxCell id="F0yUkIuMt_mIAwkm-PFu-237" style="edgeStyle=orthogonalEdgeStyle;rounded=0;orthogonalLoop=1;jettySize=auto;html=1;" edge="1" parent="1" source="F0yUkIuMt_mIAwkm-PFu-238" target="F0yUkIuMt_mIAwkm-PFu-522">
          <mxGeometry relative="1" as="geometry" />
        </mxCell>
        <mxCell id="F0yUkIuMt_mIAwkm-PFu-238" value="Font Support, Turn To Rear Support" style="whiteSpace=wrap;html=1;" vertex="1" parent="1">
          <mxGeometry x="1080" y="4250" width="120" height="60" as="geometry" />
        </mxCell>
        <mxCell id="F0yUkIuMt_mIAwkm-PFu-239" value="" style="edgeStyle=orthogonalEdgeStyle;rounded=0;orthogonalLoop=1;jettySize=auto;html=1;" edge="1" parent="1" source="F0yUkIuMt_mIAwkm-PFu-240" target="F0yUkIuMt_mIAwkm-PFu-242">
          <mxGeometry relative="1" as="geometry" />
        </mxCell>
        <mxCell id="F0yUkIuMt_mIAwkm-PFu-240" value="Front Support, Side Steps On Trainer" style="whiteSpace=wrap;html=1;" vertex="1" parent="1">
          <mxGeometry x="1080" y="4440" width="120" height="60" as="geometry" />
        </mxCell>
        <mxCell id="F0yUkIuMt_mIAwkm-PFu-241" style="edgeStyle=orthogonalEdgeStyle;rounded=0;orthogonalLoop=1;jettySize=auto;html=1;entryX=0;entryY=0.5;entryDx=0;entryDy=0;" edge="1" parent="1" source="F0yUkIuMt_mIAwkm-PFu-242" target="F0yUkIuMt_mIAwkm-PFu-526">
          <mxGeometry relative="1" as="geometry" />
        </mxCell>
        <mxCell id="F0yUkIuMt_mIAwkm-PFu-242" value="Front Support Jump To Side Support on Trainer (1/4 Cricle)" style="whiteSpace=wrap;html=1;" vertex="1" parent="1">
          <mxGeometry x="1360" y="4440" width="120" height="60" as="geometry" />
        </mxCell>
        <mxCell id="F0yUkIuMt_mIAwkm-PFu-243" style="edgeStyle=orthogonalEdgeStyle;rounded=0;orthogonalLoop=1;jettySize=auto;html=1;entryX=0;entryY=0.5;entryDx=0;entryDy=0;" edge="1" parent="1" source="F0yUkIuMt_mIAwkm-PFu-244" target="F0yUkIuMt_mIAwkm-PFu-520">
          <mxGeometry relative="1" as="geometry" />
        </mxCell>
        <mxCell id="F0yUkIuMt_mIAwkm-PFu-244" value="Cross Support On Handles" style="whiteSpace=wrap;html=1;" vertex="1" parent="1">
          <mxGeometry x="1360" y="4520" width="120" height="60" as="geometry" />
        </mxCell>
        <mxCell id="F0yUkIuMt_mIAwkm-PFu-245" style="edgeStyle=orthogonalEdgeStyle;rounded=0;orthogonalLoop=1;jettySize=auto;html=1;" edge="1" parent="1" source="F0yUkIuMt_mIAwkm-PFu-246" target="F0yUkIuMt_mIAwkm-PFu-518">
          <mxGeometry relative="1" as="geometry" />
        </mxCell>
        <mxCell id="F0yUkIuMt_mIAwkm-PFu-246" value="Wheelbarrow Walk Forwards" style="whiteSpace=wrap;html=1;" vertex="1" parent="1">
          <mxGeometry x="1360" y="4340" width="120" height="60" as="geometry" />
        </mxCell>
        <mxCell id="F0yUkIuMt_mIAwkm-PFu-247" value="" style="edgeStyle=orthogonalEdgeStyle;rounded=0;orthogonalLoop=1;jettySize=auto;html=1;" edge="1" parent="1" source="F0yUkIuMt_mIAwkm-PFu-248" target="F0yUkIuMt_mIAwkm-PFu-254">
          <mxGeometry relative="1" as="geometry" />
        </mxCell>
        <mxCell id="F0yUkIuMt_mIAwkm-PFu-248" value="Still Rings" style="whiteSpace=wrap;html=1;" vertex="1" parent="1">
          <mxGeometry x="-40" y="4750" width="120" height="120" as="geometry" />
        </mxCell>
        <mxCell id="F0yUkIuMt_mIAwkm-PFu-249" style="edgeStyle=orthogonalEdgeStyle;rounded=0;orthogonalLoop=1;jettySize=auto;html=1;entryX=0;entryY=0.5;entryDx=0;entryDy=0;" edge="1" parent="1" source="F0yUkIuMt_mIAwkm-PFu-254" target="F0yUkIuMt_mIAwkm-PFu-256">
          <mxGeometry relative="1" as="geometry" />
        </mxCell>
        <mxCell id="F0yUkIuMt_mIAwkm-PFu-250" style="edgeStyle=orthogonalEdgeStyle;rounded=0;orthogonalLoop=1;jettySize=auto;html=1;entryX=0;entryY=0.5;entryDx=0;entryDy=0;" edge="1" parent="1" source="F0yUkIuMt_mIAwkm-PFu-254" target="F0yUkIuMt_mIAwkm-PFu-258">
          <mxGeometry relative="1" as="geometry" />
        </mxCell>
        <mxCell id="F0yUkIuMt_mIAwkm-PFu-251" style="edgeStyle=orthogonalEdgeStyle;rounded=0;orthogonalLoop=1;jettySize=auto;html=1;entryX=0;entryY=0.5;entryDx=0;entryDy=0;" edge="1" parent="1" source="F0yUkIuMt_mIAwkm-PFu-254" target="F0yUkIuMt_mIAwkm-PFu-260">
          <mxGeometry relative="1" as="geometry" />
        </mxCell>
        <mxCell id="F0yUkIuMt_mIAwkm-PFu-252" style="edgeStyle=orthogonalEdgeStyle;rounded=0;orthogonalLoop=1;jettySize=auto;html=1;entryX=0;entryY=0.5;entryDx=0;entryDy=0;" edge="1" parent="1" source="F0yUkIuMt_mIAwkm-PFu-254" target="F0yUkIuMt_mIAwkm-PFu-266">
          <mxGeometry relative="1" as="geometry">
            <Array as="points">
              <mxPoint x="420" y="4810" />
              <mxPoint x="420" y="4640" />
            </Array>
          </mxGeometry>
        </mxCell>
        <mxCell id="F0yUkIuMt_mIAwkm-PFu-253" style="edgeStyle=orthogonalEdgeStyle;rounded=0;orthogonalLoop=1;jettySize=auto;html=1;entryX=0;entryY=0.5;entryDx=0;entryDy=0;" edge="1" parent="1" source="F0yUkIuMt_mIAwkm-PFu-254" target="F0yUkIuMt_mIAwkm-PFu-274">
          <mxGeometry relative="1" as="geometry">
            <Array as="points">
              <mxPoint x="300" y="4970" />
            </Array>
          </mxGeometry>
        </mxCell>
        <mxCell id="F0yUkIuMt_mIAwkm-PFu-254" value="Hanging On Low Rings" style="whiteSpace=wrap;html=1;" vertex="1" parent="1">
          <mxGeometry x="240" y="4780" width="120" height="60" as="geometry" />
        </mxCell>
        <mxCell id="F0yUkIuMt_mIAwkm-PFu-255" style="edgeStyle=orthogonalEdgeStyle;rounded=0;orthogonalLoop=1;jettySize=auto;html=1;" edge="1" parent="1" source="F0yUkIuMt_mIAwkm-PFu-256" target="F0yUkIuMt_mIAwkm-PFu-269">
          <mxGeometry relative="1" as="geometry" />
        </mxCell>
        <mxCell id="F0yUkIuMt_mIAwkm-PFu-256" value="Touch Toes To Rings With Assistance" style="whiteSpace=wrap;html=1;" vertex="1" parent="1">
          <mxGeometry x="520" y="4690" width="120" height="60" as="geometry" />
        </mxCell>
        <mxCell id="F0yUkIuMt_mIAwkm-PFu-257" value="" style="edgeStyle=orthogonalEdgeStyle;rounded=0;orthogonalLoop=1;jettySize=auto;html=1;" edge="1" parent="1" source="F0yUkIuMt_mIAwkm-PFu-258" target="F0yUkIuMt_mIAwkm-PFu-262">
          <mxGeometry relative="1" as="geometry" />
        </mxCell>
        <mxCell id="F0yUkIuMt_mIAwkm-PFu-258" value="Hanging In Tuck" style="whiteSpace=wrap;html=1;" vertex="1" parent="1">
          <mxGeometry x="520" y="4780" width="120" height="60" as="geometry" />
        </mxCell>
        <mxCell id="F0yUkIuMt_mIAwkm-PFu-259" style="edgeStyle=orthogonalEdgeStyle;rounded=0;orthogonalLoop=1;jettySize=auto;html=1;" edge="1" parent="1" source="F0yUkIuMt_mIAwkm-PFu-260" target="F0yUkIuMt_mIAwkm-PFu-264">
          <mxGeometry relative="1" as="geometry" />
        </mxCell>
        <mxCell id="F0yUkIuMt_mIAwkm-PFu-260" value="Hanging With Legs Together" style="whiteSpace=wrap;html=1;" vertex="1" parent="1">
          <mxGeometry x="520" y="4870" width="120" height="60" as="geometry" />
        </mxCell>
        <mxCell id="F0yUkIuMt_mIAwkm-PFu-261" style="edgeStyle=orthogonalEdgeStyle;rounded=0;orthogonalLoop=1;jettySize=auto;html=1;entryX=0;entryY=0.5;entryDx=0;entryDy=0;" edge="1" parent="1" source="F0yUkIuMt_mIAwkm-PFu-262" target="F0yUkIuMt_mIAwkm-PFu-270">
          <mxGeometry relative="1" as="geometry" />
        </mxCell>
        <mxCell id="F0yUkIuMt_mIAwkm-PFu-262" value="Hanging In Straddle" style="whiteSpace=wrap;html=1;" vertex="1" parent="1">
          <mxGeometry x="800" y="4780" width="120" height="60" as="geometry" />
        </mxCell>
        <mxCell id="F0yUkIuMt_mIAwkm-PFu-263" value="" style="edgeStyle=orthogonalEdgeStyle;rounded=0;orthogonalLoop=1;jettySize=auto;html=1;" edge="1" parent="1" source="F0yUkIuMt_mIAwkm-PFu-264" target="F0yUkIuMt_mIAwkm-PFu-271">
          <mxGeometry relative="1" as="geometry" />
        </mxCell>
        <mxCell id="F0yUkIuMt_mIAwkm-PFu-264" value="Landing From Low Rings" style="whiteSpace=wrap;html=1;" vertex="1" parent="1">
          <mxGeometry x="800" y="4870" width="120" height="60" as="geometry" />
        </mxCell>
        <mxCell id="F0yUkIuMt_mIAwkm-PFu-265" value="" style="edgeStyle=orthogonalEdgeStyle;rounded=0;orthogonalLoop=1;jettySize=auto;html=1;" edge="1" parent="1" source="F0yUkIuMt_mIAwkm-PFu-266" target="F0yUkIuMt_mIAwkm-PFu-267">
          <mxGeometry relative="1" as="geometry" />
        </mxCell>
        <mxCell id="F0yUkIuMt_mIAwkm-PFu-266" value="Turning Rings While Hanging" style="whiteSpace=wrap;html=1;" vertex="1" parent="1">
          <mxGeometry x="800" y="4610" width="120" height="60" as="geometry" />
        </mxCell>
        <mxCell id="F0yUkIuMt_mIAwkm-PFu-267" value="Hanging On High Rings With Assistance" style="whiteSpace=wrap;html=1;" vertex="1" parent="1">
          <mxGeometry x="1080" y="4610" width="120" height="60" as="geometry" />
        </mxCell>
        <mxCell id="F0yUkIuMt_mIAwkm-PFu-268" value="" style="edgeStyle=orthogonalEdgeStyle;rounded=0;orthogonalLoop=1;jettySize=auto;html=1;" edge="1" parent="1" source="F0yUkIuMt_mIAwkm-PFu-269" target="F0yUkIuMt_mIAwkm-PFu-272">
          <mxGeometry relative="1" as="geometry" />
        </mxCell>
        <mxCell id="F0yUkIuMt_mIAwkm-PFu-269" value="Touch Toes To Rings" style="whiteSpace=wrap;html=1;" vertex="1" parent="1">
          <mxGeometry x="1080" y="4690" width="120" height="60" as="geometry" />
        </mxCell>
        <mxCell id="F0yUkIuMt_mIAwkm-PFu-270" value="Lift Toes To Horizontal Straddle" style="whiteSpace=wrap;html=1;" vertex="1" parent="1">
          <mxGeometry x="1080" y="4780" width="120" height="60" as="geometry" />
        </mxCell>
        <mxCell id="F0yUkIuMt_mIAwkm-PFu-271" value="Landing From High Rings With Assistance" style="whiteSpace=wrap;html=1;" vertex="1" parent="1">
          <mxGeometry x="1360" y="4870" width="120" height="60" as="geometry" />
        </mxCell>
        <mxCell id="F0yUkIuMt_mIAwkm-PFu-272" value="Tucked Inverted Hang With Assistance" style="whiteSpace=wrap;html=1;" vertex="1" parent="1">
          <mxGeometry x="1360" y="4690" width="120" height="60" as="geometry" />
        </mxCell>
        <mxCell id="F0yUkIuMt_mIAwkm-PFu-273" style="edgeStyle=orthogonalEdgeStyle;rounded=0;orthogonalLoop=1;jettySize=auto;html=1;entryX=0;entryY=0.5;entryDx=0;entryDy=0;" edge="1" parent="1" source="F0yUkIuMt_mIAwkm-PFu-274" target="F0yUkIuMt_mIAwkm-PFu-275">
          <mxGeometry relative="1" as="geometry" />
        </mxCell>
        <mxCell id="F0yUkIuMt_mIAwkm-PFu-274" value="Modified Chin Up With Assistance" style="whiteSpace=wrap;html=1;" vertex="1" parent="1">
          <mxGeometry x="1080" y="4940" width="120" height="60" as="geometry" />
        </mxCell>
        <mxCell id="F0yUkIuMt_mIAwkm-PFu-275" value="Modified Chin Up Hold, Lower To Straight Arms" style="whiteSpace=wrap;html=1;" vertex="1" parent="1">
          <mxGeometry x="1360" y="4940" width="120" height="60" as="geometry" />
        </mxCell>
        <mxCell id="F0yUkIuMt_mIAwkm-PFu-276" style="edgeStyle=orthogonalEdgeStyle;rounded=0;orthogonalLoop=1;jettySize=auto;html=1;" edge="1" parent="1" source="F0yUkIuMt_mIAwkm-PFu-277" target="F0yUkIuMt_mIAwkm-PFu-280">
          <mxGeometry relative="1" as="geometry" />
        </mxCell>
        <mxCell id="F0yUkIuMt_mIAwkm-PFu-277" value="Beginner Parallel Bars" style="whiteSpace=wrap;html=1;" vertex="1" parent="1">
          <mxGeometry x="-40" y="5100" width="120" height="120" as="geometry" />
        </mxCell>
        <mxCell id="F0yUkIuMt_mIAwkm-PFu-278" style="edgeStyle=orthogonalEdgeStyle;rounded=0;orthogonalLoop=1;jettySize=auto;html=1;entryX=0;entryY=0.5;entryDx=0;entryDy=0;" edge="1" parent="1" source="F0yUkIuMt_mIAwkm-PFu-280" target="F0yUkIuMt_mIAwkm-PFu-283">
          <mxGeometry relative="1" as="geometry" />
        </mxCell>
        <mxCell id="F0yUkIuMt_mIAwkm-PFu-279" style="edgeStyle=orthogonalEdgeStyle;rounded=0;orthogonalLoop=1;jettySize=auto;html=1;entryX=0;entryY=0.5;entryDx=0;entryDy=0;" edge="1" parent="1" source="F0yUkIuMt_mIAwkm-PFu-280" target="F0yUkIuMt_mIAwkm-PFu-286">
          <mxGeometry relative="1" as="geometry" />
        </mxCell>
        <mxCell id="F0yUkIuMt_mIAwkm-PFu-280" value="Hanging On P-Bars" style="whiteSpace=wrap;html=1;" vertex="1" parent="1">
          <mxGeometry x="520" y="5130" width="120" height="60" as="geometry" />
        </mxCell>
        <mxCell id="F0yUkIuMt_mIAwkm-PFu-281" value="" style="edgeStyle=orthogonalEdgeStyle;rounded=0;orthogonalLoop=1;jettySize=auto;html=1;" edge="1" parent="1" source="F0yUkIuMt_mIAwkm-PFu-283" target="F0yUkIuMt_mIAwkm-PFu-290">
          <mxGeometry relative="1" as="geometry" />
        </mxCell>
        <mxCell id="F0yUkIuMt_mIAwkm-PFu-282" style="edgeStyle=orthogonalEdgeStyle;rounded=0;orthogonalLoop=1;jettySize=auto;html=1;entryX=0;entryY=0.5;entryDx=0;entryDy=0;" edge="1" parent="1" source="F0yUkIuMt_mIAwkm-PFu-283" target="F0yUkIuMt_mIAwkm-PFu-293">
          <mxGeometry relative="1" as="geometry">
            <Array as="points">
              <mxPoint x="850" y="5160" />
            </Array>
          </mxGeometry>
        </mxCell>
        <mxCell id="F0yUkIuMt_mIAwkm-PFu-283" value="Front Support With Straddled Legs On Bars" style="whiteSpace=wrap;html=1;" vertex="1" parent="1">
          <mxGeometry x="800" y="5030" width="120" height="60" as="geometry" />
        </mxCell>
        <mxCell id="F0yUkIuMt_mIAwkm-PFu-284" value="" style="edgeStyle=orthogonalEdgeStyle;rounded=0;orthogonalLoop=1;jettySize=auto;html=1;" edge="1" parent="1" source="F0yUkIuMt_mIAwkm-PFu-286" target="F0yUkIuMt_mIAwkm-PFu-288">
          <mxGeometry relative="1" as="geometry" />
        </mxCell>
        <mxCell id="F0yUkIuMt_mIAwkm-PFu-285" style="edgeStyle=orthogonalEdgeStyle;rounded=0;orthogonalLoop=1;jettySize=auto;html=1;entryX=0;entryY=0.5;entryDx=0;entryDy=0;" edge="1" parent="1" source="F0yUkIuMt_mIAwkm-PFu-286" target="F0yUkIuMt_mIAwkm-PFu-293">
          <mxGeometry relative="1" as="geometry">
            <Array as="points">
              <mxPoint x="850" y="5160" />
            </Array>
          </mxGeometry>
        </mxCell>
        <mxCell id="F0yUkIuMt_mIAwkm-PFu-286" value="Rear Support With Straddled Legs On Bars" style="whiteSpace=wrap;html=1;" vertex="1" parent="1">
          <mxGeometry x="800" y="5220" width="120" height="60" as="geometry" />
        </mxCell>
        <mxCell id="F0yUkIuMt_mIAwkm-PFu-287" value="" style="edgeStyle=orthogonalEdgeStyle;rounded=0;orthogonalLoop=1;jettySize=auto;html=1;" edge="1" parent="1" source="F0yUkIuMt_mIAwkm-PFu-288" target="F0yUkIuMt_mIAwkm-PFu-295">
          <mxGeometry relative="1" as="geometry" />
        </mxCell>
        <mxCell id="F0yUkIuMt_mIAwkm-PFu-288" value="Table Position On Bars" style="whiteSpace=wrap;html=1;" vertex="1" parent="1">
          <mxGeometry x="1080" y="5220" width="120" height="60" as="geometry" />
        </mxCell>
        <mxCell id="F0yUkIuMt_mIAwkm-PFu-289" value="" style="edgeStyle=orthogonalEdgeStyle;rounded=0;orthogonalLoop=1;jettySize=auto;html=1;" edge="1" parent="1" source="F0yUkIuMt_mIAwkm-PFu-290" target="F0yUkIuMt_mIAwkm-PFu-294">
          <mxGeometry relative="1" as="geometry" />
        </mxCell>
        <mxCell id="F0yUkIuMt_mIAwkm-PFu-290" value="Bear Walk With Assistance" style="whiteSpace=wrap;html=1;" vertex="1" parent="1">
          <mxGeometry x="1080" y="5030" width="120" height="60" as="geometry" />
        </mxCell>
        <mxCell id="F0yUkIuMt_mIAwkm-PFu-291" value="Support On Boxes" style="whiteSpace=wrap;html=1;" vertex="1" parent="1">
          <mxGeometry x="1360" y="5130" width="120" height="60" as="geometry" />
        </mxCell>
        <mxCell id="F0yUkIuMt_mIAwkm-PFu-292" value="" style="edgeStyle=orthogonalEdgeStyle;rounded=0;orthogonalLoop=1;jettySize=auto;html=1;" edge="1" parent="1" source="F0yUkIuMt_mIAwkm-PFu-293" target="F0yUkIuMt_mIAwkm-PFu-291">
          <mxGeometry relative="1" as="geometry" />
        </mxCell>
        <mxCell id="F0yUkIuMt_mIAwkm-PFu-293" value="Support On Boxes With Assistance" style="whiteSpace=wrap;html=1;" vertex="1" parent="1">
          <mxGeometry x="1080" y="5130" width="120" height="60" as="geometry" />
        </mxCell>
        <mxCell id="F0yUkIuMt_mIAwkm-PFu-294" value="Bear Walk" style="whiteSpace=wrap;html=1;" vertex="1" parent="1">
          <mxGeometry x="1360" y="5030" width="120" height="60" as="geometry" />
        </mxCell>
        <mxCell id="F0yUkIuMt_mIAwkm-PFu-295" value="Crab Walk With Assistance" style="whiteSpace=wrap;html=1;" vertex="1" parent="1">
          <mxGeometry x="1360" y="5220" width="120" height="60" as="geometry" />
        </mxCell>
        <mxCell id="F0yUkIuMt_mIAwkm-PFu-296" value="" style="edgeStyle=orthogonalEdgeStyle;rounded=0;orthogonalLoop=1;jettySize=auto;html=1;" edge="1" parent="1" source="F0yUkIuMt_mIAwkm-PFu-297" target="F0yUkIuMt_mIAwkm-PFu-303">
          <mxGeometry relative="1" as="geometry" />
        </mxCell>
        <mxCell id="F0yUkIuMt_mIAwkm-PFu-297" value="High Bar" style="whiteSpace=wrap;html=1;" vertex="1" parent="1">
          <mxGeometry x="-40" y="5440" width="120" height="120" as="geometry" />
        </mxCell>
        <mxCell id="F0yUkIuMt_mIAwkm-PFu-298" value="" style="edgeStyle=orthogonalEdgeStyle;rounded=0;orthogonalLoop=1;jettySize=auto;html=1;" edge="1" parent="1" source="F0yUkIuMt_mIAwkm-PFu-303" target="F0yUkIuMt_mIAwkm-PFu-306">
          <mxGeometry relative="1" as="geometry" />
        </mxCell>
        <mxCell id="F0yUkIuMt_mIAwkm-PFu-299" style="edgeStyle=orthogonalEdgeStyle;rounded=0;orthogonalLoop=1;jettySize=auto;html=1;entryX=0;entryY=0.5;entryDx=0;entryDy=0;" edge="1" parent="1" source="F0yUkIuMt_mIAwkm-PFu-303" target="F0yUkIuMt_mIAwkm-PFu-311">
          <mxGeometry relative="1" as="geometry" />
        </mxCell>
        <mxCell id="F0yUkIuMt_mIAwkm-PFu-300" style="edgeStyle=orthogonalEdgeStyle;rounded=0;orthogonalLoop=1;jettySize=auto;html=1;entryX=0;entryY=0.5;entryDx=0;entryDy=0;" edge="1" parent="1" source="F0yUkIuMt_mIAwkm-PFu-303" target="F0yUkIuMt_mIAwkm-PFu-309">
          <mxGeometry relative="1" as="geometry" />
        </mxCell>
        <mxCell id="F0yUkIuMt_mIAwkm-PFu-301" style="edgeStyle=orthogonalEdgeStyle;rounded=0;orthogonalLoop=1;jettySize=auto;html=1;entryX=0;entryY=0.5;entryDx=0;entryDy=0;" edge="1" parent="1" source="F0yUkIuMt_mIAwkm-PFu-303" target="F0yUkIuMt_mIAwkm-PFu-321">
          <mxGeometry relative="1" as="geometry">
            <Array as="points">
              <mxPoint x="190" y="5500" />
              <mxPoint x="190" y="5330" />
            </Array>
          </mxGeometry>
        </mxCell>
        <mxCell id="F0yUkIuMt_mIAwkm-PFu-302" style="edgeStyle=orthogonalEdgeStyle;rounded=0;orthogonalLoop=1;jettySize=auto;html=1;entryX=0;entryY=0.5;entryDx=0;entryDy=0;" edge="1" parent="1" source="F0yUkIuMt_mIAwkm-PFu-303" target="F0yUkIuMt_mIAwkm-PFu-320">
          <mxGeometry relative="1" as="geometry">
            <Array as="points">
              <mxPoint x="190" y="5500" />
              <mxPoint x="190" y="5750" />
            </Array>
          </mxGeometry>
        </mxCell>
        <mxCell id="F0yUkIuMt_mIAwkm-PFu-303" value="Hanging On Low Rail" style="whiteSpace=wrap;html=1;" vertex="1" parent="1">
          <mxGeometry x="240" y="5470" width="120" height="60" as="geometry" />
        </mxCell>
        <mxCell id="F0yUkIuMt_mIAwkm-PFu-304" style="edgeStyle=orthogonalEdgeStyle;rounded=0;orthogonalLoop=1;jettySize=auto;html=1;entryX=0;entryY=0.5;entryDx=0;entryDy=0;" edge="1" parent="1" source="F0yUkIuMt_mIAwkm-PFu-306" target="F0yUkIuMt_mIAwkm-PFu-316">
          <mxGeometry relative="1" as="geometry" />
        </mxCell>
        <mxCell id="F0yUkIuMt_mIAwkm-PFu-305" value="" style="edgeStyle=orthogonalEdgeStyle;rounded=0;orthogonalLoop=1;jettySize=auto;html=1;" edge="1" parent="1" source="F0yUkIuMt_mIAwkm-PFu-306" target="F0yUkIuMt_mIAwkm-PFu-311">
          <mxGeometry relative="1" as="geometry" />
        </mxCell>
        <mxCell id="F0yUkIuMt_mIAwkm-PFu-306" value="Hanging In Tuck" style="whiteSpace=wrap;html=1;" vertex="1" parent="1">
          <mxGeometry x="520" y="5470" width="120" height="60" as="geometry" />
        </mxCell>
        <mxCell id="F0yUkIuMt_mIAwkm-PFu-307" style="edgeStyle=orthogonalEdgeStyle;rounded=0;orthogonalLoop=1;jettySize=auto;html=1;entryX=0;entryY=0.5;entryDx=0;entryDy=0;" edge="1" parent="1" source="F0yUkIuMt_mIAwkm-PFu-309" target="F0yUkIuMt_mIAwkm-PFu-314">
          <mxGeometry relative="1" as="geometry" />
        </mxCell>
        <mxCell id="F0yUkIuMt_mIAwkm-PFu-308" style="edgeStyle=orthogonalEdgeStyle;rounded=0;orthogonalLoop=1;jettySize=auto;html=1;entryX=0;entryY=0.5;entryDx=0;entryDy=0;" edge="1" parent="1" source="F0yUkIuMt_mIAwkm-PFu-309" target="F0yUkIuMt_mIAwkm-PFu-316">
          <mxGeometry relative="1" as="geometry" />
        </mxCell>
        <mxCell id="F0yUkIuMt_mIAwkm-PFu-309" value="Hanging With Legs Together" style="whiteSpace=wrap;html=1;" vertex="1" parent="1">
          <mxGeometry x="520" y="5560" width="120" height="60" as="geometry" />
        </mxCell>
        <mxCell id="F0yUkIuMt_mIAwkm-PFu-310" style="edgeStyle=orthogonalEdgeStyle;rounded=0;orthogonalLoop=1;jettySize=auto;html=1;entryX=0;entryY=0.5;entryDx=0;entryDy=0;" edge="1" parent="1" source="F0yUkIuMt_mIAwkm-PFu-311" target="F0yUkIuMt_mIAwkm-PFu-318">
          <mxGeometry relative="1" as="geometry" />
        </mxCell>
        <mxCell id="F0yUkIuMt_mIAwkm-PFu-311" value="Touch Toes To Bar With Assistance" style="whiteSpace=wrap;html=1;" vertex="1" parent="1">
          <mxGeometry x="520" y="5380" width="120" height="60" as="geometry" />
        </mxCell>
        <mxCell id="F0yUkIuMt_mIAwkm-PFu-312" style="edgeStyle=orthogonalEdgeStyle;rounded=0;orthogonalLoop=1;jettySize=auto;html=1;" edge="1" parent="1" source="F0yUkIuMt_mIAwkm-PFu-314" target="F0yUkIuMt_mIAwkm-PFu-324">
          <mxGeometry relative="1" as="geometry" />
        </mxCell>
        <mxCell id="F0yUkIuMt_mIAwkm-PFu-313" style="edgeStyle=orthogonalEdgeStyle;rounded=0;orthogonalLoop=1;jettySize=auto;html=1;entryX=0;entryY=0.5;entryDx=0;entryDy=0;" edge="1" parent="1" source="F0yUkIuMt_mIAwkm-PFu-314" target="F0yUkIuMt_mIAwkm-PFu-328">
          <mxGeometry relative="1" as="geometry">
            <Array as="points">
              <mxPoint x="860" y="5670" />
            </Array>
          </mxGeometry>
        </mxCell>
        <mxCell id="F0yUkIuMt_mIAwkm-PFu-314" value="Landing From Low Bar" style="whiteSpace=wrap;html=1;" vertex="1" parent="1">
          <mxGeometry x="800" y="5560" width="120" height="60" as="geometry" />
        </mxCell>
        <mxCell id="F0yUkIuMt_mIAwkm-PFu-315" value="" style="edgeStyle=orthogonalEdgeStyle;rounded=0;orthogonalLoop=1;jettySize=auto;html=1;" edge="1" parent="1" source="F0yUkIuMt_mIAwkm-PFu-316" target="F0yUkIuMt_mIAwkm-PFu-323">
          <mxGeometry relative="1" as="geometry" />
        </mxCell>
        <mxCell id="F0yUkIuMt_mIAwkm-PFu-316" value="Hanging In Straddle" style="whiteSpace=wrap;html=1;" vertex="1" parent="1">
          <mxGeometry x="800" y="5470" width="120" height="60" as="geometry" />
        </mxCell>
        <mxCell id="F0yUkIuMt_mIAwkm-PFu-317" value="" style="edgeStyle=orthogonalEdgeStyle;rounded=0;orthogonalLoop=1;jettySize=auto;html=1;" edge="1" parent="1" source="F0yUkIuMt_mIAwkm-PFu-318" target="F0yUkIuMt_mIAwkm-PFu-326">
          <mxGeometry relative="1" as="geometry" />
        </mxCell>
        <mxCell id="F0yUkIuMt_mIAwkm-PFu-318" value="Touch Toes To Bar" style="whiteSpace=wrap;html=1;" vertex="1" parent="1">
          <mxGeometry x="1080" y="5380" width="120" height="60" as="geometry" />
        </mxCell>
        <mxCell id="F0yUkIuMt_mIAwkm-PFu-319" value="" style="edgeStyle=orthogonalEdgeStyle;rounded=0;orthogonalLoop=1;jettySize=auto;html=1;" edge="1" parent="1" source="F0yUkIuMt_mIAwkm-PFu-320" target="F0yUkIuMt_mIAwkm-PFu-325">
          <mxGeometry relative="1" as="geometry" />
        </mxCell>
        <mxCell id="F0yUkIuMt_mIAwkm-PFu-320" value="Modified Chin Up With Assistance" style="whiteSpace=wrap;html=1;" vertex="1" parent="1">
          <mxGeometry x="800" y="5720" width="120" height="60" as="geometry" />
        </mxCell>
        <mxCell id="F0yUkIuMt_mIAwkm-PFu-321" value="Hanging From High Rail" style="whiteSpace=wrap;html=1;" vertex="1" parent="1">
          <mxGeometry x="1080" y="5300" width="120" height="60" as="geometry" />
        </mxCell>
        <mxCell id="F0yUkIuMt_mIAwkm-PFu-322" value="" style="edgeStyle=orthogonalEdgeStyle;rounded=0;orthogonalLoop=1;jettySize=auto;html=1;" edge="1" parent="1" source="F0yUkIuMt_mIAwkm-PFu-323" target="F0yUkIuMt_mIAwkm-PFu-327">
          <mxGeometry relative="1" as="geometry" />
        </mxCell>
        <mxCell id="F0yUkIuMt_mIAwkm-PFu-323" value="Lift Toes To Horizontal Straddle" style="whiteSpace=wrap;html=1;" vertex="1" parent="1">
          <mxGeometry x="1080" y="5470" width="120" height="60" as="geometry" />
        </mxCell>
        <mxCell id="F0yUkIuMt_mIAwkm-PFu-324" value="Landing From High Bar With Assistance" style="whiteSpace=wrap;html=1;" vertex="1" parent="1">
          <mxGeometry x="1360" y="5560" width="120" height="60" as="geometry" />
        </mxCell>
        <mxCell id="F0yUkIuMt_mIAwkm-PFu-325" value="Modified Chin Up Hold, And Lower To Straight Arms" style="whiteSpace=wrap;html=1;" vertex="1" parent="1">
          <mxGeometry x="1360" y="5720" width="120" height="60" as="geometry" />
        </mxCell>
        <mxCell id="F0yUkIuMt_mIAwkm-PFu-326" value="Tucked Inverted Hang With Assistance" style="whiteSpace=wrap;html=1;" vertex="1" parent="1">
          <mxGeometry x="1360" y="5380" width="120" height="60" as="geometry" />
        </mxCell>
        <mxCell id="F0yUkIuMt_mIAwkm-PFu-327" value="Lift Toes in Pike To 45 Degrees Below Horizontal" style="whiteSpace=wrap;html=1;" vertex="1" parent="1">
          <mxGeometry x="1360" y="5470" width="120" height="60" as="geometry" />
        </mxCell>
        <mxCell id="F0yUkIuMt_mIAwkm-PFu-328" value="Monkey Walk On Low Rail" style="whiteSpace=wrap;html=1;" vertex="1" parent="1">
          <mxGeometry x="1080" y="5640" width="120" height="60" as="geometry" />
        </mxCell>
        <mxCell id="F0yUkIuMt_mIAwkm-PFu-329" value="Modified Chin Up Hold, And Lower To Straight Arms" style="whiteSpace=wrap;html=1;" vertex="1" parent="1">
          <mxGeometry x="1360" y="2450" width="120" height="60" as="geometry" />
        </mxCell>
        <mxCell id="F0yUkIuMt_mIAwkm-PFu-330" style="edgeStyle=orthogonalEdgeStyle;rounded=0;orthogonalLoop=1;jettySize=auto;html=1;entryX=0;entryY=0.5;entryDx=0;entryDy=0;" edge="1" parent="1" source="F0yUkIuMt_mIAwkm-PFu-336" target="F0yUkIuMt_mIAwkm-PFu-347">
          <mxGeometry relative="1" as="geometry" />
        </mxCell>
        <mxCell id="F0yUkIuMt_mIAwkm-PFu-331" style="edgeStyle=orthogonalEdgeStyle;rounded=0;orthogonalLoop=1;jettySize=auto;html=1;entryX=0;entryY=0.5;entryDx=0;entryDy=0;" edge="1" parent="1" source="F0yUkIuMt_mIAwkm-PFu-336" target="F0yUkIuMt_mIAwkm-PFu-338">
          <mxGeometry relative="1" as="geometry" />
        </mxCell>
        <mxCell id="F0yUkIuMt_mIAwkm-PFu-332" style="edgeStyle=orthogonalEdgeStyle;rounded=0;orthogonalLoop=1;jettySize=auto;html=1;entryX=0;entryY=0.5;entryDx=0;entryDy=0;" edge="1" parent="1" source="F0yUkIuMt_mIAwkm-PFu-336" target="F0yUkIuMt_mIAwkm-PFu-337">
          <mxGeometry relative="1" as="geometry" />
        </mxCell>
        <mxCell id="F0yUkIuMt_mIAwkm-PFu-333" style="edgeStyle=orthogonalEdgeStyle;rounded=0;orthogonalLoop=1;jettySize=auto;html=1;entryX=0;entryY=0.5;entryDx=0;entryDy=0;" edge="1" parent="1" source="F0yUkIuMt_mIAwkm-PFu-336" target="F0yUkIuMt_mIAwkm-PFu-351">
          <mxGeometry relative="1" as="geometry" />
        </mxCell>
        <mxCell id="F0yUkIuMt_mIAwkm-PFu-334" style="edgeStyle=orthogonalEdgeStyle;rounded=0;orthogonalLoop=1;jettySize=auto;html=1;entryX=0;entryY=0.5;entryDx=0;entryDy=0;" edge="1" parent="1" source="F0yUkIuMt_mIAwkm-PFu-336" target="F0yUkIuMt_mIAwkm-PFu-341">
          <mxGeometry relative="1" as="geometry" />
        </mxCell>
        <mxCell id="F0yUkIuMt_mIAwkm-PFu-335" style="edgeStyle=orthogonalEdgeStyle;rounded=0;orthogonalLoop=1;jettySize=auto;html=1;entryX=0;entryY=0.5;entryDx=0;entryDy=0;" edge="1" parent="1" source="F0yUkIuMt_mIAwkm-PFu-336" target="F0yUkIuMt_mIAwkm-PFu-360">
          <mxGeometry relative="1" as="geometry">
            <Array as="points">
              <mxPoint x="370" y="6010" />
              <mxPoint x="370" y="5920" />
            </Array>
          </mxGeometry>
        </mxCell>
        <mxCell id="F0yUkIuMt_mIAwkm-PFu-336" value="Trampoline" style="whiteSpace=wrap;html=1;" vertex="1" parent="1">
          <mxGeometry x="-40" y="5950" width="120" height="120" as="geometry" />
        </mxCell>
        <mxCell id="F0yUkIuMt_mIAwkm-PFu-337" value="Wak On Trampoline" style="whiteSpace=wrap;html=1;" vertex="1" parent="1">
          <mxGeometry x="240" y="5810" width="120" height="60" as="geometry" />
        </mxCell>
        <mxCell id="F0yUkIuMt_mIAwkm-PFu-338" value="Walk Off Trampoline" style="whiteSpace=wrap;html=1;" vertex="1" parent="1">
          <mxGeometry x="240" y="5900" width="120" height="60" as="geometry" />
        </mxCell>
        <mxCell id="F0yUkIuMt_mIAwkm-PFu-339" style="edgeStyle=orthogonalEdgeStyle;rounded=0;orthogonalLoop=1;jettySize=auto;html=1;entryX=0;entryY=0.5;entryDx=0;entryDy=0;" edge="1" parent="1" source="F0yUkIuMt_mIAwkm-PFu-341" target="F0yUkIuMt_mIAwkm-PFu-353">
          <mxGeometry relative="1" as="geometry" />
        </mxCell>
        <mxCell id="F0yUkIuMt_mIAwkm-PFu-340" style="edgeStyle=orthogonalEdgeStyle;rounded=0;orthogonalLoop=1;jettySize=auto;html=1;entryX=0;entryY=0.5;entryDx=0;entryDy=0;" edge="1" parent="1" source="F0yUkIuMt_mIAwkm-PFu-341" target="F0yUkIuMt_mIAwkm-PFu-368">
          <mxGeometry relative="1" as="geometry" />
        </mxCell>
        <mxCell id="F0yUkIuMt_mIAwkm-PFu-341" value="Sit On Trampoline, Fingers Forwards" style="whiteSpace=wrap;html=1;" vertex="1" parent="1">
          <mxGeometry x="240" y="6200" width="120" height="60" as="geometry" />
        </mxCell>
        <mxCell id="F0yUkIuMt_mIAwkm-PFu-342" value="" style="edgeStyle=orthogonalEdgeStyle;rounded=0;orthogonalLoop=1;jettySize=auto;html=1;" edge="1" parent="1" source="F0yUkIuMt_mIAwkm-PFu-347" target="F0yUkIuMt_mIAwkm-PFu-349">
          <mxGeometry relative="1" as="geometry" />
        </mxCell>
        <mxCell id="F0yUkIuMt_mIAwkm-PFu-343" style="edgeStyle=orthogonalEdgeStyle;rounded=0;orthogonalLoop=1;jettySize=auto;html=1;entryX=0;entryY=0.5;entryDx=0;entryDy=0;" edge="1" parent="1" source="F0yUkIuMt_mIAwkm-PFu-347" target="F0yUkIuMt_mIAwkm-PFu-354">
          <mxGeometry relative="1" as="geometry" />
        </mxCell>
        <mxCell id="F0yUkIuMt_mIAwkm-PFu-344" style="edgeStyle=orthogonalEdgeStyle;rounded=0;orthogonalLoop=1;jettySize=auto;html=1;entryX=0;entryY=0.5;entryDx=0;entryDy=0;" edge="1" parent="1" source="F0yUkIuMt_mIAwkm-PFu-347" target="F0yUkIuMt_mIAwkm-PFu-356">
          <mxGeometry relative="1" as="geometry" />
        </mxCell>
        <mxCell id="F0yUkIuMt_mIAwkm-PFu-345" style="edgeStyle=orthogonalEdgeStyle;rounded=0;orthogonalLoop=1;jettySize=auto;html=1;entryX=0;entryY=0.5;entryDx=0;entryDy=0;" edge="1" parent="1" source="F0yUkIuMt_mIAwkm-PFu-347" target="F0yUkIuMt_mIAwkm-PFu-358">
          <mxGeometry relative="1" as="geometry" />
        </mxCell>
        <mxCell id="F0yUkIuMt_mIAwkm-PFu-346" style="edgeStyle=orthogonalEdgeStyle;rounded=0;orthogonalLoop=1;jettySize=auto;html=1;entryX=0;entryY=0.5;entryDx=0;entryDy=0;" edge="1" parent="1" source="F0yUkIuMt_mIAwkm-PFu-347" target="F0yUkIuMt_mIAwkm-PFu-365">
          <mxGeometry relative="1" as="geometry" />
        </mxCell>
        <mxCell id="F0yUkIuMt_mIAwkm-PFu-347" value="Small Bouncing On Trampoline" style="whiteSpace=wrap;html=1;" vertex="1" parent="1">
          <mxGeometry x="520" y="5980" width="120" height="60" as="geometry" />
        </mxCell>
        <mxCell id="F0yUkIuMt_mIAwkm-PFu-348" value="" style="edgeStyle=orthogonalEdgeStyle;rounded=0;orthogonalLoop=1;jettySize=auto;html=1;" edge="1" parent="1" source="F0yUkIuMt_mIAwkm-PFu-349" target="F0yUkIuMt_mIAwkm-PFu-361">
          <mxGeometry relative="1" as="geometry" />
        </mxCell>
        <mxCell id="F0yUkIuMt_mIAwkm-PFu-349" value="Small Stop Bounce" style="whiteSpace=wrap;html=1;" vertex="1" parent="1">
          <mxGeometry x="520" y="6120" width="120" height="60" as="geometry" />
        </mxCell>
        <mxCell id="F0yUkIuMt_mIAwkm-PFu-350" value="" style="edgeStyle=orthogonalEdgeStyle;rounded=0;orthogonalLoop=1;jettySize=auto;html=1;" edge="1" parent="1" source="F0yUkIuMt_mIAwkm-PFu-351" target="F0yUkIuMt_mIAwkm-PFu-349">
          <mxGeometry relative="1" as="geometry" />
        </mxCell>
        <mxCell id="F0yUkIuMt_mIAwkm-PFu-351" value="Stop Bounce Position" style="whiteSpace=wrap;html=1;" vertex="1" parent="1">
          <mxGeometry x="240" y="6120" width="120" height="60" as="geometry" />
        </mxCell>
        <mxCell id="F0yUkIuMt_mIAwkm-PFu-352" style="edgeStyle=orthogonalEdgeStyle;rounded=0;orthogonalLoop=1;jettySize=auto;html=1;entryX=0;entryY=0.5;entryDx=0;entryDy=0;" edge="1" parent="1" source="F0yUkIuMt_mIAwkm-PFu-353" target="F0yUkIuMt_mIAwkm-PFu-363">
          <mxGeometry relative="1" as="geometry" />
        </mxCell>
        <mxCell id="F0yUkIuMt_mIAwkm-PFu-353" value="Jump To Sit&lt;br&gt;On Mat" style="whiteSpace=wrap;html=1;" vertex="1" parent="1">
          <mxGeometry x="800" y="6200" width="120" height="60" as="geometry" />
        </mxCell>
        <mxCell id="F0yUkIuMt_mIAwkm-PFu-354" value="Tuck Jump" style="whiteSpace=wrap;html=1;" vertex="1" parent="1">
          <mxGeometry x="800" y="5980" width="120" height="60" as="geometry" />
        </mxCell>
        <mxCell id="F0yUkIuMt_mIAwkm-PFu-355" style="edgeStyle=orthogonalEdgeStyle;rounded=0;orthogonalLoop=1;jettySize=auto;html=1;entryX=0;entryY=0.5;entryDx=0;entryDy=0;" edge="1" parent="1" source="F0yUkIuMt_mIAwkm-PFu-356" target="F0yUkIuMt_mIAwkm-PFu-366">
          <mxGeometry relative="1" as="geometry" />
        </mxCell>
        <mxCell id="F0yUkIuMt_mIAwkm-PFu-356" value="Star Jump" style="whiteSpace=wrap;html=1;" vertex="1" parent="1">
          <mxGeometry x="800" y="5900" width="120" height="60" as="geometry" />
        </mxCell>
        <mxCell id="F0yUkIuMt_mIAwkm-PFu-357" value="" style="edgeStyle=orthogonalEdgeStyle;rounded=0;orthogonalLoop=1;jettySize=auto;html=1;" edge="1" parent="1" source="F0yUkIuMt_mIAwkm-PFu-358" target="F0yUkIuMt_mIAwkm-PFu-359">
          <mxGeometry relative="1" as="geometry" />
        </mxCell>
        <mxCell id="F0yUkIuMt_mIAwkm-PFu-358" value="Jump 1/4 Turn" style="whiteSpace=wrap;html=1;" vertex="1" parent="1">
          <mxGeometry x="800" y="5810" width="120" height="60" as="geometry" />
        </mxCell>
        <mxCell id="F0yUkIuMt_mIAwkm-PFu-359" value="Jump 1/2 Turn" style="whiteSpace=wrap;html=1;" vertex="1" parent="1">
          <mxGeometry x="1080" y="5810" width="120" height="60" as="geometry" />
        </mxCell>
        <mxCell id="F0yUkIuMt_mIAwkm-PFu-360" value="Bouncing Arm Circle Motion on Floor" style="whiteSpace=wrap;html=1;" vertex="1" parent="1">
          <mxGeometry x="520" y="5890" width="120" height="60" as="geometry" />
        </mxCell>
        <mxCell id="F0yUkIuMt_mIAwkm-PFu-361" value="5x Controlled Bounce to Stop Bounce" style="whiteSpace=wrap;html=1;" vertex="1" parent="1">
          <mxGeometry x="1080" y="6120" width="120" height="60" as="geometry" />
        </mxCell>
        <mxCell id="F0yUkIuMt_mIAwkm-PFu-362" value="" style="edgeStyle=orthogonalEdgeStyle;rounded=0;orthogonalLoop=1;jettySize=auto;html=1;" edge="1" parent="1" source="F0yUkIuMt_mIAwkm-PFu-363" target="F0yUkIuMt_mIAwkm-PFu-364">
          <mxGeometry relative="1" as="geometry" />
        </mxCell>
        <mxCell id="F0yUkIuMt_mIAwkm-PFu-363" value="Small Bounce to Sit On Trampoline" style="whiteSpace=wrap;html=1;" vertex="1" parent="1">
          <mxGeometry x="1080" y="6200" width="120" height="60" as="geometry" />
        </mxCell>
        <mxCell id="F0yUkIuMt_mIAwkm-PFu-364" value="Seat Drop" style="whiteSpace=wrap;html=1;" vertex="1" parent="1">
          <mxGeometry x="1360" y="6200" width="120" height="60" as="geometry" />
        </mxCell>
        <mxCell id="F0yUkIuMt_mIAwkm-PFu-365" value="Straight Jump" style="whiteSpace=wrap;html=1;" vertex="1" parent="1">
          <mxGeometry x="800" y="6060" width="120" height="60" as="geometry" />
        </mxCell>
        <mxCell id="F0yUkIuMt_mIAwkm-PFu-366" value="Straddle Jump" style="whiteSpace=wrap;html=1;" vertex="1" parent="1">
          <mxGeometry x="1360" y="5900" width="120" height="60" as="geometry" />
        </mxCell>
        <mxCell id="F0yUkIuMt_mIAwkm-PFu-367" style="edgeStyle=orthogonalEdgeStyle;rounded=0;orthogonalLoop=1;jettySize=auto;html=1;entryX=0;entryY=0.5;entryDx=0;entryDy=0;" edge="1" parent="1" source="F0yUkIuMt_mIAwkm-PFu-368" target="F0yUkIuMt_mIAwkm-PFu-369">
          <mxGeometry relative="1" as="geometry" />
        </mxCell>
        <mxCell id="F0yUkIuMt_mIAwkm-PFu-368" value="Hand Knee Position on Trampoline" style="whiteSpace=wrap;html=1;" vertex="1" parent="1">
          <mxGeometry x="520" y="6280" width="120" height="60" as="geometry" />
        </mxCell>
        <mxCell id="F0yUkIuMt_mIAwkm-PFu-369" value="Jump To Hand Knee On Mat" style="whiteSpace=wrap;html=1;" vertex="1" parent="1">
          <mxGeometry x="1080" y="6280" width="120" height="60" as="geometry" />
        </mxCell>
        <mxCell id="F0yUkIuMt_mIAwkm-PFu-370" style="edgeStyle=orthogonalEdgeStyle;rounded=0;orthogonalLoop=1;jettySize=auto;html=1;entryX=0;entryY=0.5;entryDx=0;entryDy=0;" edge="1" parent="1" source="F0yUkIuMt_mIAwkm-PFu-371" target="F0yUkIuMt_mIAwkm-PFu-375">
          <mxGeometry relative="1" as="geometry" />
        </mxCell>
        <mxCell id="F0yUkIuMt_mIAwkm-PFu-371" value="Elevated Front Support (Legs at Waist Height" style="whiteSpace=wrap;html=1;" vertex="1" parent="1">
          <mxGeometry x="1640" y="3540" width="120" height="60" as="geometry" />
        </mxCell>
        <mxCell id="F0yUkIuMt_mIAwkm-PFu-372" style="edgeStyle=orthogonalEdgeStyle;rounded=0;orthogonalLoop=1;jettySize=auto;html=1;entryX=0;entryY=0.5;entryDx=0;entryDy=0;" edge="1" parent="1" source="F0yUkIuMt_mIAwkm-PFu-373" target="F0yUkIuMt_mIAwkm-PFu-386">
          <mxGeometry relative="1" as="geometry" />
        </mxCell>
        <mxCell id="F0yUkIuMt_mIAwkm-PFu-373" value="From Stand, Step Forwards and Kick Legs to Horizontal On Box" style="whiteSpace=wrap;html=1;" vertex="1" parent="1">
          <mxGeometry x="1640" y="3660" width="120" height="60" as="geometry" />
        </mxCell>
        <mxCell id="F0yUkIuMt_mIAwkm-PFu-374" style="edgeStyle=orthogonalEdgeStyle;rounded=0;orthogonalLoop=1;jettySize=auto;html=1;" edge="1" parent="1" source="F0yUkIuMt_mIAwkm-PFu-375" target="F0yUkIuMt_mIAwkm-PFu-390">
          <mxGeometry relative="1" as="geometry" />
        </mxCell>
        <mxCell id="F0yUkIuMt_mIAwkm-PFu-375" value="Walk Legs Tot 45 Degree Handstand Against Wall" style="whiteSpace=wrap;html=1;" vertex="1" parent="1">
          <mxGeometry x="1920" y="3540" width="120" height="60" as="geometry" />
        </mxCell>
        <mxCell id="F0yUkIuMt_mIAwkm-PFu-376" style="edgeStyle=orthogonalEdgeStyle;rounded=0;orthogonalLoop=1;jettySize=auto;html=1;entryX=0;entryY=0.5;entryDx=0;entryDy=0;" edge="1" parent="1" source="F0yUkIuMt_mIAwkm-PFu-377" target="F0yUkIuMt_mIAwkm-PFu-384">
          <mxGeometry relative="1" as="geometry" />
        </mxCell>
        <mxCell id="F0yUkIuMt_mIAwkm-PFu-377" value="Standing Mini Cartwheel Over Box" style="whiteSpace=wrap;html=1;" vertex="1" parent="1">
          <mxGeometry x="1640" y="3770" width="120" height="60" as="geometry" />
        </mxCell>
        <mxCell id="F0yUkIuMt_mIAwkm-PFu-378" style="edgeStyle=orthogonalEdgeStyle;rounded=0;orthogonalLoop=1;jettySize=auto;html=1;entryX=0;entryY=0.5;entryDx=0;entryDy=0;" edge="1" parent="1" source="F0yUkIuMt_mIAwkm-PFu-379" target="F0yUkIuMt_mIAwkm-PFu-382">
          <mxGeometry relative="1" as="geometry" />
        </mxCell>
        <mxCell id="F0yUkIuMt_mIAwkm-PFu-379" value="Straddle Roll On Floor To Sit" style="whiteSpace=wrap;html=1;" vertex="1" parent="1">
          <mxGeometry x="1640" y="3300" width="120" height="60" as="geometry" />
        </mxCell>
        <mxCell id="F0yUkIuMt_mIAwkm-PFu-380" style="edgeStyle=orthogonalEdgeStyle;rounded=0;orthogonalLoop=1;jettySize=auto;html=1;entryX=0;entryY=0.5;entryDx=0;entryDy=0;" edge="1" parent="1" source="F0yUkIuMt_mIAwkm-PFu-381" target="F0yUkIuMt_mIAwkm-PFu-398">
          <mxGeometry relative="1" as="geometry" />
        </mxCell>
        <mxCell id="F0yUkIuMt_mIAwkm-PFu-381" value="Chasse" style="whiteSpace=wrap;html=1;" vertex="1" parent="1">
          <mxGeometry x="1920" y="3970" width="120" height="60" as="geometry" />
        </mxCell>
        <mxCell id="F0yUkIuMt_mIAwkm-PFu-382" value="Straddle Roll On Floor To Stand" style="whiteSpace=wrap;html=1;" vertex="1" parent="1">
          <mxGeometry x="2200" y="3300" width="120" height="60" as="geometry" />
        </mxCell>
        <mxCell id="F0yUkIuMt_mIAwkm-PFu-383" style="edgeStyle=orthogonalEdgeStyle;rounded=0;orthogonalLoop=1;jettySize=auto;html=1;entryX=0;entryY=0.5;entryDx=0;entryDy=0;" edge="1" parent="1" source="F0yUkIuMt_mIAwkm-PFu-384" target="F0yUkIuMt_mIAwkm-PFu-396">
          <mxGeometry relative="1" as="geometry" />
        </mxCell>
        <mxCell id="F0yUkIuMt_mIAwkm-PFu-384" value="From Stand, Cartwheel Over Box (Legs Horizontal)" style="whiteSpace=wrap;html=1;" vertex="1" parent="1">
          <mxGeometry x="1930" y="3770" width="120" height="60" as="geometry" />
        </mxCell>
        <mxCell id="F0yUkIuMt_mIAwkm-PFu-385" style="edgeStyle=orthogonalEdgeStyle;rounded=0;orthogonalLoop=1;jettySize=auto;html=1;entryX=0;entryY=0.5;entryDx=0;entryDy=0;" edge="1" parent="1" source="F0yUkIuMt_mIAwkm-PFu-386" target="F0yUkIuMt_mIAwkm-PFu-404">
          <mxGeometry relative="1" as="geometry" />
        </mxCell>
        <mxCell id="F0yUkIuMt_mIAwkm-PFu-386" value="Kick Towards Handstand On Floor" style="whiteSpace=wrap;html=1;" vertex="1" parent="1">
          <mxGeometry x="1920" y="3660" width="120" height="60" as="geometry" />
        </mxCell>
        <mxCell id="F0yUkIuMt_mIAwkm-PFu-387" style="edgeStyle=orthogonalEdgeStyle;rounded=0;orthogonalLoop=1;jettySize=auto;html=1;entryX=0;entryY=0.5;entryDx=0;entryDy=0;" edge="1" parent="1" source="F0yUkIuMt_mIAwkm-PFu-390" target="F0yUkIuMt_mIAwkm-PFu-400">
          <mxGeometry relative="1" as="geometry" />
        </mxCell>
        <mxCell id="F0yUkIuMt_mIAwkm-PFu-388" style="edgeStyle=orthogonalEdgeStyle;rounded=0;orthogonalLoop=1;jettySize=auto;html=1;entryX=0;entryY=0.5;entryDx=0;entryDy=0;" edge="1" parent="1" source="F0yUkIuMt_mIAwkm-PFu-390" target="F0yUkIuMt_mIAwkm-PFu-408">
          <mxGeometry relative="1" as="geometry" />
        </mxCell>
        <mxCell id="F0yUkIuMt_mIAwkm-PFu-389" style="edgeStyle=orthogonalEdgeStyle;rounded=0;orthogonalLoop=1;jettySize=auto;html=1;entryX=0;entryY=0.5;entryDx=0;entryDy=0;" edge="1" parent="1" source="F0yUkIuMt_mIAwkm-PFu-390" target="F0yUkIuMt_mIAwkm-PFu-441">
          <mxGeometry relative="1" as="geometry" />
        </mxCell>
        <mxCell id="F0yUkIuMt_mIAwkm-PFu-390" value="Walk Legs To Handstand Against Wall" style="whiteSpace=wrap;html=1;" vertex="1" parent="1">
          <mxGeometry x="2200" y="3540" width="120" height="60" as="geometry" />
        </mxCell>
        <mxCell id="F0yUkIuMt_mIAwkm-PFu-391" style="edgeStyle=orthogonalEdgeStyle;rounded=0;orthogonalLoop=1;jettySize=auto;html=1;entryX=0;entryY=0.5;entryDx=0;entryDy=0;" edge="1" parent="1" source="F0yUkIuMt_mIAwkm-PFu-392" target="F0yUkIuMt_mIAwkm-PFu-394">
          <mxGeometry relative="1" as="geometry" />
        </mxCell>
        <mxCell id="F0yUkIuMt_mIAwkm-PFu-392" value="Backward Roll Down Incline" style="whiteSpace=wrap;html=1;" vertex="1" parent="1">
          <mxGeometry x="1920" y="3380" width="120" height="60" as="geometry" />
        </mxCell>
        <mxCell id="F0yUkIuMt_mIAwkm-PFu-393" style="edgeStyle=orthogonalEdgeStyle;rounded=0;orthogonalLoop=1;jettySize=auto;html=1;entryX=0;entryY=0.5;entryDx=0;entryDy=0;" edge="1" parent="1" source="F0yUkIuMt_mIAwkm-PFu-394" target="F0yUkIuMt_mIAwkm-PFu-427">
          <mxGeometry relative="1" as="geometry" />
        </mxCell>
        <mxCell id="F0yUkIuMt_mIAwkm-PFu-394" value="Backward Roll With Assistance" style="whiteSpace=wrap;html=1;" vertex="1" parent="1">
          <mxGeometry x="2200" y="3380" width="120" height="60" as="geometry" />
        </mxCell>
        <mxCell id="F0yUkIuMt_mIAwkm-PFu-395" style="edgeStyle=orthogonalEdgeStyle;rounded=0;orthogonalLoop=1;jettySize=auto;html=1;entryX=0;entryY=0.5;entryDx=0;entryDy=0;" edge="1" parent="1" source="F0yUkIuMt_mIAwkm-PFu-396" target="F0yUkIuMt_mIAwkm-PFu-402">
          <mxGeometry relative="1" as="geometry" />
        </mxCell>
        <mxCell id="F0yUkIuMt_mIAwkm-PFu-396" value="45 Degree Carwheel On Floor" style="whiteSpace=wrap;html=1;" vertex="1" parent="1">
          <mxGeometry x="2200" y="3770" width="120" height="60" as="geometry" />
        </mxCell>
        <mxCell id="F0yUkIuMt_mIAwkm-PFu-397" style="edgeStyle=orthogonalEdgeStyle;rounded=0;orthogonalLoop=1;jettySize=auto;html=1;" edge="1" parent="1" source="F0yUkIuMt_mIAwkm-PFu-398" target="F0yUkIuMt_mIAwkm-PFu-436">
          <mxGeometry relative="1" as="geometry" />
        </mxCell>
        <mxCell id="F0yUkIuMt_mIAwkm-PFu-398" value="Hurdle From Stand&amp;nbsp;" style="whiteSpace=wrap;html=1;" vertex="1" parent="1">
          <mxGeometry x="2480" y="3970" width="120" height="60" as="geometry" />
        </mxCell>
        <mxCell id="F0yUkIuMt_mIAwkm-PFu-399" style="edgeStyle=orthogonalEdgeStyle;rounded=0;orthogonalLoop=1;jettySize=auto;html=1;entryX=0;entryY=0.5;entryDx=0;entryDy=0;" edge="1" parent="1" source="F0yUkIuMt_mIAwkm-PFu-400" target="F0yUkIuMt_mIAwkm-PFu-412">
          <mxGeometry relative="1" as="geometry" />
        </mxCell>
        <mxCell id="F0yUkIuMt_mIAwkm-PFu-400" value="Handstand Against Wall, Roll Forward To Stand" style="whiteSpace=wrap;html=1;" vertex="1" parent="1">
          <mxGeometry x="2480" y="3590" width="120" height="60" as="geometry" />
        </mxCell>
        <mxCell id="F0yUkIuMt_mIAwkm-PFu-401" style="edgeStyle=orthogonalEdgeStyle;rounded=0;orthogonalLoop=1;jettySize=auto;html=1;entryX=0;entryY=0.5;entryDx=0;entryDy=0;" edge="1" parent="1" source="F0yUkIuMt_mIAwkm-PFu-402" target="F0yUkIuMt_mIAwkm-PFu-425">
          <mxGeometry relative="1" as="geometry" />
        </mxCell>
        <mxCell id="F0yUkIuMt_mIAwkm-PFu-402" value="Vertical Cartwheel" style="whiteSpace=wrap;html=1;" vertex="1" parent="1">
          <mxGeometry x="2760" y="3770" width="120" height="60" as="geometry" />
        </mxCell>
        <mxCell id="F0yUkIuMt_mIAwkm-PFu-403" style="edgeStyle=orthogonalEdgeStyle;rounded=0;orthogonalLoop=1;jettySize=auto;html=1;entryX=0;entryY=0.5;entryDx=0;entryDy=0;" edge="1" parent="1" source="F0yUkIuMt_mIAwkm-PFu-404" target="F0yUkIuMt_mIAwkm-PFu-406">
          <mxGeometry relative="1" as="geometry" />
        </mxCell>
        <mxCell id="F0yUkIuMt_mIAwkm-PFu-404" value="Kick to 45 Degree Handstand , Step Down" style="whiteSpace=wrap;html=1;" vertex="1" parent="1">
          <mxGeometry x="2200" y="3660" width="120" height="60" as="geometry" />
        </mxCell>
        <mxCell id="F0yUkIuMt_mIAwkm-PFu-405" style="edgeStyle=orthogonalEdgeStyle;rounded=0;orthogonalLoop=1;jettySize=auto;html=1;entryX=0;entryY=0.5;entryDx=0;entryDy=0;" edge="1" parent="1" source="F0yUkIuMt_mIAwkm-PFu-406" target="F0yUkIuMt_mIAwkm-PFu-412">
          <mxGeometry relative="1" as="geometry" />
        </mxCell>
        <mxCell id="F0yUkIuMt_mIAwkm-PFu-406" value="Kick To Handstand Against Wall" style="whiteSpace=wrap;html=1;" vertex="1" parent="1">
          <mxGeometry x="2480" y="3660" width="120" height="60" as="geometry" />
        </mxCell>
        <mxCell id="F0yUkIuMt_mIAwkm-PFu-407" style="edgeStyle=orthogonalEdgeStyle;rounded=0;orthogonalLoop=1;jettySize=auto;html=1;entryX=0;entryY=0.5;entryDx=0;entryDy=0;" edge="1" parent="1" source="F0yUkIuMt_mIAwkm-PFu-408" target="F0yUkIuMt_mIAwkm-PFu-430">
          <mxGeometry relative="1" as="geometry" />
        </mxCell>
        <mxCell id="F0yUkIuMt_mIAwkm-PFu-408" value="Handstand Against Wall 10s" style="whiteSpace=wrap;html=1;" vertex="1" parent="1">
          <mxGeometry x="2480" y="3510" width="120" height="60" as="geometry" />
        </mxCell>
        <mxCell id="F0yUkIuMt_mIAwkm-PFu-409" style="edgeStyle=orthogonalEdgeStyle;rounded=0;orthogonalLoop=1;jettySize=auto;html=1;entryX=0;entryY=0.5;entryDx=0;entryDy=0;" edge="1" parent="1" source="F0yUkIuMt_mIAwkm-PFu-410" target="F0yUkIuMt_mIAwkm-PFu-392">
          <mxGeometry relative="1" as="geometry" />
        </mxCell>
        <mxCell id="F0yUkIuMt_mIAwkm-PFu-410" value="Backward Roll Off Low Box With Assistance" style="whiteSpace=wrap;html=1;" vertex="1" parent="1">
          <mxGeometry x="1640" y="3380" width="120" height="60" as="geometry" />
        </mxCell>
        <mxCell id="F0yUkIuMt_mIAwkm-PFu-411" style="edgeStyle=orthogonalEdgeStyle;rounded=0;orthogonalLoop=1;jettySize=auto;html=1;entryX=0;entryY=0.5;entryDx=0;entryDy=0;" edge="1" parent="1" source="F0yUkIuMt_mIAwkm-PFu-412" target="F0yUkIuMt_mIAwkm-PFu-433">
          <mxGeometry relative="1" as="geometry" />
        </mxCell>
        <mxCell id="F0yUkIuMt_mIAwkm-PFu-412" value="Kick To Handstand" style="whiteSpace=wrap;html=1;" vertex="1" parent="1">
          <mxGeometry x="2760" y="3630" width="120" height="60" as="geometry" />
        </mxCell>
        <mxCell id="F0yUkIuMt_mIAwkm-PFu-413" style="edgeStyle=orthogonalEdgeStyle;rounded=0;orthogonalLoop=1;jettySize=auto;html=1;entryX=0;entryY=0.5;entryDx=0;entryDy=0;" edge="1" parent="1" source="F0yUkIuMt_mIAwkm-PFu-414" target="F0yUkIuMt_mIAwkm-PFu-416">
          <mxGeometry relative="1" as="geometry" />
        </mxCell>
        <mxCell id="F0yUkIuMt_mIAwkm-PFu-414" value="Prone Fall From Knees" style="whiteSpace=wrap;html=1;" vertex="1" parent="1">
          <mxGeometry x="1640" y="3850" width="120" height="60" as="geometry" />
        </mxCell>
        <mxCell id="F0yUkIuMt_mIAwkm-PFu-415" style="edgeStyle=orthogonalEdgeStyle;rounded=0;orthogonalLoop=1;jettySize=auto;html=1;entryX=0;entryY=0.5;entryDx=0;entryDy=0;" edge="1" parent="1" source="F0yUkIuMt_mIAwkm-PFu-416" target="F0yUkIuMt_mIAwkm-PFu-417">
          <mxGeometry relative="1" as="geometry" />
        </mxCell>
        <mxCell id="F0yUkIuMt_mIAwkm-PFu-416" value="Prone Fall On To Mat" style="whiteSpace=wrap;html=1;" vertex="1" parent="1">
          <mxGeometry x="1930" y="3850" width="120" height="60" as="geometry" />
        </mxCell>
        <mxCell id="F0yUkIuMt_mIAwkm-PFu-417" value="Prone Fall To Floor" style="whiteSpace=wrap;html=1;" vertex="1" parent="1">
          <mxGeometry x="2760" y="3850" width="120" height="60" as="geometry" />
        </mxCell>
        <mxCell id="F0yUkIuMt_mIAwkm-PFu-418" style="edgeStyle=orthogonalEdgeStyle;rounded=0;orthogonalLoop=1;jettySize=auto;html=1;entryX=0;entryY=0.5;entryDx=0;entryDy=0;" edge="1" parent="1" source="F0yUkIuMt_mIAwkm-PFu-419" target="F0yUkIuMt_mIAwkm-PFu-421">
          <mxGeometry relative="1" as="geometry" />
        </mxCell>
        <mxCell id="F0yUkIuMt_mIAwkm-PFu-419" value="Tripod" style="whiteSpace=wrap;html=1;" vertex="1" parent="1">
          <mxGeometry x="1920" y="3230" width="120" height="60" as="geometry" />
        </mxCell>
        <mxCell id="F0yUkIuMt_mIAwkm-PFu-420" style="edgeStyle=orthogonalEdgeStyle;rounded=0;orthogonalLoop=1;jettySize=auto;html=1;entryX=0;entryY=0.5;entryDx=0;entryDy=0;" edge="1" parent="1" source="F0yUkIuMt_mIAwkm-PFu-421" target="F0yUkIuMt_mIAwkm-PFu-422">
          <mxGeometry relative="1" as="geometry" />
        </mxCell>
        <mxCell id="F0yUkIuMt_mIAwkm-PFu-421" value="Tucked Headstand" style="whiteSpace=wrap;html=1;" vertex="1" parent="1">
          <mxGeometry x="2480" y="3230" width="120" height="60" as="geometry" />
        </mxCell>
        <mxCell id="F0yUkIuMt_mIAwkm-PFu-422" value="Headstand" style="whiteSpace=wrap;html=1;" vertex="1" parent="1">
          <mxGeometry x="2760" y="3230" width="120" height="60" as="geometry" />
        </mxCell>
        <mxCell id="F0yUkIuMt_mIAwkm-PFu-423" style="edgeStyle=orthogonalEdgeStyle;rounded=0;orthogonalLoop=1;jettySize=auto;html=1;entryX=0;entryY=0.5;entryDx=0;entryDy=0;" edge="1" parent="1" source="F0yUkIuMt_mIAwkm-PFu-425" target="F0yUkIuMt_mIAwkm-PFu-439">
          <mxGeometry relative="1" as="geometry" />
        </mxCell>
        <mxCell id="F0yUkIuMt_mIAwkm-PFu-424" style="edgeStyle=orthogonalEdgeStyle;rounded=0;orthogonalLoop=1;jettySize=auto;html=1;entryX=0;entryY=0.5;entryDx=0;entryDy=0;" edge="1" parent="1" source="F0yUkIuMt_mIAwkm-PFu-425" target="F0yUkIuMt_mIAwkm-PFu-548">
          <mxGeometry relative="1" as="geometry" />
        </mxCell>
        <mxCell id="F0yUkIuMt_mIAwkm-PFu-425" value="Cartwheel On Line" style="whiteSpace=wrap;html=1;" vertex="1" parent="1">
          <mxGeometry x="3040" y="3770" width="120" height="60" as="geometry" />
        </mxCell>
        <mxCell id="F0yUkIuMt_mIAwkm-PFu-426" style="edgeStyle=orthogonalEdgeStyle;rounded=0;orthogonalLoop=1;jettySize=auto;html=1;entryX=0;entryY=0.5;entryDx=0;entryDy=0;" edge="1" parent="1" source="F0yUkIuMt_mIAwkm-PFu-427" target="F0yUkIuMt_mIAwkm-PFu-492">
          <mxGeometry relative="1" as="geometry" />
        </mxCell>
        <mxCell id="F0yUkIuMt_mIAwkm-PFu-427" value="Backward Roll Down Incline With Straight Arms" style="whiteSpace=wrap;html=1;" vertex="1" parent="1">
          <mxGeometry x="2760" y="3380" width="120" height="60" as="geometry" />
        </mxCell>
        <mxCell id="F0yUkIuMt_mIAwkm-PFu-428" value="Front Scale" style="whiteSpace=wrap;html=1;" vertex="1" parent="1">
          <mxGeometry x="3040" y="3890" width="120" height="60" as="geometry" />
        </mxCell>
        <mxCell id="F0yUkIuMt_mIAwkm-PFu-429" style="edgeStyle=orthogonalEdgeStyle;rounded=0;orthogonalLoop=1;jettySize=auto;html=1;entryX=0;entryY=0.5;entryDx=0;entryDy=0;" edge="1" parent="1" source="F0yUkIuMt_mIAwkm-PFu-430" target="F0yUkIuMt_mIAwkm-PFu-455">
          <mxGeometry relative="1" as="geometry">
            <Array as="points">
              <mxPoint x="3520" y="3540" />
              <mxPoint x="3520" y="3470" />
            </Array>
          </mxGeometry>
        </mxCell>
        <mxCell id="F0yUkIuMt_mIAwkm-PFu-430" value="Handstand Against Wall 30s" style="whiteSpace=wrap;html=1;" vertex="1" parent="1">
          <mxGeometry x="3040" y="3510" width="120" height="60" as="geometry" />
        </mxCell>
        <mxCell id="F0yUkIuMt_mIAwkm-PFu-431" style="edgeStyle=orthogonalEdgeStyle;rounded=0;orthogonalLoop=1;jettySize=auto;html=1;entryX=0;entryY=0.5;entryDx=0;entryDy=0;" edge="1" parent="1" source="F0yUkIuMt_mIAwkm-PFu-433" target="F0yUkIuMt_mIAwkm-PFu-445">
          <mxGeometry relative="1" as="geometry" />
        </mxCell>
        <mxCell id="F0yUkIuMt_mIAwkm-PFu-432" style="edgeStyle=orthogonalEdgeStyle;rounded=0;orthogonalLoop=1;jettySize=auto;html=1;entryX=0;entryY=0.5;entryDx=0;entryDy=0;" edge="1" parent="1" source="F0yUkIuMt_mIAwkm-PFu-433" target="F0yUkIuMt_mIAwkm-PFu-548">
          <mxGeometry relative="1" as="geometry" />
        </mxCell>
        <mxCell id="F0yUkIuMt_mIAwkm-PFu-433" value="Kick To Handstand, Forward Roll" style="whiteSpace=wrap;html=1;" vertex="1" parent="1">
          <mxGeometry x="3040" y="3630" width="120" height="60" as="geometry" />
        </mxCell>
        <mxCell id="F0yUkIuMt_mIAwkm-PFu-434" style="edgeStyle=orthogonalEdgeStyle;rounded=0;orthogonalLoop=1;jettySize=auto;html=1;entryX=0;entryY=0.5;entryDx=0;entryDy=0;" edge="1" parent="1" source="F0yUkIuMt_mIAwkm-PFu-436" target="F0yUkIuMt_mIAwkm-PFu-457">
          <mxGeometry relative="1" as="geometry" />
        </mxCell>
        <mxCell id="F0yUkIuMt_mIAwkm-PFu-435" style="edgeStyle=orthogonalEdgeStyle;rounded=0;orthogonalLoop=1;jettySize=auto;html=1;entryX=0;entryY=0.5;entryDx=0;entryDy=0;" edge="1" parent="1" source="F0yUkIuMt_mIAwkm-PFu-436" target="F0yUkIuMt_mIAwkm-PFu-459">
          <mxGeometry relative="1" as="geometry" />
        </mxCell>
        <mxCell id="F0yUkIuMt_mIAwkm-PFu-436" value="Hurdle From 3 Steps" style="whiteSpace=wrap;html=1;" vertex="1" parent="1">
          <mxGeometry x="3320" y="3970" width="120" height="60" as="geometry" />
        </mxCell>
        <mxCell id="F0yUkIuMt_mIAwkm-PFu-437" style="edgeStyle=orthogonalEdgeStyle;rounded=0;orthogonalLoop=1;jettySize=auto;html=1;entryX=0;entryY=0.5;entryDx=0;entryDy=0;" edge="1" parent="1" source="F0yUkIuMt_mIAwkm-PFu-439" target="F0yUkIuMt_mIAwkm-PFu-450">
          <mxGeometry relative="1" as="geometry" />
        </mxCell>
        <mxCell id="F0yUkIuMt_mIAwkm-PFu-438" style="edgeStyle=orthogonalEdgeStyle;rounded=0;orthogonalLoop=1;jettySize=auto;html=1;entryX=0;entryY=0.5;entryDx=0;entryDy=0;" edge="1" parent="1" source="F0yUkIuMt_mIAwkm-PFu-439" target="F0yUkIuMt_mIAwkm-PFu-457">
          <mxGeometry relative="1" as="geometry" />
        </mxCell>
        <mxCell id="F0yUkIuMt_mIAwkm-PFu-439" value="Chasse To Cartwheel" style="whiteSpace=wrap;html=1;" vertex="1" parent="1">
          <mxGeometry x="3320" y="3770" width="120" height="60" as="geometry" />
        </mxCell>
        <mxCell id="F0yUkIuMt_mIAwkm-PFu-440" style="edgeStyle=orthogonalEdgeStyle;rounded=0;orthogonalLoop=1;jettySize=auto;html=1;entryX=0;entryY=0.5;entryDx=0;entryDy=0;" edge="1" parent="1" source="F0yUkIuMt_mIAwkm-PFu-441" target="F0yUkIuMt_mIAwkm-PFu-448">
          <mxGeometry relative="1" as="geometry" />
        </mxCell>
        <mxCell id="F0yUkIuMt_mIAwkm-PFu-441" value="Bridge (Bent Arms and Knees)" style="whiteSpace=wrap;html=1;" vertex="1" parent="1">
          <mxGeometry x="2480" y="3440" width="120" height="60" as="geometry" />
        </mxCell>
        <mxCell id="F0yUkIuMt_mIAwkm-PFu-442" style="edgeStyle=orthogonalEdgeStyle;rounded=0;orthogonalLoop=1;jettySize=auto;html=1;entryX=0;entryY=0.5;entryDx=0;entryDy=0;" edge="1" parent="1" source="F0yUkIuMt_mIAwkm-PFu-445" target="F0yUkIuMt_mIAwkm-PFu-455">
          <mxGeometry relative="1" as="geometry" />
        </mxCell>
        <mxCell id="F0yUkIuMt_mIAwkm-PFu-443" style="edgeStyle=orthogonalEdgeStyle;rounded=0;orthogonalLoop=1;jettySize=auto;html=1;entryX=0;entryY=0.5;entryDx=0;entryDy=0;" edge="1" parent="1" source="F0yUkIuMt_mIAwkm-PFu-445" target="F0yUkIuMt_mIAwkm-PFu-459">
          <mxGeometry relative="1" as="geometry" />
        </mxCell>
        <mxCell id="F0yUkIuMt_mIAwkm-PFu-444" style="edgeStyle=orthogonalEdgeStyle;rounded=0;orthogonalLoop=1;jettySize=auto;html=1;entryX=0;entryY=0.5;entryDx=0;entryDy=0;" edge="1" parent="1" source="F0yUkIuMt_mIAwkm-PFu-445" target="F0yUkIuMt_mIAwkm-PFu-550">
          <mxGeometry relative="1" as="geometry">
            <Array as="points">
              <mxPoint x="3520" y="3660" />
              <mxPoint x="3520" y="3400" />
            </Array>
          </mxGeometry>
        </mxCell>
        <mxCell id="F0yUkIuMt_mIAwkm-PFu-445" value="Kick To Handstand, Momentary Hold, Forward Roll" style="whiteSpace=wrap;html=1;" vertex="1" parent="1">
          <mxGeometry x="3320" y="3630" width="120" height="60" as="geometry" />
        </mxCell>
        <mxCell id="F0yUkIuMt_mIAwkm-PFu-446" style="edgeStyle=orthogonalEdgeStyle;rounded=0;orthogonalLoop=1;jettySize=auto;html=1;entryX=0;entryY=0.5;entryDx=0;entryDy=0;" edge="1" parent="1" source="F0yUkIuMt_mIAwkm-PFu-448" target="F0yUkIuMt_mIAwkm-PFu-453">
          <mxGeometry relative="1" as="geometry" />
        </mxCell>
        <mxCell id="F0yUkIuMt_mIAwkm-PFu-447" style="edgeStyle=orthogonalEdgeStyle;rounded=0;orthogonalLoop=1;jettySize=auto;html=1;entryX=0;entryY=0.5;entryDx=0;entryDy=0;" edge="1" parent="1" source="F0yUkIuMt_mIAwkm-PFu-448" target="F0yUkIuMt_mIAwkm-PFu-473">
          <mxGeometry relative="1" as="geometry">
            <Array as="points">
              <mxPoint x="3380" y="3330" />
            </Array>
          </mxGeometry>
        </mxCell>
        <mxCell id="F0yUkIuMt_mIAwkm-PFu-448" value="Bridge With Straight Arms and Legs Elevated" style="whiteSpace=wrap;html=1;" vertex="1" parent="1">
          <mxGeometry x="3320" y="3440" width="120" height="60" as="geometry" />
        </mxCell>
        <mxCell id="F0yUkIuMt_mIAwkm-PFu-449" style="edgeStyle=orthogonalEdgeStyle;rounded=0;orthogonalLoop=1;jettySize=auto;html=1;entryX=0;entryY=0.5;entryDx=0;entryDy=0;" edge="1" parent="1" source="F0yUkIuMt_mIAwkm-PFu-450" target="F0yUkIuMt_mIAwkm-PFu-469">
          <mxGeometry relative="1" as="geometry" />
        </mxCell>
        <mxCell id="F0yUkIuMt_mIAwkm-PFu-450" value="Roundoff From Knee Height Onto Mat" style="whiteSpace=wrap;html=1;" vertex="1" parent="1">
          <mxGeometry x="3600" y="3770" width="120" height="60" as="geometry" />
        </mxCell>
        <mxCell id="F0yUkIuMt_mIAwkm-PFu-451" style="edgeStyle=orthogonalEdgeStyle;rounded=0;orthogonalLoop=1;jettySize=auto;html=1;entryX=0;entryY=0.5;entryDx=0;entryDy=0;" edge="1" parent="1" source="F0yUkIuMt_mIAwkm-PFu-453" target="F0yUkIuMt_mIAwkm-PFu-479">
          <mxGeometry relative="1" as="geometry" />
        </mxCell>
        <mxCell id="F0yUkIuMt_mIAwkm-PFu-452" style="edgeStyle=orthogonalEdgeStyle;rounded=0;orthogonalLoop=1;jettySize=auto;html=1;entryX=0;entryY=0.5;entryDx=0;entryDy=0;" edge="1" parent="1" source="F0yUkIuMt_mIAwkm-PFu-453" target="F0yUkIuMt_mIAwkm-PFu-482">
          <mxGeometry relative="1" as="geometry">
            <Array as="points">
              <mxPoint x="3830" y="3660" />
              <mxPoint x="3830" y="3790" />
            </Array>
          </mxGeometry>
        </mxCell>
        <mxCell id="F0yUkIuMt_mIAwkm-PFu-453" value="Handstand On Knee Height Box With Wall, Snap Down To Feet" style="whiteSpace=wrap;html=1;" vertex="1" parent="1">
          <mxGeometry x="3600" y="3630" width="120" height="60" as="geometry" />
        </mxCell>
        <mxCell id="F0yUkIuMt_mIAwkm-PFu-454" style="edgeStyle=orthogonalEdgeStyle;rounded=0;orthogonalLoop=1;jettySize=auto;html=1;entryX=0;entryY=0.5;entryDx=0;entryDy=0;" edge="1" parent="1" source="F0yUkIuMt_mIAwkm-PFu-455" target="F0yUkIuMt_mIAwkm-PFu-475">
          <mxGeometry relative="1" as="geometry" />
        </mxCell>
        <mxCell id="F0yUkIuMt_mIAwkm-PFu-455" value="Handstand Pop" style="whiteSpace=wrap;html=1;" vertex="1" parent="1">
          <mxGeometry x="3600" y="3440" width="120" height="60" as="geometry" />
        </mxCell>
        <mxCell id="F0yUkIuMt_mIAwkm-PFu-456" style="edgeStyle=orthogonalEdgeStyle;rounded=0;orthogonalLoop=1;jettySize=auto;html=1;entryX=0;entryY=0.5;entryDx=0;entryDy=0;" edge="1" parent="1" source="F0yUkIuMt_mIAwkm-PFu-457" target="F0yUkIuMt_mIAwkm-PFu-469">
          <mxGeometry relative="1" as="geometry" />
        </mxCell>
        <mxCell id="F0yUkIuMt_mIAwkm-PFu-457" value="Hurdle To Cardwheel" style="whiteSpace=wrap;html=1;" vertex="1" parent="1">
          <mxGeometry x="3600" y="3970" width="120" height="60" as="geometry" />
        </mxCell>
        <mxCell id="F0yUkIuMt_mIAwkm-PFu-458" style="edgeStyle=orthogonalEdgeStyle;rounded=0;orthogonalLoop=1;jettySize=auto;html=1;entryX=0;entryY=0.5;entryDx=0;entryDy=0;" edge="1" parent="1" source="F0yUkIuMt_mIAwkm-PFu-459" target="F0yUkIuMt_mIAwkm-PFu-461">
          <mxGeometry relative="1" as="geometry" />
        </mxCell>
        <mxCell id="F0yUkIuMt_mIAwkm-PFu-459" value="Hurdle and Rebound To Straight Jump&amp;nbsp;" style="whiteSpace=wrap;html=1;" vertex="1" parent="1">
          <mxGeometry x="3600" y="3540" width="120" height="60" as="geometry" />
        </mxCell>
        <mxCell id="F0yUkIuMt_mIAwkm-PFu-460" style="edgeStyle=orthogonalEdgeStyle;rounded=0;orthogonalLoop=1;jettySize=auto;html=1;entryX=0;entryY=0.5;entryDx=0;entryDy=0;" edge="1" parent="1" source="F0yUkIuMt_mIAwkm-PFu-461" target="F0yUkIuMt_mIAwkm-PFu-463">
          <mxGeometry relative="1" as="geometry" />
        </mxCell>
        <mxCell id="F0yUkIuMt_mIAwkm-PFu-461" value="Hurdle And Rebound To Open Shape With Assistance" style="whiteSpace=wrap;html=1;" vertex="1" parent="1">
          <mxGeometry x="3880" y="3540" width="120" height="60" as="geometry" />
        </mxCell>
        <mxCell id="F0yUkIuMt_mIAwkm-PFu-462" style="edgeStyle=orthogonalEdgeStyle;rounded=0;orthogonalLoop=1;jettySize=auto;html=1;entryX=0;entryY=0.5;entryDx=0;entryDy=0;" edge="1" parent="1" source="F0yUkIuMt_mIAwkm-PFu-463" target="F0yUkIuMt_mIAwkm-PFu-465">
          <mxGeometry relative="1" as="geometry" />
        </mxCell>
        <mxCell id="F0yUkIuMt_mIAwkm-PFu-463" value="Hurdle And Rebound To Open Shape, Lower to Handstand And Roll" style="whiteSpace=wrap;html=1;" vertex="1" parent="1">
          <mxGeometry x="4160" y="3540" width="120" height="60" as="geometry" />
        </mxCell>
        <mxCell id="F0yUkIuMt_mIAwkm-PFu-464" style="edgeStyle=orthogonalEdgeStyle;rounded=0;orthogonalLoop=1;jettySize=auto;html=1;entryX=0;entryY=0.5;entryDx=0;entryDy=0;" edge="1" parent="1" source="F0yUkIuMt_mIAwkm-PFu-465" target="F0yUkIuMt_mIAwkm-PFu-467">
          <mxGeometry relative="1" as="geometry" />
        </mxCell>
        <mxCell id="F0yUkIuMt_mIAwkm-PFu-465" value="Dive Roll With Assistance" style="whiteSpace=wrap;html=1;" vertex="1" parent="1">
          <mxGeometry x="4440" y="3540" width="120" height="60" as="geometry" />
        </mxCell>
        <mxCell id="F0yUkIuMt_mIAwkm-PFu-466" style="edgeStyle=orthogonalEdgeStyle;rounded=0;orthogonalLoop=1;jettySize=auto;html=1;entryX=0;entryY=0.5;entryDx=0;entryDy=0;" edge="1" parent="1" source="F0yUkIuMt_mIAwkm-PFu-467" target="F0yUkIuMt_mIAwkm-PFu-490">
          <mxGeometry relative="1" as="geometry" />
        </mxCell>
        <mxCell id="F0yUkIuMt_mIAwkm-PFu-467" value="Dive Roll On To Mat" style="whiteSpace=wrap;html=1;" vertex="1" parent="1">
          <mxGeometry x="4720" y="3540" width="120" height="60" as="geometry" />
        </mxCell>
        <mxCell id="F0yUkIuMt_mIAwkm-PFu-468" style="edgeStyle=orthogonalEdgeStyle;rounded=0;orthogonalLoop=1;jettySize=auto;html=1;entryX=0;entryY=0.5;entryDx=0;entryDy=0;" edge="1" parent="1" source="F0yUkIuMt_mIAwkm-PFu-469" target="F0yUkIuMt_mIAwkm-PFu-471">
          <mxGeometry relative="1" as="geometry" />
        </mxCell>
        <mxCell id="F0yUkIuMt_mIAwkm-PFu-469" value="Hurdle To Roundoff" style="whiteSpace=wrap;html=1;" vertex="1" parent="1">
          <mxGeometry x="3880" y="3870" width="120" height="60" as="geometry" />
        </mxCell>
        <mxCell id="F0yUkIuMt_mIAwkm-PFu-470" style="edgeStyle=orthogonalEdgeStyle;rounded=0;orthogonalLoop=1;jettySize=auto;html=1;entryX=0;entryY=0.5;entryDx=0;entryDy=0;" edge="1" parent="1" source="F0yUkIuMt_mIAwkm-PFu-471" target="F0yUkIuMt_mIAwkm-PFu-482">
          <mxGeometry relative="1" as="geometry" />
        </mxCell>
        <mxCell id="F0yUkIuMt_mIAwkm-PFu-471" value="3 Steps, Hurdle to Roundoff" style="whiteSpace=wrap;html=1;" vertex="1" parent="1">
          <mxGeometry x="4160" y="3870" width="120" height="60" as="geometry" />
        </mxCell>
        <mxCell id="F0yUkIuMt_mIAwkm-PFu-472" style="edgeStyle=orthogonalEdgeStyle;rounded=0;orthogonalLoop=1;jettySize=auto;html=1;entryX=0;entryY=0.5;entryDx=0;entryDy=0;" edge="1" parent="1" source="F0yUkIuMt_mIAwkm-PFu-473" target="F0yUkIuMt_mIAwkm-PFu-484">
          <mxGeometry relative="1" as="geometry" />
        </mxCell>
        <mxCell id="F0yUkIuMt_mIAwkm-PFu-473" value="From Stand, Reach Backwards To Wall, Push From Wall, Return To Stand" style="whiteSpace=wrap;html=1;" vertex="1" parent="1">
          <mxGeometry x="3880" y="3300" width="120" height="60" as="geometry" />
        </mxCell>
        <mxCell id="F0yUkIuMt_mIAwkm-PFu-474" style="edgeStyle=orthogonalEdgeStyle;rounded=0;orthogonalLoop=1;jettySize=auto;html=1;entryX=0;entryY=0.5;entryDx=0;entryDy=0;" edge="1" parent="1" source="F0yUkIuMt_mIAwkm-PFu-475" target="F0yUkIuMt_mIAwkm-PFu-477">
          <mxGeometry relative="1" as="geometry" />
        </mxCell>
        <mxCell id="F0yUkIuMt_mIAwkm-PFu-475" value="Powerful Kick To Handstand Against Wall (Legs Remain Separated)" style="whiteSpace=wrap;html=1;" vertex="1" parent="1">
          <mxGeometry x="3880" y="3440" width="120" height="60" as="geometry" />
        </mxCell>
        <mxCell id="F0yUkIuMt_mIAwkm-PFu-476" style="edgeStyle=orthogonalEdgeStyle;rounded=0;orthogonalLoop=1;jettySize=auto;html=1;entryX=0;entryY=0.5;entryDx=0;entryDy=0;" edge="1" parent="1" source="F0yUkIuMt_mIAwkm-PFu-477" target="F0yUkIuMt_mIAwkm-PFu-508">
          <mxGeometry relative="1" as="geometry" />
        </mxCell>
        <mxCell id="F0yUkIuMt_mIAwkm-PFu-477" value="Hurdle, Front Handspring From Knee Height Surface With Assistance" style="whiteSpace=wrap;html=1;" vertex="1" parent="1">
          <mxGeometry x="4160" y="3440" width="120" height="60" as="geometry" />
        </mxCell>
        <mxCell id="F0yUkIuMt_mIAwkm-PFu-478" style="edgeStyle=orthogonalEdgeStyle;rounded=0;orthogonalLoop=1;jettySize=auto;html=1;entryX=0;entryY=0.5;entryDx=0;entryDy=0;" edge="1" parent="1" source="F0yUkIuMt_mIAwkm-PFu-479" target="F0yUkIuMt_mIAwkm-PFu-486">
          <mxGeometry relative="1" as="geometry" />
        </mxCell>
        <mxCell id="F0yUkIuMt_mIAwkm-PFu-479" value="From Stand, Bend Knees and Jump Backwards To Back On Mat" style="whiteSpace=wrap;html=1;" vertex="1" parent="1">
          <mxGeometry x="3880" y="3630" width="120" height="60" as="geometry" />
        </mxCell>
        <mxCell id="F0yUkIuMt_mIAwkm-PFu-480" style="edgeStyle=orthogonalEdgeStyle;rounded=0;orthogonalLoop=1;jettySize=auto;html=1;entryX=0;entryY=0.5;entryDx=0;entryDy=0;" edge="1" parent="1" source="F0yUkIuMt_mIAwkm-PFu-482" target="F0yUkIuMt_mIAwkm-PFu-515">
          <mxGeometry relative="1" as="geometry">
            <Array as="points">
              <mxPoint x="4890" y="3790" />
              <mxPoint x="4890" y="3660" />
            </Array>
          </mxGeometry>
        </mxCell>
        <mxCell id="F0yUkIuMt_mIAwkm-PFu-481" style="edgeStyle=orthogonalEdgeStyle;rounded=0;orthogonalLoop=1;jettySize=auto;html=1;entryX=0;entryY=0.5;entryDx=0;entryDy=0;" edge="1" parent="1" source="F0yUkIuMt_mIAwkm-PFu-482" target="F0yUkIuMt_mIAwkm-PFu-543">
          <mxGeometry relative="1" as="geometry" />
        </mxCell>
        <mxCell id="F0yUkIuMt_mIAwkm-PFu-482" value="Hurdle, Roundoff, Jump To Flat Back On Mat" style="whiteSpace=wrap;html=1;" vertex="1" parent="1">
          <mxGeometry x="4440" y="3760" width="120" height="60" as="geometry" />
        </mxCell>
        <mxCell id="F0yUkIuMt_mIAwkm-PFu-483" style="edgeStyle=orthogonalEdgeStyle;rounded=0;orthogonalLoop=1;jettySize=auto;html=1;" edge="1" parent="1" source="F0yUkIuMt_mIAwkm-PFu-484" target="F0yUkIuMt_mIAwkm-PFu-547">
          <mxGeometry relative="1" as="geometry" />
        </mxCell>
        <mxCell id="F0yUkIuMt_mIAwkm-PFu-484" value="Tik-Tok On Mat" style="whiteSpace=wrap;html=1;" vertex="1" parent="1">
          <mxGeometry x="4160" y="3300" width="120" height="60" as="geometry" />
        </mxCell>
        <mxCell id="F0yUkIuMt_mIAwkm-PFu-485" style="edgeStyle=orthogonalEdgeStyle;rounded=0;orthogonalLoop=1;jettySize=auto;html=1;entryX=0;entryY=0.5;entryDx=0;entryDy=0;" edge="1" parent="1" source="F0yUkIuMt_mIAwkm-PFu-486" target="F0yUkIuMt_mIAwkm-PFu-488">
          <mxGeometry relative="1" as="geometry" />
        </mxCell>
        <mxCell id="F0yUkIuMt_mIAwkm-PFu-486" value="Jump Backwards To Handstand With Assistance" style="whiteSpace=wrap;html=1;" vertex="1" parent="1">
          <mxGeometry x="4160" y="3630" width="120" height="60" as="geometry" />
        </mxCell>
        <mxCell id="F0yUkIuMt_mIAwkm-PFu-487" style="edgeStyle=orthogonalEdgeStyle;rounded=0;orthogonalLoop=1;jettySize=auto;html=1;entryX=0;entryY=0.5;entryDx=0;entryDy=0;" edge="1" parent="1" source="F0yUkIuMt_mIAwkm-PFu-488" target="F0yUkIuMt_mIAwkm-PFu-513">
          <mxGeometry relative="1" as="geometry" />
        </mxCell>
        <mxCell id="F0yUkIuMt_mIAwkm-PFu-488" value="Back Handspring Down Incline With Assistance" style="whiteSpace=wrap;html=1;" vertex="1" parent="1">
          <mxGeometry x="4440" y="3630" width="120" height="60" as="geometry" />
        </mxCell>
        <mxCell id="F0yUkIuMt_mIAwkm-PFu-489" style="edgeStyle=orthogonalEdgeStyle;rounded=0;orthogonalLoop=1;jettySize=auto;html=1;entryX=0;entryY=0.5;entryDx=0;entryDy=0;" edge="1" parent="1" source="F0yUkIuMt_mIAwkm-PFu-490" target="F0yUkIuMt_mIAwkm-PFu-544">
          <mxGeometry relative="1" as="geometry">
            <mxPoint x="5560" y="3570" as="targetPoint" />
          </mxGeometry>
        </mxCell>
        <mxCell id="F0yUkIuMt_mIAwkm-PFu-490" value="Dive Roll" style="whiteSpace=wrap;html=1;" vertex="1" parent="1">
          <mxGeometry x="5000" y="3540" width="120" height="60" as="geometry" />
        </mxCell>
        <mxCell id="F0yUkIuMt_mIAwkm-PFu-491" style="edgeStyle=orthogonalEdgeStyle;rounded=0;orthogonalLoop=1;jettySize=auto;html=1;entryX=0;entryY=0.5;entryDx=0;entryDy=0;" edge="1" parent="1" source="F0yUkIuMt_mIAwkm-PFu-492" target="F0yUkIuMt_mIAwkm-PFu-494">
          <mxGeometry relative="1" as="geometry" />
        </mxCell>
        <mxCell id="F0yUkIuMt_mIAwkm-PFu-492" value="Back Roll&amp;nbsp;" style="whiteSpace=wrap;html=1;" vertex="1" parent="1">
          <mxGeometry x="3040" y="3380" width="120" height="60" as="geometry" />
        </mxCell>
        <mxCell id="F0yUkIuMt_mIAwkm-PFu-493" style="edgeStyle=orthogonalEdgeStyle;rounded=0;orthogonalLoop=1;jettySize=auto;html=1;entryX=0;entryY=0.5;entryDx=0;entryDy=0;" edge="1" parent="1" source="F0yUkIuMt_mIAwkm-PFu-494" target="F0yUkIuMt_mIAwkm-PFu-498">
          <mxGeometry relative="1" as="geometry" />
        </mxCell>
        <mxCell id="F0yUkIuMt_mIAwkm-PFu-494" value="Back Roll With Straight Arms" style="whiteSpace=wrap;html=1;" vertex="1" parent="1">
          <mxGeometry x="3320" y="3220" width="120" height="60" as="geometry" />
        </mxCell>
        <mxCell id="F0yUkIuMt_mIAwkm-PFu-495" style="edgeStyle=orthogonalEdgeStyle;rounded=0;orthogonalLoop=1;jettySize=auto;html=1;entryX=0;entryY=0.5;entryDx=0;entryDy=0;" edge="1" parent="1" source="F0yUkIuMt_mIAwkm-PFu-496" target="F0yUkIuMt_mIAwkm-PFu-500">
          <mxGeometry relative="1" as="geometry" />
        </mxCell>
        <mxCell id="F0yUkIuMt_mIAwkm-PFu-496" value="Back Extension" style="whiteSpace=wrap;html=1;" vertex="1" parent="1">
          <mxGeometry x="3880" y="3220" width="120" height="60" as="geometry" />
        </mxCell>
        <mxCell id="F0yUkIuMt_mIAwkm-PFu-497" style="edgeStyle=orthogonalEdgeStyle;rounded=0;orthogonalLoop=1;jettySize=auto;html=1;entryX=0;entryY=0.5;entryDx=0;entryDy=0;" edge="1" parent="1" source="F0yUkIuMt_mIAwkm-PFu-498" target="F0yUkIuMt_mIAwkm-PFu-496">
          <mxGeometry relative="1" as="geometry" />
        </mxCell>
        <mxCell id="F0yUkIuMt_mIAwkm-PFu-498" value="Back Extension To 45 Degrees" style="whiteSpace=wrap;html=1;" vertex="1" parent="1">
          <mxGeometry x="3600" y="3220" width="120" height="60" as="geometry" />
        </mxCell>
        <mxCell id="F0yUkIuMt_mIAwkm-PFu-499" style="edgeStyle=orthogonalEdgeStyle;rounded=0;orthogonalLoop=1;jettySize=auto;html=1;entryX=0;entryY=0.5;entryDx=0;entryDy=0;" edge="1" parent="1" source="F0yUkIuMt_mIAwkm-PFu-500" target="F0yUkIuMt_mIAwkm-PFu-501">
          <mxGeometry relative="1" as="geometry" />
        </mxCell>
        <mxCell id="F0yUkIuMt_mIAwkm-PFu-500" value="Straight Arm Back Extension To 45 Degrees" style="whiteSpace=wrap;html=1;" vertex="1" parent="1">
          <mxGeometry x="4440" y="3220" width="120" height="60" as="geometry" />
        </mxCell>
        <mxCell id="F0yUkIuMt_mIAwkm-PFu-501" value="Straight Arm Back Extension" style="whiteSpace=wrap;html=1;" vertex="1" parent="1">
          <mxGeometry x="5000" y="3220" width="120" height="60" as="geometry" />
        </mxCell>
        <mxCell id="F0yUkIuMt_mIAwkm-PFu-502" style="edgeStyle=orthogonalEdgeStyle;rounded=0;orthogonalLoop=1;jettySize=auto;html=1;entryX=0;entryY=0.5;entryDx=0;entryDy=0;" edge="1" parent="1" source="F0yUkIuMt_mIAwkm-PFu-504" target="F0yUkIuMt_mIAwkm-PFu-542">
          <mxGeometry relative="1" as="geometry" />
        </mxCell>
        <mxCell id="F0yUkIuMt_mIAwkm-PFu-503" style="edgeStyle=orthogonalEdgeStyle;rounded=0;orthogonalLoop=1;jettySize=auto;html=1;entryX=0;entryY=0.5;entryDx=0;entryDy=0;" edge="1" parent="1" source="F0yUkIuMt_mIAwkm-PFu-504" target="F0yUkIuMt_mIAwkm-PFu-541">
          <mxGeometry relative="1" as="geometry">
            <Array as="points">
              <mxPoint x="5170" y="3330" />
              <mxPoint x="5170" y="3260" />
            </Array>
          </mxGeometry>
        </mxCell>
        <mxCell id="F0yUkIuMt_mIAwkm-PFu-504" value="Forward Walkover With Assistance" style="whiteSpace=wrap;html=1;" vertex="1" parent="1">
          <mxGeometry x="5000" y="3300" width="120" height="60" as="geometry" />
        </mxCell>
        <mxCell id="F0yUkIuMt_mIAwkm-PFu-505" style="edgeStyle=orthogonalEdgeStyle;rounded=0;orthogonalLoop=1;jettySize=auto;html=1;entryX=0;entryY=0.5;entryDx=0;entryDy=0;" edge="1" parent="1" source="F0yUkIuMt_mIAwkm-PFu-506" target="F0yUkIuMt_mIAwkm-PFu-504">
          <mxGeometry relative="1" as="geometry" />
        </mxCell>
        <mxCell id="F0yUkIuMt_mIAwkm-PFu-506" value="Backward Walkover With Assistance" style="whiteSpace=wrap;html=1;" vertex="1" parent="1">
          <mxGeometry x="4720" y="3300" width="120" height="60" as="geometry" />
        </mxCell>
        <mxCell id="F0yUkIuMt_mIAwkm-PFu-507" style="edgeStyle=orthogonalEdgeStyle;rounded=0;orthogonalLoop=1;jettySize=auto;html=1;entryX=0;entryY=0.5;entryDx=0;entryDy=0;" edge="1" parent="1" source="F0yUkIuMt_mIAwkm-PFu-508" target="F0yUkIuMt_mIAwkm-PFu-510">
          <mxGeometry relative="1" as="geometry" />
        </mxCell>
        <mxCell id="F0yUkIuMt_mIAwkm-PFu-508" value="Hurdle, Front Handspring From Knee Height Surface&amp;nbsp;" style="whiteSpace=wrap;html=1;" vertex="1" parent="1">
          <mxGeometry x="4440" y="3440" width="120" height="60" as="geometry" />
        </mxCell>
        <mxCell id="F0yUkIuMt_mIAwkm-PFu-509" style="edgeStyle=orthogonalEdgeStyle;rounded=0;orthogonalLoop=1;jettySize=auto;html=1;entryX=0;entryY=0.5;entryDx=0;entryDy=0;" edge="1" parent="1" source="F0yUkIuMt_mIAwkm-PFu-510" target="F0yUkIuMt_mIAwkm-PFu-511">
          <mxGeometry relative="1" as="geometry" />
        </mxCell>
        <mxCell id="F0yUkIuMt_mIAwkm-PFu-510" value="Front Handspring Using Mat Or With Assistance" style="whiteSpace=wrap;html=1;" vertex="1" parent="1">
          <mxGeometry x="5000" y="3440" width="120" height="60" as="geometry" />
        </mxCell>
        <mxCell id="F0yUkIuMt_mIAwkm-PFu-511" value="Front Handspring" style="whiteSpace=wrap;html=1;" vertex="1" parent="1">
          <mxGeometry x="5560" y="3440" width="120" height="60" as="geometry" />
        </mxCell>
        <mxCell id="F0yUkIuMt_mIAwkm-PFu-512" style="edgeStyle=orthogonalEdgeStyle;rounded=0;orthogonalLoop=1;jettySize=auto;html=1;" edge="1" parent="1" source="F0yUkIuMt_mIAwkm-PFu-513" target="F0yUkIuMt_mIAwkm-PFu-515">
          <mxGeometry relative="1" as="geometry" />
        </mxCell>
        <mxCell id="F0yUkIuMt_mIAwkm-PFu-513" value="Back Handspring Down Incline" style="whiteSpace=wrap;html=1;" vertex="1" parent="1">
          <mxGeometry x="4720" y="3630" width="120" height="60" as="geometry" />
        </mxCell>
        <mxCell id="F0yUkIuMt_mIAwkm-PFu-514" style="edgeStyle=orthogonalEdgeStyle;rounded=0;orthogonalLoop=1;jettySize=auto;html=1;" edge="1" parent="1" source="F0yUkIuMt_mIAwkm-PFu-515" target="F0yUkIuMt_mIAwkm-PFu-516">
          <mxGeometry relative="1" as="geometry" />
        </mxCell>
        <mxCell id="F0yUkIuMt_mIAwkm-PFu-515" value="Roundoff, Back Handspring With Assistance" style="whiteSpace=wrap;html=1;" vertex="1" parent="1">
          <mxGeometry x="5000" y="3630" width="120" height="60" as="geometry" />
        </mxCell>
        <mxCell id="F0yUkIuMt_mIAwkm-PFu-516" value="Roundoff, Back Handspring" style="whiteSpace=wrap;html=1;" vertex="1" parent="1">
          <mxGeometry x="5560" y="3630" width="120" height="60" as="geometry" />
        </mxCell>
        <mxCell id="F0yUkIuMt_mIAwkm-PFu-517" style="edgeStyle=orthogonalEdgeStyle;rounded=0;orthogonalLoop=1;jettySize=auto;html=1;entryX=0;entryY=0.5;entryDx=0;entryDy=0;" edge="1" parent="1" source="F0yUkIuMt_mIAwkm-PFu-518" target="F0yUkIuMt_mIAwkm-PFu-532">
          <mxGeometry relative="1" as="geometry" />
        </mxCell>
        <mxCell id="F0yUkIuMt_mIAwkm-PFu-518" value="Wheelbarrow Walk Backwards" style="whiteSpace=wrap;html=1;" vertex="1" parent="1">
          <mxGeometry x="1640" y="4340" width="120" height="60" as="geometry" />
        </mxCell>
        <mxCell id="F0yUkIuMt_mIAwkm-PFu-519" style="edgeStyle=orthogonalEdgeStyle;rounded=0;orthogonalLoop=1;jettySize=auto;html=1;entryX=0;entryY=0.5;entryDx=0;entryDy=0;" edge="1" parent="1" source="F0yUkIuMt_mIAwkm-PFu-520" target="F0yUkIuMt_mIAwkm-PFu-534">
          <mxGeometry relative="1" as="geometry" />
        </mxCell>
        <mxCell id="F0yUkIuMt_mIAwkm-PFu-520" value="Rear Support On Handles" style="whiteSpace=wrap;html=1;" vertex="1" parent="1">
          <mxGeometry x="1640" y="4520" width="120" height="60" as="geometry" />
        </mxCell>
        <mxCell id="F0yUkIuMt_mIAwkm-PFu-521" style="edgeStyle=orthogonalEdgeStyle;rounded=0;orthogonalLoop=1;jettySize=auto;html=1;entryX=0;entryY=0.5;entryDx=0;entryDy=0;" edge="1" parent="1" source="F0yUkIuMt_mIAwkm-PFu-522" target="F0yUkIuMt_mIAwkm-PFu-524">
          <mxGeometry relative="1" as="geometry" />
        </mxCell>
        <mxCell id="F0yUkIuMt_mIAwkm-PFu-522" value="Front Support To Rear Support To Front&amp;nbsp;" style="whiteSpace=wrap;html=1;" vertex="1" parent="1">
          <mxGeometry x="1360" y="4250" width="120" height="60" as="geometry" />
        </mxCell>
        <mxCell id="F0yUkIuMt_mIAwkm-PFu-523" style="edgeStyle=orthogonalEdgeStyle;rounded=0;orthogonalLoop=1;jettySize=auto;html=1;entryX=0;entryY=0.5;entryDx=0;entryDy=0;" edge="1" parent="1" source="F0yUkIuMt_mIAwkm-PFu-524" target="F0yUkIuMt_mIAwkm-PFu-528">
          <mxGeometry relative="1" as="geometry" />
        </mxCell>
        <mxCell id="F0yUkIuMt_mIAwkm-PFu-524" value="Front Support To Rear Support To Front (Feet At Shoulder Height)" style="whiteSpace=wrap;html=1;" vertex="1" parent="1">
          <mxGeometry x="1640" y="4250" width="120" height="60" as="geometry" />
        </mxCell>
        <mxCell id="F0yUkIuMt_mIAwkm-PFu-525" style="edgeStyle=orthogonalEdgeStyle;rounded=0;orthogonalLoop=1;jettySize=auto;html=1;entryX=0;entryY=0.5;entryDx=0;entryDy=0;" edge="1" parent="1" source="F0yUkIuMt_mIAwkm-PFu-526" target="F0yUkIuMt_mIAwkm-PFu-558">
          <mxGeometry relative="1" as="geometry" />
        </mxCell>
        <mxCell id="F0yUkIuMt_mIAwkm-PFu-526" value="1/4 Circle, Walk Body To Rear Support On Trainer" style="whiteSpace=wrap;html=1;" vertex="1" parent="1">
          <mxGeometry x="1920" y="4440" width="120" height="60" as="geometry" />
        </mxCell>
        <mxCell id="F0yUkIuMt_mIAwkm-PFu-527" style="edgeStyle=orthogonalEdgeStyle;rounded=0;orthogonalLoop=1;jettySize=auto;html=1;entryX=0;entryY=0.5;entryDx=0;entryDy=0;" edge="1" parent="1" source="F0yUkIuMt_mIAwkm-PFu-528" target="F0yUkIuMt_mIAwkm-PFu-538">
          <mxGeometry relative="1" as="geometry" />
        </mxCell>
        <mxCell id="F0yUkIuMt_mIAwkm-PFu-528" value="Front Support Arm To Arm Pulls In Bucket" style="whiteSpace=wrap;html=1;" vertex="1" parent="1">
          <mxGeometry x="1920" y="4250" width="120" height="60" as="geometry" />
        </mxCell>
        <mxCell id="F0yUkIuMt_mIAwkm-PFu-529" style="edgeStyle=orthogonalEdgeStyle;rounded=0;orthogonalLoop=1;jettySize=auto;html=1;entryX=0;entryY=0.5;entryDx=0;entryDy=0;" edge="1" parent="1" source="F0yUkIuMt_mIAwkm-PFu-530" target="F0yUkIuMt_mIAwkm-PFu-555">
          <mxGeometry relative="1" as="geometry" />
        </mxCell>
        <mxCell id="F0yUkIuMt_mIAwkm-PFu-530" value="Side Support On Floor, Leg Kicks x5" style="whiteSpace=wrap;html=1;" vertex="1" parent="1">
          <mxGeometry x="2480" y="4520" width="120" height="60" as="geometry" />
        </mxCell>
        <mxCell id="F0yUkIuMt_mIAwkm-PFu-531" style="edgeStyle=orthogonalEdgeStyle;rounded=0;orthogonalLoop=1;jettySize=auto;html=1;entryX=0;entryY=0.5;entryDx=0;entryDy=0;" edge="1" parent="1" source="F0yUkIuMt_mIAwkm-PFu-532" target="F0yUkIuMt_mIAwkm-PFu-536">
          <mxGeometry relative="1" as="geometry" />
        </mxCell>
        <mxCell id="F0yUkIuMt_mIAwkm-PFu-532" value="Table Walk, Forwards And Backwards" style="whiteSpace=wrap;html=1;" vertex="1" parent="1">
          <mxGeometry x="1920" y="4340" width="120" height="60" as="geometry" />
        </mxCell>
        <mxCell id="F0yUkIuMt_mIAwkm-PFu-533" style="edgeStyle=orthogonalEdgeStyle;rounded=0;orthogonalLoop=1;jettySize=auto;html=1;entryX=0;entryY=0.5;entryDx=0;entryDy=0;" edge="1" parent="1" source="F0yUkIuMt_mIAwkm-PFu-534" target="F0yUkIuMt_mIAwkm-PFu-530">
          <mxGeometry relative="1" as="geometry" />
        </mxCell>
        <mxCell id="F0yUkIuMt_mIAwkm-PFu-534" value="Stride Support On Handles (Both Sides)" style="whiteSpace=wrap;html=1;" vertex="1" parent="1">
          <mxGeometry x="2200" y="4520" width="120" height="60" as="geometry" />
        </mxCell>
        <mxCell id="F0yUkIuMt_mIAwkm-PFu-535" style="edgeStyle=orthogonalEdgeStyle;rounded=0;orthogonalLoop=1;jettySize=auto;html=1;entryX=0;entryY=0.5;entryDx=0;entryDy=0;" edge="1" parent="1" source="F0yUkIuMt_mIAwkm-PFu-536" target="F0yUkIuMt_mIAwkm-PFu-561">
          <mxGeometry relative="1" as="geometry" />
        </mxCell>
        <mxCell id="F0yUkIuMt_mIAwkm-PFu-536" value="Table Walk Sideways, Left And Right" style="whiteSpace=wrap;html=1;" vertex="1" parent="1">
          <mxGeometry x="2200" y="4340" width="120" height="60" as="geometry" />
        </mxCell>
        <mxCell id="F0yUkIuMt_mIAwkm-PFu-537" style="edgeStyle=orthogonalEdgeStyle;rounded=0;orthogonalLoop=1;jettySize=auto;html=1;entryX=0;entryY=0.5;entryDx=0;entryDy=0;" edge="1" parent="1" source="F0yUkIuMt_mIAwkm-PFu-538" target="F0yUkIuMt_mIAwkm-PFu-540">
          <mxGeometry relative="1" as="geometry" />
        </mxCell>
        <mxCell id="F0yUkIuMt_mIAwkm-PFu-538" value="1/2 Circle Assisted Or In Bucket" style="whiteSpace=wrap;html=1;" vertex="1" parent="1">
          <mxGeometry x="2480" y="4250" width="120" height="60" as="geometry" />
        </mxCell>
        <mxCell id="F0yUkIuMt_mIAwkm-PFu-539" style="edgeStyle=orthogonalEdgeStyle;rounded=0;orthogonalLoop=1;jettySize=auto;html=1;entryX=0;entryY=0.5;entryDx=0;entryDy=0;" edge="1" parent="1" source="F0yUkIuMt_mIAwkm-PFu-540" target="F0yUkIuMt_mIAwkm-PFu-565">
          <mxGeometry relative="1" as="geometry" />
        </mxCell>
        <mxCell id="F0yUkIuMt_mIAwkm-PFu-540" value="Rear Support Arm To Arm Pulls Assisted Or In Bucket" style="whiteSpace=wrap;html=1;" vertex="1" parent="1">
          <mxGeometry x="2760" y="4250" width="120" height="60" as="geometry" />
        </mxCell>
        <mxCell id="F0yUkIuMt_mIAwkm-PFu-541" value="Forward Walkover" style="whiteSpace=wrap;html=1;" vertex="1" parent="1">
          <mxGeometry x="5560" y="3230" width="120" height="60" as="geometry" />
        </mxCell>
        <mxCell id="F0yUkIuMt_mIAwkm-PFu-542" value="Backward Walkover" style="whiteSpace=wrap;html=1;" vertex="1" parent="1">
          <mxGeometry x="5280" y="3300" width="120" height="60" as="geometry" />
        </mxCell>
        <mxCell id="F0yUkIuMt_mIAwkm-PFu-543" value="Hurdle, Roundoff, Rebound To Straight Jump" style="whiteSpace=wrap;html=1;" vertex="1" parent="1">
          <mxGeometry x="4720" y="3860" width="120" height="60" as="geometry" />
        </mxCell>
        <mxCell id="F0yUkIuMt_mIAwkm-PFu-544" value="Front Tuck" style="whiteSpace=wrap;html=1;" vertex="1" parent="1">
          <mxGeometry x="5560" y="3540" width="120" height="60" as="geometry" />
        </mxCell>
        <mxCell id="F0yUkIuMt_mIAwkm-PFu-545" style="edgeStyle=orthogonalEdgeStyle;rounded=0;orthogonalLoop=1;jettySize=auto;html=1;entryX=0;entryY=0.5;entryDx=0;entryDy=0;" edge="1" parent="1" source="F0yUkIuMt_mIAwkm-PFu-547" target="F0yUkIuMt_mIAwkm-PFu-506">
          <mxGeometry relative="1" as="geometry" />
        </mxCell>
        <mxCell id="F0yUkIuMt_mIAwkm-PFu-546" value="Roundoff, Back Handspring" style="whiteSpace=wrap;html=1;fontSize=40%;" vertex="1" parent="1">
          <mxGeometry x="5030" y="3730" width="600" height="300" as="geometry" />
        </mxCell>
        <mxCell id="F0yUkIuMt_mIAwkm-PFu-547" value="Bridge Kick-Over On Floor" style="whiteSpace=wrap;html=1;" vertex="1" parent="1">
          <mxGeometry x="4440" y="3300" width="120" height="60" as="geometry" />
        </mxCell>
        <mxCell id="F0yUkIuMt_mIAwkm-PFu-548" value="Cartwheel To Handstand, Forward Roll" style="whiteSpace=wrap;html=1;" vertex="1" parent="1">
          <mxGeometry x="3320" y="3700" width="120" height="60" as="geometry" />
        </mxCell>
        <mxCell id="F0yUkIuMt_mIAwkm-PFu-549" style="edgeStyle=orthogonalEdgeStyle;rounded=0;orthogonalLoop=1;jettySize=auto;html=1;entryX=0;entryY=0.5;entryDx=0;entryDy=0;" edge="1" parent="1" source="F0yUkIuMt_mIAwkm-PFu-550" target="F0yUkIuMt_mIAwkm-PFu-552">
          <mxGeometry relative="1" as="geometry" />
        </mxCell>
        <mxCell id="F0yUkIuMt_mIAwkm-PFu-550" value="Handstand 1/4 Pirouette" style="whiteSpace=wrap;html=1;" vertex="1" parent="1">
          <mxGeometry x="3880" y="3370" width="120" height="60" as="geometry" />
        </mxCell>
        <mxCell id="F0yUkIuMt_mIAwkm-PFu-551" style="edgeStyle=orthogonalEdgeStyle;rounded=0;orthogonalLoop=1;jettySize=auto;html=1;" edge="1" parent="1" source="F0yUkIuMt_mIAwkm-PFu-552" target="F0yUkIuMt_mIAwkm-PFu-553">
          <mxGeometry relative="1" as="geometry" />
        </mxCell>
        <mxCell id="F0yUkIuMt_mIAwkm-PFu-552" value="Handstand 1/2 Pirouette" style="whiteSpace=wrap;html=1;" vertex="1" parent="1">
          <mxGeometry x="4720" y="3370" width="120" height="60" as="geometry" />
        </mxCell>
        <mxCell id="F0yUkIuMt_mIAwkm-PFu-553" value="Handstand 1/1 Pirouette" style="whiteSpace=wrap;html=1;" vertex="1" parent="1">
          <mxGeometry x="5280" y="3370" width="120" height="60" as="geometry" />
        </mxCell>
        <mxCell id="F0yUkIuMt_mIAwkm-PFu-554" style="edgeStyle=orthogonalEdgeStyle;rounded=0;orthogonalLoop=1;jettySize=auto;html=1;entryX=0;entryY=0.5;entryDx=0;entryDy=0;" edge="1" parent="1" source="F0yUkIuMt_mIAwkm-PFu-555" target="F0yUkIuMt_mIAwkm-PFu-563">
          <mxGeometry relative="1" as="geometry" />
        </mxCell>
        <mxCell id="F0yUkIuMt_mIAwkm-PFu-555" value="Front Support To Stride Support To Rear Support" style="whiteSpace=wrap;html=1;" vertex="1" parent="1">
          <mxGeometry x="2760" y="4520" width="120" height="60" as="geometry" />
        </mxCell>
        <mxCell id="F0yUkIuMt_mIAwkm-PFu-556" style="edgeStyle=orthogonalEdgeStyle;rounded=0;orthogonalLoop=1;jettySize=auto;html=1;entryX=0;entryY=0.5;entryDx=0;entryDy=0;" edge="1" parent="1" source="F0yUkIuMt_mIAwkm-PFu-558" target="F0yUkIuMt_mIAwkm-PFu-565">
          <mxGeometry relative="1" as="geometry">
            <Array as="points">
              <mxPoint x="3200" y="4470" />
              <mxPoint x="3200" y="4280" />
            </Array>
          </mxGeometry>
        </mxCell>
        <mxCell id="F0yUkIuMt_mIAwkm-PFu-557" style="edgeStyle=orthogonalEdgeStyle;rounded=0;orthogonalLoop=1;jettySize=auto;html=1;entryX=0;entryY=0.5;entryDx=0;entryDy=0;" edge="1" parent="1" source="F0yUkIuMt_mIAwkm-PFu-558" target="F0yUkIuMt_mIAwkm-PFu-571">
          <mxGeometry relative="1" as="geometry" />
        </mxCell>
        <mxCell id="F0yUkIuMt_mIAwkm-PFu-558" value="1/2 Circle,&amp;nbsp; Walk Body To Front Support On Trainer" style="whiteSpace=wrap;html=1;" vertex="1" parent="1">
          <mxGeometry x="3040" y="4440" width="120" height="60" as="geometry" />
        </mxCell>
        <mxCell id="F0yUkIuMt_mIAwkm-PFu-559" style="edgeStyle=orthogonalEdgeStyle;rounded=0;orthogonalLoop=1;jettySize=auto;html=1;entryX=0;entryY=0.5;entryDx=0;entryDy=0;" edge="1" parent="1" source="F0yUkIuMt_mIAwkm-PFu-560" target="F0yUkIuMt_mIAwkm-PFu-569">
          <mxGeometry relative="1" as="geometry" />
        </mxCell>
        <mxCell id="F0yUkIuMt_mIAwkm-PFu-560" value="Front Support Straddled Pendular Swing" style="whiteSpace=wrap;html=1;" vertex="1" parent="1">
          <mxGeometry x="3320" y="4520" width="120" height="60" as="geometry" />
        </mxCell>
        <mxCell id="F0yUkIuMt_mIAwkm-PFu-561" value="Front Support Walk Around On Horse" style="whiteSpace=wrap;html=1;" vertex="1" parent="1">
          <mxGeometry x="3040" y="4340" width="120" height="60" as="geometry" />
        </mxCell>
        <mxCell id="F0yUkIuMt_mIAwkm-PFu-562" style="edgeStyle=orthogonalEdgeStyle;rounded=0;orthogonalLoop=1;jettySize=auto;html=1;entryX=0;entryY=0.5;entryDx=0;entryDy=0;" edge="1" parent="1" source="F0yUkIuMt_mIAwkm-PFu-563" target="F0yUkIuMt_mIAwkm-PFu-560">
          <mxGeometry relative="1" as="geometry" />
        </mxCell>
        <mxCell id="F0yUkIuMt_mIAwkm-PFu-563" value="Rear Support To Stride Support To Front Support" style="whiteSpace=wrap;html=1;" vertex="1" parent="1">
          <mxGeometry x="3040" y="4520" width="120" height="60" as="geometry" />
        </mxCell>
        <mxCell id="F0yUkIuMt_mIAwkm-PFu-564" style="edgeStyle=orthogonalEdgeStyle;rounded=0;orthogonalLoop=1;jettySize=auto;html=1;entryX=0;entryY=0.5;entryDx=0;entryDy=0;" edge="1" parent="1" source="F0yUkIuMt_mIAwkm-PFu-565" target="F0yUkIuMt_mIAwkm-PFu-567">
          <mxGeometry relative="1" as="geometry" />
        </mxCell>
        <mxCell id="F0yUkIuMt_mIAwkm-PFu-565" value="2nd 1/2 Circle Assisted Or In Bucket" style="whiteSpace=wrap;html=1;" vertex="1" parent="1">
          <mxGeometry x="3320" y="4250" width="120" height="60" as="geometry" />
        </mxCell>
        <mxCell id="F0yUkIuMt_mIAwkm-PFu-566" style="edgeStyle=orthogonalEdgeStyle;rounded=0;orthogonalLoop=1;jettySize=auto;html=1;" edge="1" parent="1" source="F0yUkIuMt_mIAwkm-PFu-567" target="F0yUkIuMt_mIAwkm-PFu-578">
          <mxGeometry relative="1" as="geometry" />
        </mxCell>
        <mxCell id="F0yUkIuMt_mIAwkm-PFu-567" value="Circle Assisted Or In Bucket" style="whiteSpace=wrap;html=1;" vertex="1" parent="1">
          <mxGeometry x="3600" y="4250" width="120" height="60" as="geometry" />
        </mxCell>
        <mxCell id="F0yUkIuMt_mIAwkm-PFu-568" style="edgeStyle=orthogonalEdgeStyle;rounded=0;orthogonalLoop=1;jettySize=auto;html=1;" edge="1" parent="1" source="F0yUkIuMt_mIAwkm-PFu-569" target="F0yUkIuMt_mIAwkm-PFu-575">
          <mxGeometry relative="1" as="geometry" />
        </mxCell>
        <mxCell id="F0yUkIuMt_mIAwkm-PFu-569" value="Stride Support Swings" style="whiteSpace=wrap;html=1;" vertex="1" parent="1">
          <mxGeometry x="3600" y="4520" width="120" height="60" as="geometry" />
        </mxCell>
        <mxCell id="F0yUkIuMt_mIAwkm-PFu-570" style="edgeStyle=orthogonalEdgeStyle;rounded=0;orthogonalLoop=1;jettySize=auto;html=1;entryX=0;entryY=0.5;entryDx=0;entryDy=0;" edge="1" parent="1" source="F0yUkIuMt_mIAwkm-PFu-571" target="F0yUkIuMt_mIAwkm-PFu-573">
          <mxGeometry relative="1" as="geometry" />
        </mxCell>
        <mxCell id="F0yUkIuMt_mIAwkm-PFu-571" value="3/4 Circle To Side Support On Trainer" style="whiteSpace=wrap;html=1;" vertex="1" parent="1">
          <mxGeometry x="3880" y="4440" width="120" height="60" as="geometry" />
        </mxCell>
        <mxCell id="F0yUkIuMt_mIAwkm-PFu-572" style="edgeStyle=orthogonalEdgeStyle;rounded=0;orthogonalLoop=1;jettySize=auto;html=1;entryX=0;entryY=0.5;entryDx=0;entryDy=0;" edge="1" parent="1" source="F0yUkIuMt_mIAwkm-PFu-573" target="F0yUkIuMt_mIAwkm-PFu-585">
          <mxGeometry relative="1" as="geometry" />
        </mxCell>
        <mxCell id="F0yUkIuMt_mIAwkm-PFu-573" value="Circle On Trainer" style="whiteSpace=wrap;html=1;" vertex="1" parent="1">
          <mxGeometry x="4720" y="4440" width="120" height="60" as="geometry" />
        </mxCell>
        <mxCell id="F0yUkIuMt_mIAwkm-PFu-574" style="edgeStyle=orthogonalEdgeStyle;rounded=0;orthogonalLoop=1;jettySize=auto;html=1;" edge="1" parent="1" source="F0yUkIuMt_mIAwkm-PFu-575" target="F0yUkIuMt_mIAwkm-PFu-597">
          <mxGeometry relative="1" as="geometry" />
        </mxCell>
        <mxCell id="F0yUkIuMt_mIAwkm-PFu-575" value="Front Support Swing, Cut Forward To Stride Support Swing" style="whiteSpace=wrap;html=1;" vertex="1" parent="1">
          <mxGeometry x="4160" y="4520" width="120" height="60" as="geometry" />
        </mxCell>
        <mxCell id="F0yUkIuMt_mIAwkm-PFu-576" style="edgeStyle=orthogonalEdgeStyle;rounded=0;orthogonalLoop=1;jettySize=auto;html=1;entryX=0;entryY=0.5;entryDx=0;entryDy=0;" edge="1" parent="1" source="F0yUkIuMt_mIAwkm-PFu-578" target="F0yUkIuMt_mIAwkm-PFu-580">
          <mxGeometry relative="1" as="geometry" />
        </mxCell>
        <mxCell id="F0yUkIuMt_mIAwkm-PFu-577" style="edgeStyle=orthogonalEdgeStyle;rounded=0;orthogonalLoop=1;jettySize=auto;html=1;entryX=0;entryY=0.5;entryDx=0;entryDy=0;" edge="1" parent="1" source="F0yUkIuMt_mIAwkm-PFu-578" target="F0yUkIuMt_mIAwkm-PFu-573">
          <mxGeometry relative="1" as="geometry">
            <Array as="points">
              <mxPoint x="4350" y="4280" />
              <mxPoint x="4350" y="4470" />
            </Array>
          </mxGeometry>
        </mxCell>
        <mxCell id="F0yUkIuMt_mIAwkm-PFu-578" value="2 Circles Assisted Or In Bucket" style="whiteSpace=wrap;html=1;" vertex="1" parent="1">
          <mxGeometry x="4160" y="4250" width="120" height="60" as="geometry" />
        </mxCell>
        <mxCell id="F0yUkIuMt_mIAwkm-PFu-579" style="edgeStyle=orthogonalEdgeStyle;rounded=0;orthogonalLoop=1;jettySize=auto;html=1;entryX=0;entryY=0.5;entryDx=0;entryDy=0;" edge="1" parent="1" source="F0yUkIuMt_mIAwkm-PFu-580" target="F0yUkIuMt_mIAwkm-PFu-583">
          <mxGeometry relative="1" as="geometry" />
        </mxCell>
        <mxCell id="F0yUkIuMt_mIAwkm-PFu-580" value="5 Circles Assisted Or In Bucket&amp;nbsp;" style="whiteSpace=wrap;html=1;" vertex="1" parent="1">
          <mxGeometry x="4440" y="4250" width="120" height="60" as="geometry" />
        </mxCell>
        <mxCell id="F0yUkIuMt_mIAwkm-PFu-581" style="edgeStyle=orthogonalEdgeStyle;rounded=0;orthogonalLoop=1;jettySize=auto;html=1;entryX=0;entryY=0.5;entryDx=0;entryDy=0;" edge="1" parent="1" source="F0yUkIuMt_mIAwkm-PFu-583" target="F0yUkIuMt_mIAwkm-PFu-591">
          <mxGeometry relative="1" as="geometry" />
        </mxCell>
        <mxCell id="F0yUkIuMt_mIAwkm-PFu-582" style="edgeStyle=orthogonalEdgeStyle;rounded=0;orthogonalLoop=1;jettySize=auto;html=1;entryX=0;entryY=0.5;entryDx=0;entryDy=0;" edge="1" parent="1" source="F0yUkIuMt_mIAwkm-PFu-583" target="F0yUkIuMt_mIAwkm-PFu-593">
          <mxGeometry relative="1" as="geometry" />
        </mxCell>
        <mxCell id="F0yUkIuMt_mIAwkm-PFu-583" value="10 Circles Assisted Or In Bucket" style="whiteSpace=wrap;html=1;" vertex="1" parent="1">
          <mxGeometry x="4720" y="4250" width="120" height="60" as="geometry" />
        </mxCell>
        <mxCell id="F0yUkIuMt_mIAwkm-PFu-584" style="edgeStyle=orthogonalEdgeStyle;rounded=0;orthogonalLoop=1;jettySize=auto;html=1;entryX=0;entryY=0.5;entryDx=0;entryDy=0;" edge="1" parent="1" source="F0yUkIuMt_mIAwkm-PFu-585" target="F0yUkIuMt_mIAwkm-PFu-588">
          <mxGeometry relative="1" as="geometry" />
        </mxCell>
        <mxCell id="F0yUkIuMt_mIAwkm-PFu-585" value="Circle On Trainer, Finish Leaning On Trainer" style="whiteSpace=wrap;html=1;" vertex="1" parent="1">
          <mxGeometry x="5000" y="4440" width="120" height="60" as="geometry" />
        </mxCell>
        <mxCell id="F0yUkIuMt_mIAwkm-PFu-586" value="1/2 Spindle Assisted Or In Bucket" style="whiteSpace=wrap;html=1;" vertex="1" parent="1">
          <mxGeometry x="5560" y="4250" width="120" height="60" as="geometry" />
        </mxCell>
        <mxCell id="F0yUkIuMt_mIAwkm-PFu-587" style="edgeStyle=orthogonalEdgeStyle;rounded=0;orthogonalLoop=1;jettySize=auto;html=1;entryX=0;entryY=0.5;entryDx=0;entryDy=0;" edge="1" parent="1" source="F0yUkIuMt_mIAwkm-PFu-588" target="F0yUkIuMt_mIAwkm-PFu-589">
          <mxGeometry relative="1" as="geometry" />
        </mxCell>
        <mxCell id="F0yUkIuMt_mIAwkm-PFu-588" value="1 &amp;amp;1/2 Circles On Trainer" style="whiteSpace=wrap;html=1;" vertex="1" parent="1">
          <mxGeometry x="5240" y="4440" width="120" height="60" as="geometry" />
        </mxCell>
        <mxCell id="F0yUkIuMt_mIAwkm-PFu-589" value="2 Circles On Trainer" style="whiteSpace=wrap;html=1;" vertex="1" parent="1">
          <mxGeometry x="5560" y="4440" width="120" height="60" as="geometry" />
        </mxCell>
        <mxCell id="F0yUkIuMt_mIAwkm-PFu-590" style="edgeStyle=orthogonalEdgeStyle;rounded=0;orthogonalLoop=1;jettySize=auto;html=1;entryX=0;entryY=0.5;entryDx=0;entryDy=0;" edge="1" parent="1" source="F0yUkIuMt_mIAwkm-PFu-591" target="F0yUkIuMt_mIAwkm-PFu-586">
          <mxGeometry relative="1" as="geometry" />
        </mxCell>
        <mxCell id="F0yUkIuMt_mIAwkm-PFu-591" value="1/4 Spindle In Assisted Or In Bucket" style="whiteSpace=wrap;html=1;" vertex="1" parent="1">
          <mxGeometry x="5000" y="4250" width="120" height="60" as="geometry" />
        </mxCell>
        <mxCell id="F0yUkIuMt_mIAwkm-PFu-592" style="edgeStyle=orthogonalEdgeStyle;rounded=0;orthogonalLoop=1;jettySize=auto;html=1;" edge="1" parent="1" source="F0yUkIuMt_mIAwkm-PFu-593" target="F0yUkIuMt_mIAwkm-PFu-595">
          <mxGeometry relative="1" as="geometry" />
        </mxCell>
        <mxCell id="F0yUkIuMt_mIAwkm-PFu-593" value="1/4 Khere Assisted Or In Bucket" style="whiteSpace=wrap;html=1;" vertex="1" parent="1">
          <mxGeometry x="5000" y="4340" width="120" height="60" as="geometry" />
        </mxCell>
        <mxCell id="F0yUkIuMt_mIAwkm-PFu-594" style="edgeStyle=orthogonalEdgeStyle;rounded=0;orthogonalLoop=1;jettySize=auto;html=1;entryX=0;entryY=0.5;entryDx=0;entryDy=0;" edge="1" parent="1" source="F0yUkIuMt_mIAwkm-PFu-595" target="F0yUkIuMt_mIAwkm-PFu-599">
          <mxGeometry relative="1" as="geometry" />
        </mxCell>
        <mxCell id="F0yUkIuMt_mIAwkm-PFu-595" value="1/4 Czech Assisted Or In Bucket" style="whiteSpace=wrap;html=1;" vertex="1" parent="1">
          <mxGeometry x="5240" y="4340" width="120" height="60" as="geometry" />
        </mxCell>
        <mxCell id="F0yUkIuMt_mIAwkm-PFu-596" style="edgeStyle=orthogonalEdgeStyle;rounded=0;orthogonalLoop=1;jettySize=auto;html=1;" edge="1" parent="1" source="F0yUkIuMt_mIAwkm-PFu-597" target="F0yUkIuMt_mIAwkm-PFu-598">
          <mxGeometry relative="1" as="geometry" />
        </mxCell>
        <mxCell id="F0yUkIuMt_mIAwkm-PFu-597" value="Stride Support Swing, Cut To Front Support Swing" style="whiteSpace=wrap;html=1;" vertex="1" parent="1">
          <mxGeometry x="4440" y="4520" width="120" height="60" as="geometry" />
        </mxCell>
        <mxCell id="F0yUkIuMt_mIAwkm-PFu-598" value="Front Support Swing, Cut Fwd To Side Support Straddled On Horse" style="whiteSpace=wrap;html=1;" vertex="1" parent="1">
          <mxGeometry x="5240" y="4520" width="120" height="60" as="geometry" />
        </mxCell>
        <mxCell id="F0yUkIuMt_mIAwkm-PFu-599" value="Czechkhere Assisted Or In Bucket" style="whiteSpace=wrap;html=1;" vertex="1" parent="1">
          <mxGeometry x="5560" y="4340" width="120" height="60" as="geometry" />
        </mxCell>
      </root>
    </mxGraphModel>
  </diagram>
</mxfile>
